<svg id="Слой_1" data-name="Слой 1" xmlns="http://www.w3.org/2000/svg" viewBox="0 0 126 109"><defs><style>.cls-1{fill:#2c72c5;}</style></defs><title>1</title><path class="cls-1" d="M754.82,450.5h-4c-4-5.37-7.8-10.91-12.05-16.08q-18.42-22.49-37.15-44.7c-3.79-4.53-7.86-8.82-11.8-13.22v-4c3.42-4.15,7-8.15,10.2-12.48,4.44-6,8.55-12.33,12.8-18.52h80l23,31v4c-5.61,6.24-11.41,12.32-16.8,18.75q-16.44,19.61-32.49,39.54C762.43,439.87,758.71,445.25,754.82,450.5Zm-2.73-11.21,1.46.08L772.83,377H732.72C739.32,398.24,745.7,418.77,752.09,439.29ZM696,376.64l48.83,59,1.22-.77a25.74,25.74,0,0,0-.57-4.35q-8-25.49-16.07-50.9c-.38-1.17-1.88-2.79-2.89-2.81C716.76,376.56,707,376.64,696,376.64Zm63.09,58.05,1.68,1,49-59c-11,0-20.42-.1-29.85.12a4.81,4.81,0,0,0-3.54,2.65c-4.23,13-8.21,26.13-12.27,39.21Q761.58,426.64,759.05,434.69ZM752.82,347l-18.37,24.93h36.69C764.92,363.47,759.21,355.69,752.82,347Zm34.72-.89H757.12l18.27,24.74Zm-57.32,24.7,18.17-24.64H718.15Zm-34,1.05h30.19l-12.11-24.26Zm95.13-24.27c-4.23,8.55-8,16.22-12,24.25H809.4C803.2,363.52,797.53,355.9,791.33,347.58Z" transform="translate(-689.82 -341.5)"/></svg>