<svg id="Слой_1" data-name="Слой 1" xmlns="http://www.w3.org/2000/svg" viewBox="0 0 119.19 121"><defs><style>.cls-1{fill:#1562bf;}.cls-2{fill:#1d68c1;}</style></defs><title>2</title><path class="cls-1" d="M796.71,471.91h-98c-2.58-2.45-6.4-3.8-7-8l-.18-85.23.06-1.92c2.1-5.54,6.26-7.87,12-7.84,9.82,0,19.65,0,29.48,0,1.81,0,3.6.17,5.33-.82,10.08-5.78,20.19-11.49,30.3-17.22h5c4.53,3.44,6.45,8.69,8.92,13.46,1.84,3.55,4,4.81,8.06,4.69,9.9-.28,14.06,4.13,14.08,14.18,0,7.9,0,15.8,0,23.66,2.34.33,4.14.55,5.94,0v2c-1.34,1.75-1,3.81-1,5.79-.05,7.33,0,14.66-.06,22-1.5.56-3.3-.43-4.89,1,0,6.15-.36,12.45.09,18.69C805.38,463.49,802.82,468.54,796.71,471.91Zm3.36-35c-5.49,0-10.46,0-15.42,0-9.53-.09-15.85-6.05-15.82-14.87s6.32-14.68,15.93-14.8c5-.06,9.89,0,15,0V384.46h-6.18q-43.24,0-86.5,0c-2,0-5.1.81-5.24-2.22-.15-3.27,3-2.25,5-2.38a39.06,39.06,0,0,1,6.49,0c5.58.56,9.07-3.25,13.27-5.68-7.5-.5-14.82-.53-22.14-.49-6.74,0-8.9,2.23-8.9,9.06q0,37.75,0,75.5c0,6.72,2.22,8.92,9,8.95,13,0,26,0,39,0,16,0,32,0,48,0,6,0,8.38-2.27,8.47-8C800.16,452.05,800.07,444.89,800.07,436.9ZM786,379.69c-4.26-7.65-8.24-14.54-12-21.57-1.73-3.26-3.73-2.47-6.14-1.12-8,4.48-16,8.91-24,13.38-5.12,2.85-10.22,5.73-16.59,9.31ZM805.64,412c-8.14,0-16.06-.29-23.95.11-4.84.25-8.05,4.64-8.13,9.72s3,9.75,7.71,10c8,.43,16.12.11,24.37.11Zm-5.89-32.44c-2.16-5.75-4.37-6.73-11-5.27C789.82,381.13,794.75,380,799.75,379.59Z" transform="translate(-691.51 -350.91)"/><path class="cls-2" d="M790.3,422.25c-.44,3.17-2.16,5.06-5.19,5.06a4.74,4.74,0,0,1-5.07-4.95,4.82,4.82,0,0,1,5.35-5.17C788.36,417.32,790,419.37,790.3,422.25Z" transform="translate(-691.51 -350.91)"/></svg>