<svg id="Слой_1" data-name="Слой 1" xmlns="http://www.w3.org/2000/svg" viewBox="0 0 127 127"><defs><style>.cls-1{fill:#286fc4;}.cls-2{fill:#2e73c5;}</style></defs><title>3</title><path class="cls-1" d="M700.47,286.82h21a8.13,8.13,0,0,1,2.9,7c-.14,3.44,0,6.88,0,10.13l10,4.07c2.67-2.62,5.24-5.2,7.89-7.69,3.21-3.05,5.37-3.11,8.59-.07,3.39,3.19,6.67,6.5,9.88,9.87,3.45,3.6,3.33,5.56-.25,9.3l-7.11,7.4c1.57,3.55,3,6.71,4.47,10.11,3.3,0,6.44.13,9.57,0a8,8,0,0,1,7,2.88v21a8,8,0,0,1-7,2.88c-3.12-.15-6.25,0-9.32,0-1.48,3.86-2.77,7.23-4.13,10.76,2.32,2.4,4.52,4.65,6.69,6.92,3.35,3.52,3.47,5.55.25,8.95s-6.5,6.68-9.88,9.88-5.52,3.16-9-.11c-2.27-2.16-4.52-4.34-6.83-6.56l-10.92,4.68c0,3-.12,5.79,0,8.59a8,8,0,0,1-2.89,7h-21a8,8,0,0,1-2.91-7c.13-2.93,0-5.88-.06-8.61l-11-4.54c-2.23,2.17-4.46,4.38-6.74,6.54-3.27,3.09-5.43,3.23-8.59.25q-5.26-5-10.25-10.23c-3.09-3.26-3-5.3.08-8.56,2.25-2.4,4.54-4.77,6.75-7.09l-4.34-10.88c-3,0-5.95-.12-8.91,0a7.9,7.9,0,0,1-7-2.88v-21a8,8,0,0,1,7-2.88c3.12.16,6.24,0,9.35,0l4.38-10.5c-2.49-2.57-4.8-4.94-7.09-7.34-3.27-3.44-3.32-5.44,0-8.92,3-3.12,6.06-6.15,9.16-9.16,4.09-4,6-4,10-.07,2.47,2.38,5,4.74,7.31,7l10-4.15c0-3.36.11-6.67,0-10A8,8,0,0,1,700.47,286.82Zm58.95,99.26-10.4-11c2.21-5.42,4.19-10.31,6.39-15.7h14.94c.13-6.32.25-12.05-.08-18.4H754.94c-2.35-5.37-4.39-10.06-6.55-15,3.57-3.61,7.14-7.24,10.61-10.76-3.13-4.88-9.63-11.13-13.15-12.71L735.15,313l-15-6.33v-15.1c-5.17-1.16-14.53-1-18.54.31v14.83l-15,6.14-10.73-10.59c-4.76,3.06-11.06,9.6-12.72,13.13l10.2,10.39-6.84,15.41H651.81V359.4l14.6.44,6.32,15.6-9.76,10c2.93,4.65,9.53,11,13.1,12.71l9.67-9.5c5.39,2.29,10.41,4.41,16.08,6.8v14.3c6.38,0,12.12.2,18.46-.1V395.34l15.78-6.8,10.47,10.17c1.65-1.53,2.89-2.61,4.05-3.76C753.41,392.15,756.2,389.32,759.42,386.08Z" transform="translate(-647.47 -286.82)"/><path class="cls-2" d="M711.16,379.58a29.26,29.26,0,1,1,29.07-29.46A29.51,29.51,0,0,1,711.16,379.58ZM736,350.22a25,25,0,1,0-25,25.13A25,25,0,0,0,736,350.22Z" transform="translate(-647.47 -286.82)"/></svg>