<?xml version="1.0" standalone="no"?>
<!DOCTYPE svg PUBLIC "-//W3C//DTD SVG 20010904//EN"
 "http://www.w3.org/TR/2001/REC-SVG-20010904/DTD/svg10.dtd">
<svg version="1.0" xmlns="http://www.w3.org/2000/svg"
 width="30.000000pt" height="24.000000pt" viewBox="0 0 30.000000 24.000000"
 preserveAspectRatio="xMidYMid meet">

<g transform="translate(0.000000,24.000000) scale(0.100000,-0.100000)"
fill="#000000" stroke="none">
<path d="M167 213 c-4 -3 3 -11 16 -17 31 -16 33 -49 5 -76 -13 -13 -17 -21
-9 -18 8 2 23 16 34 30 15 21 17 30 8 47 -16 29 3 28 34 -4 18 -17 25 -35 25
-63 0 -43 3 -42 -130 -42 -133 0 -130 -1 -130 41 0 42 5 46 34 24 11 -8 28
-15 38 -15 19 0 42 35 33 50 -3 6 -2 10 4 10 6 0 17 -12 25 -27 11 -20 15 -23
16 -10 0 26 -36 57 -67 57 -25 -1 -26 -2 -10 -14 9 -7 17 -21 17 -30 0 -24
-28 -31 -49 -12 -10 9 -28 16 -40 16 -21 0 -22 -3 -19 -77 l3 -78 145 0 145 0
3 62 c2 43 -2 72 -13 93 -21 40 -97 75 -118 53z m111 -176 c3 -15 -8 -17 -127
-17 -103 0 -131 3 -131 13 0 8 2 16 5 18 2 3 60 5 127 5 109 -1 123 -3 126
-19z"/>
</g>
</svg>
