<svg id="Слой_1" data-name="Слой 1" xmlns="http://www.w3.org/2000/svg" viewBox="0 0 119.86 119.86"><defs><style>.cls-1{fill:#feebde;}.cls-2{fill:#fed9bb;}.cls-3{fill:#fc9448;}.cls-4{fill:#fc8d3b;}.cls-5{fill:#fef3eb;}</style></defs><title>1</title><path class="cls-1" d="M-44.56,306.41q-1.95,6.07-3.91,12.13c-.61,1.89-1.07,3.87-3.09,4.86-.19-1.76.78-3.17,1.33-4.73,3.31-9.43,5.38-18.86,4-29.14-1-7-4-13.28-5.3-20.08,4.19,3.86,4.33,9.42,6,14.34.3.92.08,2,1,2.65Z" transform="translate(164.42 -236.49)"/><path class="cls-1" d="M-164.42,286.44l3.9-12.13c.61-1.89,1.08-3.87,3.09-4.86.19,1.76-.78,3.17-1.33,4.73-3.31,9.43-5.38,18.86-4,29.14,1,7,4,13.28,5.29,20.08-4.18-3.86-4.32-9.42-5.95-14.34-.3-.92-.08-2-1-2.65Z" transform="translate(164.42 -236.49)"/><path class="cls-1" d="M-94.5,236.49l12.12,3.91c1.89.61,3.87,1.08,4.86,3.09-1.76.19-3.17-.78-4.73-1.33-9.76-3.44-19.52-5.7-30.14-3.91-6.62,1.11-12.59,4-19.08,5.24,3.86-4.18,9.42-4.33,14.35-6,.91-.3,2-.08,2.64-1Z" transform="translate(164.42 -236.49)"/><path class="cls-1" d="M-77.52,349.36c-3.86,4.19-9.42,4.33-14.34,5.95-.91.3-2,.08-2.64,1.05h-20l-12.13-3.91c-1.89-.61-3.87-1.07-4.86-3.09,1.76-.19,3.17.78,4.73,1.33,9.76,3.44,19.53,5.71,30.14,3.92C-90,353.49-84,350.6-77.52,349.36Z" transform="translate(164.42 -236.49)"/><path class="cls-1" d="M-157.44,323.39c1.81.76,2.11,2.29,2,4C-157.24,326.63-157.53,325.1-157.44,323.39Z" transform="translate(164.42 -236.49)"/><path class="cls-1" d="M-135.47,347.36c1.72-.09,3.25.2,4,2C-133.17,349.46-134.7,349.17-135.47,347.36Z" transform="translate(164.42 -236.49)"/><path class="cls-1" d="M-149.45,335.38c1.34,0,1.94.78,2.13,2A1.87,1.87,0,0,1-149.45,335.38Z" transform="translate(164.42 -236.49)"/><path class="cls-1" d="M-145.45,339.25a2,2,0,0,1,2,2.13A1.87,1.87,0,0,1-145.45,339.25Z" transform="translate(164.42 -236.49)"/><path class="cls-1" d="M-140.46,343.36a1.85,1.85,0,0,1,2,2A1.85,1.85,0,0,1-140.46,343.36Z" transform="translate(164.42 -236.49)"/><path class="cls-1" d="M-154.44,328.38a2.06,2.06,0,0,1,1,2A2,2,0,0,1-154.44,328.38Z" transform="translate(164.42 -236.49)"/><path class="cls-1" d="M-151.45,332.32a2.17,2.17,0,0,1,1,2.07A2.07,2.07,0,0,1-151.45,332.32Z" transform="translate(164.42 -236.49)"/><path class="cls-1" d="M-142.46,342.37a2.05,2.05,0,0,1,2,1A2,2,0,0,1-142.46,342.37Z" transform="translate(164.42 -236.49)"/><path class="cls-1" d="M-137.47,346.36a2,2,0,0,1,2,1A2.08,2.08,0,0,1-137.47,346.36Z" transform="translate(164.42 -236.49)"/><path class="cls-1" d="M-155.44,327.38l1,1Z" transform="translate(164.42 -236.49)"/><path class="cls-1" d="M-143.45,341.37l1,1Z" transform="translate(164.42 -236.49)"/><path class="cls-1" d="M-153.45,330.38l1.1,1Z" transform="translate(164.42 -236.49)"/><path class="cls-1" d="M-138.46,345.36l1,1Z" transform="translate(164.42 -236.49)"/><path class="cls-1" d="M-150.45,334.38l1,1Z" transform="translate(164.42 -236.49)"/><path class="cls-1" d="M-155.43,265.45c.11,1.73-.2,3.25-2,4C-157.53,267.75-157.23,266.22-155.43,265.45Z" transform="translate(164.42 -236.49)"/><path class="cls-1" d="M-131.45,243.48c-.77,1.81-2.3,2.1-4,2C-134.7,243.69-133.17,243.39-131.45,243.48Z" transform="translate(164.42 -236.49)"/><path class="cls-1" d="M-151.43,260.46a1.86,1.86,0,0,1-2,2A1.85,1.85,0,0,1-151.43,260.46Z" transform="translate(164.42 -236.49)"/><path class="cls-1" d="M-138.45,247.47a1.85,1.85,0,0,1-2,2A1.85,1.85,0,0,1-138.45,247.47Z" transform="translate(164.42 -236.49)"/><path class="cls-1" d="M-143.44,251.47c0,1.34-.78,1.94-2,2.13A1.87,1.87,0,0,1-143.44,251.47Z" transform="translate(164.42 -236.49)"/><path class="cls-1" d="M-147.32,255.47c-.19,1.22-.79,2-2.13,2A1.87,1.87,0,0,1-147.32,255.47Z" transform="translate(164.42 -236.49)"/><path class="cls-1" d="M-150.44,258.46a2,2,0,0,1-1,2A2,2,0,0,1-150.44,258.46Z" transform="translate(164.42 -236.49)"/><path class="cls-1" d="M-153.43,262.46a2,2,0,0,1-1,2A2,2,0,0,1-153.43,262.46Z" transform="translate(164.42 -236.49)"/><path class="cls-1" d="M-136.45,246.48a2,2,0,0,1-2,1A2,2,0,0,1-136.45,246.48Z" transform="translate(164.42 -236.49)"/><path class="cls-1" d="M-140.44,249.47a2.05,2.05,0,0,1-2,1A2,2,0,0,1-140.44,249.47Z" transform="translate(164.42 -236.49)"/><path class="cls-1" d="M-135.45,245.48l-1,1Z" transform="translate(164.42 -236.49)"/><path class="cls-1" d="M-154.43,264.45l-1,1Z" transform="translate(164.42 -236.49)"/><path class="cls-1" d="M-149.44,257.46l-1,1Z" transform="translate(164.42 -236.49)"/><path class="cls-1" d="M-142.44,250.47l-1,1Z" transform="translate(164.42 -236.49)"/><path class="cls-1" d="M-73.52,245.49c-1.72.09-3.25-.2-4-2C-75.81,243.39-74.29,243.69-73.52,245.49Z" transform="translate(164.42 -236.49)"/><path class="cls-1" d="M-51.55,269.47c-1.81-.77-2.1-2.3-2-4C-51.75,266.22-51.46,267.75-51.55,269.47Z" transform="translate(164.42 -236.49)"/><path class="cls-1" d="M-59.54,257.47c-1.34,0-1.94-.78-2.12-2A1.87,1.87,0,0,1-59.54,257.47Z" transform="translate(164.42 -236.49)"/><path class="cls-1" d="M-68.52,249.49a1.86,1.86,0,0,1-2-2A1.86,1.86,0,0,1-68.52,249.49Z" transform="translate(164.42 -236.49)"/><path class="cls-1" d="M-55.54,262.47a1.86,1.86,0,0,1-2-2A1.85,1.85,0,0,1-55.54,262.47Z" transform="translate(164.42 -236.49)"/><path class="cls-1" d="M-63.54,253.6c-1.22-.19-2-.79-2-2.13A1.87,1.87,0,0,1-63.54,253.6Z" transform="translate(164.42 -236.49)"/><path class="cls-1" d="M-66.53,250.48a2.05,2.05,0,0,1-2-1A2,2,0,0,1-66.53,250.48Z" transform="translate(164.42 -236.49)"/><path class="cls-1" d="M-57.54,260.48a2.05,2.05,0,0,1-1-2A2,2,0,0,1-57.54,260.48Z" transform="translate(164.42 -236.49)"/><path class="cls-1" d="M-54.54,264.47a2,2,0,0,1-1-2A2,2,0,0,1-54.54,264.47Z" transform="translate(164.42 -236.49)"/><path class="cls-1" d="M-70.52,247.49a2.07,2.07,0,0,1-2-1A2,2,0,0,1-70.52,247.49Z" transform="translate(164.42 -236.49)"/><path class="cls-1" d="M-53.54,265.47l-1-1Z" transform="translate(164.42 -236.49)"/><path class="cls-1" d="M-58.54,258.48l-1-1Z" transform="translate(164.42 -236.49)"/><path class="cls-1" d="M-65.53,251.48l-1-1Z" transform="translate(164.42 -236.49)"/><path class="cls-1" d="M-72.52,246.49l-1-1Z" transform="translate(164.42 -236.49)"/><path class="cls-1" d="M-77.53,349.37c.76-1.81,2.29-2.1,4-2C-74.29,349.17-75.81,349.46-77.53,349.37Z" transform="translate(164.42 -236.49)"/><path class="cls-1" d="M-53.56,327.4c-.09-1.72.2-3.25,2-4C-51.46,325.11-51.75,326.63-53.56,327.4Z" transform="translate(164.42 -236.49)"/><path class="cls-1" d="M-61.67,337.38c.19-1.22.79-2,2.13-2A1.87,1.87,0,0,1-61.67,337.38Z" transform="translate(164.42 -236.49)"/><path class="cls-1" d="M-65.54,341.38c0-1.34.78-1.94,2-2.13A1.87,1.87,0,0,1-65.54,341.38Z" transform="translate(164.42 -236.49)"/><path class="cls-1" d="M-70.54,345.38a1.87,1.87,0,0,1,2-2A1.86,1.86,0,0,1-70.54,345.38Z" transform="translate(164.42 -236.49)"/><path class="cls-1" d="M-58.55,334.39a2.17,2.17,0,0,1,1-2.07A2.05,2.05,0,0,1-58.55,334.39Z" transform="translate(164.42 -236.49)"/><path class="cls-1" d="M-68.55,343.38a2.05,2.05,0,0,1,2-1A2,2,0,0,1-68.55,343.38Z" transform="translate(164.42 -236.49)"/><path class="cls-1" d="M-73.54,347.37a2,2,0,0,1,2-1A2.07,2.07,0,0,1-73.54,347.37Z" transform="translate(164.42 -236.49)"/><path class="cls-1" d="M-54.56,329.4a2,2,0,0,1,1-2A2.09,2.09,0,0,1-54.56,329.4Z" transform="translate(164.42 -236.49)"/><path class="cls-1" d="M-59.55,335.39l1-1Z" transform="translate(164.42 -236.49)"/><path class="cls-1" d="M-66.54,342.38l1-1Z" transform="translate(164.42 -236.49)"/><path class="cls-1" d="M-55.56,330.4l1-1Z" transform="translate(164.42 -236.49)"/><path class="cls-1" d="M-71.54,346.38l1-1Z" transform="translate(164.42 -236.49)"/><path class="cls-1" d="M-56.64,331.4l1.1-1Z" transform="translate(164.42 -236.49)"/><path class="cls-2" d="M-54.54,296.78c0,27.71-22.25,49.63-50.31,49.6-27.71,0-49.62-22.25-49.6-50.31,0-27.71,22.25-49.63,50.31-49.6C-76.43,246.49-54.52,268.72-54.54,296.78Zm-2-.34c-.75-27.18-21.31-47.79-47.92-47.8s-47.78,20.6-47.77,47.77c0,27,20.73,47.76,47.74,47.77S-57.38,323.45-56.56,296.44Z" transform="translate(164.42 -236.49)"/><path class="cls-3" d="M-112.21,298.84l3.31-3c-3.47-1.57-5.25-4.35-6.13-7.94-.61-2.5-1.21-4.88-3.56-6.81s-.83-5.38,2.46-5.48c7.11-.23,14.24-.19,21.35,0,3.07.07,4.89,3.74,2.67,5.5-2.59,2.05-2.82,4.65-3.58,7.26s-1.86,5-4.29,6.43c-1.32.79-1.54,1.55-.4,2.62l-1.1.94c-4.37-.72-1.26-3.9-2.68-6.39,4.7,2.58,5.39-.63,6.34-3.08,1.06-2.73.85-6,3.07-8.21.68-.68,1.86-1,1.42-2.19s-1.64-.92-2.58-.92c-6.31,0-12.62,0-18.93,0-1.07,0-2.63-.35-2.56,1.45s1.59,1.37,2.67,1.38c4,0,8,0,11.93,0v1.32c-3.63,1.41-7.68-.17-11.77,1.11,1.54,3.58.76,8.82,4.69,10,4.73,1.42,2.85,3.92,3.08,6.77-1.84-.73-3.22-1.08-4.45.09Z" transform="translate(164.42 -236.49)"/><path class="cls-4" d="M-101.48,298.3l1.1-.94c3.3,1.35,3.94,4.46,4.89,7.37.68,2.09.59,4.57,2.9,5.85l-1.11.93c-6.87,0-13.74.06-20.6,0-2,0-3.72.12-3.17,2.86l-1,1c-1.4-.91-1.53-2.91-.79-3.42,4.12-2.83,3.54-7.9,5.88-11.51l.92,1a26.29,26.29,0,0,1-1.08,4.28c-1.51,3.43-.68,4.74,3.18,4.46s7.59-.09,11.38-.06c1.78,0,3-.47,2.38-2.55C-97.64,304.2-97.83,300.33-101.48,298.3Z" transform="translate(164.42 -236.49)"/><path class="cls-3" d="M-118.47,315.4l1-1c7.26,0,14.52.1,21.78.12,2.14,0,4-.26,2-3l1.11-.93c2,4.55,1.43,5.8-3,5.86-6.61.1-13.21,0-19.82,0C-116.52,316.46-117.76,316.66-118.47,315.4Z" transform="translate(164.42 -236.49)"/><path class="cls-3" d="M-112.46,301.47l-.92-1,1.17-1.63,1,.82Z" transform="translate(164.42 -236.49)"/><path class="cls-5" d="M-95.69,314.52" transform="translate(164.42 -236.49)"/><path class="cls-5" d="M-114.3,311.54" transform="translate(164.42 -236.49)"/><path class="cls-5" d="M-117.47,314.4" transform="translate(164.42 -236.49)"/><path class="cls-3" d="M-98.79,280.3l1,.86c-.32.31-.6.83-1,.89-.66.12-1.39-.14-1.26-1C-99.95,280.77-99.27,280.58-98.79,280.3Z" transform="translate(164.42 -236.49)"/></svg>