<svg id="Слой_1" data-name="Слой 1" xmlns="http://www.w3.org/2000/svg" viewBox="0 0 120 120"><defs><style>.cls-1{fill:#fefefe;}.cls-2{fill:#feece0;}.cls-3{fill:#feebdd;}.cls-4{fill:#fee6d5;}.cls-5{fill:#fee5d4;}.cls-6{fill:#fee7d7;}.cls-7{fill:#feecdf;}.cls-8{fill:#feeadb;}.cls-9{fill:#fee9d9;}.cls-10{fill:#fee3d0;}.cls-11{fill:#fee3cf;}.cls-12{fill:#feeadc;}.cls-13{fill:#fed5b4;}.cls-14{fill:#fc9142;}.cls-15{fill:#fc9a51;}.cls-16{fill:#fc9548;}.cls-17{fill:#fc964c;}.cls-18{fill:#fc8935;}.cls-19{fill:#fc842c;}.cls-20{fill:#fc8e3c;}.cls-21{fill:#fc8d3a;}.cls-22{fill:#fc964a;}.cls-23{fill:#fc832b;}.cls-24{fill:#fc974c;}.cls-25{fill:#fc8229;}.cls-26{fill:#fc8c39;}.cls-27{fill:#fc8329;}.cls-28{fill:#fc8e3e;}.cls-29{fill:#fc9549;}.cls-30{fill:#fc8730;}.cls-31{fill:#fc9447;}.cls-32{fill:#fc9141;}.cls-33{fill:#fc9040;}</style></defs><title>3</title><path class="cls-1" d="M751.41,460a29.4,29.4,0,0,0,8,2.95c2.21,1.11,5,.28,7,2" transform="translate(-715.41 -345)"/><path class="cls-1" d="M830.45,429c2.08-3.75,3-7.88,3.95-12,.1-1.08-.29-2.33,1-3" transform="translate(-715.41 -345)"/><path class="cls-2" d="M720.37,429c-2.89-4.59-2.86-10.15-5-15v-4h1c1.46,4.2,1.44,8.71,2.87,13,.78,2.29,2.57,4.36,2.14,7h0Z" transform="translate(-715.41 -345)"/><path class="cls-2" d="M784.41,345c4.86,2.09,10.41,2.07,15,5l1,1h0c-2.79.45-5-1.42-7.39-2.19-3.83-1.22-7.92-1.17-11.61-2.81v-1Z" transform="translate(-715.41 -345)"/><path class="cls-2" d="M799.41,460c-4.59,2.89-10.14,2.87-15,5h-3v-1l19-5h0Z" transform="translate(-715.41 -345)"/><path class="cls-3" d="M766.41,465c-2-1.73-4.79-.9-7-2v-1c3.58,1.15,7.51.41,11,2v1Z" transform="translate(-715.41 -345)"/><path class="cls-3" d="M759.41,347c2.21-1.11,5-.28,7-2h4v1c-3.49,1.62-7.42.87-11,2Z" transform="translate(-715.41 -345)"/><path class="cls-4" d="M770.41,465v-1h11v1Z" transform="translate(-715.41 -345)"/><path class="cls-5" d="M770.41,346v-1h11v1Z" transform="translate(-715.41 -345)"/><path class="cls-6" d="M835.41,414c-1.3.67-.91,1.92-1,3h-1c-.55-2.78,1-5.29,1-8h1Z" transform="translate(-715.41 -345)"/><path class="cls-6" d="M834.4,393c.1,1.08-.29,2.33,1,3v5h-1c0-2.71-1.57-5.22-1-8Z" transform="translate(-715.41 -345)"/><path class="cls-6" d="M715.41,396c1.31-.67.91-1.92,1-3h1c.55,2.78-1,5.29-1,8h-1Z" transform="translate(-715.41 -345)"/><path class="cls-4" d="M715.41,401h1v9h-1Z" transform="translate(-715.41 -345)"/><path class="cls-5" d="M834.43,401h1v8h-1Z" transform="translate(-715.41 -345)"/><path class="cls-7" d="M722.41,378a23.35,23.35,0,0,1,9-13l0,0a107.22,107.22,0,0,1-9,13Z" transform="translate(-715.41 -345)"/><path class="cls-7" d="M735.41,361a19.78,19.78,0,0,1,11-8v0c-3.44,3-6.83,6-11,8Z" transform="translate(-715.41 -345)"/><path class="cls-2" d="M717.42,393h-1c.93-4.12,1.87-8.25,3.94-12l1-1h0A88,88,0,0,1,717.42,393Z" transform="translate(-715.41 -345)"/><path class="cls-7" d="M759.41,347v1c-3,1-5.71,2.84-9,3h0l1-1A29.4,29.4,0,0,1,759.41,347Z" transform="translate(-715.41 -345)"/><path class="cls-8" d="M746.41,353c.38-.9,1.17-1,2-1h0c-.38.9-1.16,1-2,1Z" transform="translate(-715.41 -345)"/><path class="cls-9" d="M748.41,352c.38-.91,1.17-1,2-1h0c-.39.9-1.17,1-2,1Z" transform="translate(-715.41 -345)"/><path class="cls-9" d="M721.41,380c0-.83.09-1.63,1-2h0c0,.83-.11,1.62-1,2Z" transform="translate(-715.41 -345)"/><path class="cls-10" d="M731.4,365l1-1h0l-1,1Z" transform="translate(-715.41 -345)"/><path class="cls-11" d="M732.41,364a1.34,1.34,0,0,1,1-1h0a1.33,1.33,0,0,1-1,1Z" transform="translate(-715.41 -345)"/><path class="cls-11" d="M733.41,363a1.34,1.34,0,0,1,1-1h0a1.33,1.33,0,0,1-1,1Z" transform="translate(-715.41 -345)"/><path class="cls-10" d="M734.41,362l1-1,0,0-1,1Z" transform="translate(-715.41 -345)"/><path class="cls-7" d="M819.43,365a23.4,23.4,0,0,1,9,13h0a105,105,0,0,1-9-13Z" transform="translate(-715.41 -345)"/><path class="cls-2" d="M834.4,393h-1a88,88,0,0,1-4-13h0l1,1C832.53,384.75,833.47,388.88,834.4,393Z" transform="translate(-715.41 -345)"/><path class="cls-7" d="M804.42,353a19.85,19.85,0,0,1,11,8l0,0c-4.17-2-7.55-5-11-8Z" transform="translate(-715.41 -345)"/><path class="cls-9" d="M800.42,351c.82,0,1.62.1,2,1h0c-.83,0-1.62-.1-2-1Z" transform="translate(-715.41 -345)"/><path class="cls-9" d="M828.42,378c.9.38,1,1.18,1,2h0c-.9-.38-1-1.17-1-2Z" transform="translate(-715.41 -345)"/><path class="cls-8" d="M802.41,352c.84,0,1.62.09,2,1v0c-.83,0-1.62-.11-2-1Z" transform="translate(-715.41 -345)"/><path class="cls-11" d="M817.41,363a1.33,1.33,0,0,1,1,1h0a1.34,1.34,0,0,1-1-1Z" transform="translate(-715.41 -345)"/><path class="cls-11" d="M816.41,362a1.33,1.33,0,0,1,1,1h0a1.34,1.34,0,0,1-1-1Z" transform="translate(-715.41 -345)"/><path class="cls-10" d="M815.42,361l1,1h0l-1-1Z" transform="translate(-715.41 -345)"/><path class="cls-10" d="M818.41,364l1,1,0,0-1-1Z" transform="translate(-715.41 -345)"/><path class="cls-7" d="M828.42,432a23.4,23.4,0,0,1-9,13l0,0a105,105,0,0,1,9-13Z" transform="translate(-715.41 -345)"/><path class="cls-7" d="M815.42,449a19.85,19.85,0,0,1-11,8v0c3.44-3,6.82-6,11-8Z" transform="translate(-715.41 -345)"/><path class="cls-2" d="M833.41,417h1c-.93,4.12-1.87,8.25-3.95,12l-1,1h0A88,88,0,0,1,833.41,417Z" transform="translate(-715.41 -345)"/><path class="cls-9" d="M829.42,430c0,.83-.1,1.63-1,2h0c0-.83.1-1.62,1-2Z" transform="translate(-715.41 -345)"/><path class="cls-12" d="M804.42,457c-.39.9-1.18,1-2,1h0c.38-.9,1.17-1,2-1Z" transform="translate(-715.41 -345)"/><path class="cls-9" d="M802.41,458c-.37.91-1.17,1-2,1h0c.38-.9,1.17-1,2-1Z" transform="translate(-715.41 -345)"/><path class="cls-10" d="M819.43,445l-1,1h0l1-1Z" transform="translate(-715.41 -345)"/><path class="cls-11" d="M818.41,446a1.33,1.33,0,0,1-1,1h0a1.34,1.34,0,0,1,1-1Z" transform="translate(-715.41 -345)"/><path class="cls-11" d="M817.41,447a1.33,1.33,0,0,1-1,1h0a1.34,1.34,0,0,1,1-1Z" transform="translate(-715.41 -345)"/><path class="cls-10" d="M816.41,448l-1,1,0,0,1-1Z" transform="translate(-715.41 -345)"/><path class="cls-7" d="M731.4,445a23.35,23.35,0,0,1-9-13h0a107.22,107.22,0,0,1,9,13Z" transform="translate(-715.41 -345)"/><path class="cls-7" d="M746.41,457a19.78,19.78,0,0,1-11-8l0,0c4.16,2,7.55,5,11,8Z" transform="translate(-715.41 -345)"/><path class="cls-7" d="M759.41,462v1a29.4,29.4,0,0,1-8-2.95l-1-1h0C753.7,459.15,756.42,461,759.41,462Z" transform="translate(-715.41 -345)"/><path class="cls-9" d="M722.41,432c-.91-.38-1-1.18-1-2h0c.89.38,1,1.17,1,2Z" transform="translate(-715.41 -345)"/><path class="cls-8" d="M748.41,458c-.83,0-1.62-.09-2-1v0c.83,0,1.61.11,2,1Z" transform="translate(-715.41 -345)"/><path class="cls-9" d="M750.41,459c-.83,0-1.62-.1-2-1h0c.84,0,1.62.1,2,1Z" transform="translate(-715.41 -345)"/><path class="cls-10" d="M732.41,446l-1-1,0,0,1,1Z" transform="translate(-715.41 -345)"/><path class="cls-11" d="M733.41,447a1.34,1.34,0,0,1-1-1h0a1.33,1.33,0,0,1,1,1Z" transform="translate(-715.41 -345)"/><path class="cls-11" d="M734.41,448a1.34,1.34,0,0,1-1-1h0a1.33,1.33,0,0,1,1,1Z" transform="translate(-715.41 -345)"/><path class="cls-10" d="M735.41,449l-1-1h0l1,1Z" transform="translate(-715.41 -345)"/><path class="cls-13" d="M775.35,355a50,50,0,1,1-50,49.57A50.1,50.1,0,0,1,775.35,355Zm48.06,50c0-26.27-21.65-47.86-47.77-48a48,48,0,0,0-.46,96C801.65,453.13,823.49,431.27,823.41,405Z" transform="translate(-715.41 -345)"/><path class="cls-14" d="M757.13,423.14c-2.43-.8-2.4-2.86-2.44-4.84-.07-2.78-.08-5.56-.11-8.34l.87-1a2,2,0,0,0,.79.19,22.2,22.2,0,0,0,13.91-.16c.31-.71.25-1.68,1.27-1.93l.83.91a4.07,4.07,0,0,0,.13,4.1l-.93.86c-4.6-3.16-9.65-1.42-14.54-1.2-.51,0-.41,1.45-.3,2.26V419c-.14.75-.31,1.5.44,2.06l1.36,1.05Z" transform="translate(-715.41 -345)"/><path class="cls-15" d="M794.5,392.85c2,4.91,1.09,10.08.63,15-.31,3.39-.72,6.79-.81,10.21,0,1.13.21,2.33-.73,3.26l-.3-9.36a1.8,1.8,0,0,0-1.06-2.09c1.43-1.26,1.16-2.95,1.18-4.58q.06-5.65.14-11.31Z" transform="translate(-715.41 -345)"/><path class="cls-16" d="M757.13,423.14l1.28-1,6.06,0c.85,1.09,2.07.81,3.19.81,7.92,0,15.84-.05,23.76-.08l.08.33c-1.1,1.09-2.5.66-3.77.66q-13.17.06-26.34,0C759.94,423.89,758.38,424.32,757.13,423.14Z" transform="translate(-715.41 -345)"/><path class="cls-17" d="M783.47,390.9c3.33.64,6.89-.91,10.09,1l-1.12.92c-9,.11-18,.45-27-.09,0-.25,0-.5,0-.75,4.66,0,9.31,0,14,0C780.81,392,782.45,392.52,783.47,390.9Z" transform="translate(-715.41 -345)"/><path class="cls-18" d="M755.45,408.91l-.87,1c-1.33-6.07-2.66-12.14.74-18l1.07.06h0c0,.28,0,.57,0,.85-1.35.93-.95,2.37-1,3.63C755.4,400.64,755.44,404.78,755.45,408.91Z" transform="translate(-715.41 -345)"/><path class="cls-19" d="M766.33,387.86c5.37-2.34,10.71-2.63,16,.17l-.17.09a2.94,2.94,0,0,0-1,0c-4.68.37-9.46-1.07-14,.87a5.79,5.79,0,0,0-.72,0h0Z" transform="translate(-715.41 -345)"/><path class="cls-20" d="M783.47,390.9c-1,1.62-2.66,1.06-4.08,1.08-4.66,0-9.31,0-14,0,0-.39-.06-.77-.08-1.16.07-.6.14-1.21.2-1.82l.88,0h0c0,.85.06,1.65,1,2,3.82,0,7.65,0,11.47,0,1.5,0,2.66-.2,2.63-2a.77.77,0,0,0,.62-.85l.17-.09C783.58,388.65,783.3,389.86,783.47,390.9Z" transform="translate(-715.41 -345)"/><path class="cls-21" d="M793.29,412l.3,9.36c-.14.71-.35,1.37-1.21,1.49l-.12-1.2.27-9.61A6.34,6.34,0,0,0,793.29,412Z" transform="translate(-715.41 -345)"/><path class="cls-22" d="M765.34,390.83c0,.39,0,.77.08,1.16s0,.5,0,.75l-1.06,0c-2.53-1.56-5.31-.42-8-.75h0c0-.25,0-.51,0-.77Z" transform="translate(-715.41 -345)"/><path class="cls-23" d="M792.44,392.83l1.12-.92a1.09,1.09,0,0,1,.94.94l-1,1.12Z" transform="translate(-715.41 -345)"/><path class="cls-24" d="M756.42,391.24c0,.26,0,.52,0,.77l-1.07-.06C755.53,391.49,755.83,391.14,756.42,391.24Z" transform="translate(-715.41 -345)"/><path class="cls-25" d="M792.26,421.6l.12,1.2-.88.43-.08-.33c0-.28,0-.56,0-.85A2.14,2.14,0,0,1,792.26,421.6Z" transform="translate(-715.41 -345)"/><path class="cls-22" d="M766.42,389l-.88,0a1,1,0,0,1,.79-1.15Z" transform="translate(-715.41 -345)"/><path class="cls-26" d="M772.38,412c2.07-.32,4.4,1,6.2-1l.87,0,1.12.08c-1.08,1.42-2,3.14-4.26,2.58-1.44-1.24-3.19-.4-4.77-.71l-.09-.06Z" transform="translate(-715.41 -345)"/><path class="cls-25" d="M772.25,407.92l-.83-.91h0l.93.89Z" transform="translate(-715.41 -345)"/><path class="cls-27" d="M780.57,411.07l-1.12-.08,1.17-1.12h11.61a1.8,1.8,0,0,1,1.06,2.09,6.34,6.34,0,0,1-.76,0C788.66,410.21,784.54,411.64,780.57,411.07Z" transform="translate(-715.41 -345)"/><path class="cls-28" d="M764.47,422.17l26.95-.12c0,.29,0,.57,0,.85-7.92,0-15.84.07-23.76.08C766.54,423,765.32,423.26,764.47,422.17Z" transform="translate(-715.41 -345)"/><path class="cls-24" d="M764.35,392.77l-8,.1c0-.28,0-.57,0-.85C759,392.35,761.82,391.21,764.35,392.77Z" transform="translate(-715.41 -345)"/><path class="cls-22" d="M767.15,389l.3,2c-1-.35-1-1.15-1-2A5.79,5.79,0,0,1,767.15,389Z" transform="translate(-715.41 -345)"/><path class="cls-25" d="M781.55,389a1.83,1.83,0,0,1-.36-.89,2.94,2.94,0,0,1,1,0A.77.77,0,0,1,781.55,389Z" transform="translate(-715.41 -345)"/><path class="cls-14" d="M757.52,406.94c-1.8-2.16-.95-4.49-.55-7.48,2.21,2.29,1.15,4.56,1.38,6.56-.42.12-.72.34-.65.84Z" transform="translate(-715.41 -345)"/><path class="cls-29" d="M772.34,407.89l-.93-.89c2.43-1.74,4.9-1.37,7.39-.17l-1.33.91Z" transform="translate(-715.41 -345)"/><path class="cls-30" d="M766.4,408l-8,.1-.87-1.14.18-.08,1.07,0C761.28,407.45,764.14,405.61,766.4,408Z" transform="translate(-715.41 -345)"/><path class="cls-31" d="M777.47,407.74l1.33-.91c1.18.67,1.41,1.91,1.82,3L779.45,411l-.87,0C778.29,409.89,778.77,408.51,777.47,407.74Z" transform="translate(-715.41 -345)"/><path class="cls-25" d="M758.77,406.88l-1.07,0c-.07-.5.23-.72.65-.84A1.78,1.78,0,0,1,758.77,406.88Z" transform="translate(-715.41 -345)"/><path class="cls-32" d="M758.54,420.94l-1.33-2,.39.08,1.09-.12a3.22,3.22,0,0,0,.76-.09c1.42,1,3.51-.57,4.74,1.2-1.57.28-3.34-.64-4.71.79A1.89,1.89,0,0,1,758.54,420.94Z" transform="translate(-715.41 -345)"/><path class="cls-25" d="M759.48,420.82c1.37-1.43,3.14-.51,4.71-.79C762.87,421.81,761.08,420.73,759.48,420.82Z" transform="translate(-715.41 -345)"/><path class="cls-33" d="M771.54,412.94c1.58.31,3.33-.53,4.77.71C774.66,413.81,772.93,414.52,771.54,412.94Z" transform="translate(-715.41 -345)"/><path class="cls-23" d="M758.69,418.92l-1.09.12c-.16-1.25-.5-2.52.31-3.72C759.07,416.35,758.32,417.75,758.69,418.92Z" transform="translate(-715.41 -345)"/></svg>