<svg id="Слой_1" data-name="Слой 1" xmlns="http://www.w3.org/2000/svg" viewBox="0 0 120 120"><defs><style>.cls-1{fill:#fee7d7;}.cls-2{fill:#fee5d4;}.cls-3{fill:#fee6d5;}.cls-4{fill:#fee5d3;}.cls-5{fill:#feecdf;}.cls-6{fill:#fee8d8;}.cls-7{fill:#fee9d9;}.cls-8{fill:#feeadc;}.cls-9{fill:#fee3d0;}.cls-10{fill:#feeadb;}.cls-11{fill:#fed5b4;}.cls-12{fill:#fc8832;}.cls-13{fill:#fc8b37;}</style></defs><title>5</title><path class="cls-1" d="M673.38,468c-.12-1.08.28-2.33-1-3v-5h1c0,2.71,1.58,5.22,1,8Z" transform="translate(-672.35 -396)"/><path class="cls-1" d="M672.35,447c1.31-.67.91-1.92,1-3h1c.57,2.78-1,5.29-1,8h-1Z" transform="translate(-672.35 -396)"/><path class="cls-1" d="M791.33,444c.11,1.08-.28,2.33,1,3v5h-1c0-2.71-1.58-5.22-1-8Z" transform="translate(-672.35 -396)"/><path class="cls-1" d="M792.35,460v5c-1.3.67-.91,1.92-1,3h-1c-.57-2.78,1-5.29,1-8Z" transform="translate(-672.35 -396)"/><path class="cls-1" d="M723.35,516c-.67-1.31-1.92-.91-3-1v-1c2.78-.58,5.29,1,8,1v1Z" transform="translate(-672.35 -396)"/><path class="cls-1" d="M741.35,516h-5v-1c2.71,0,5.22-1.58,8-1v1C743.28,515.09,742,514.69,741.35,516Z" transform="translate(-672.35 -396)"/><path class="cls-1" d="M740.35,396c1,1.59,2.65.78,4,1v1c-2.78.58-5.29-1-8-1v-1Z" transform="translate(-672.35 -396)"/><path class="cls-1" d="M720.35,397c1.36-.25,3,.56,4-1h4c0,.33,0,.66,0,1-2.71,0-5.22,1.59-8,1Z" transform="translate(-672.35 -396)"/><path class="cls-2" d="M792.35,460h-1v-8h1Z" transform="translate(-672.35 -396)"/><path class="cls-3" d="M672.35,452h1v8h-1Z" transform="translate(-672.35 -396)"/><path class="cls-4" d="M728.36,397c0-.32,0-.65,0-1h8v1Z" transform="translate(-672.35 -396)"/><path class="cls-3" d="M736.35,515v1h-8v-1Z" transform="translate(-672.35 -396)"/><path class="cls-5" d="M785.36,483a23.4,23.4,0,0,1-9,13l0,0a105,105,0,0,1,9-13Z" transform="translate(-672.35 -396)"/><path class="cls-5" d="M772.36,500a19.85,19.85,0,0,1-11,8v0c3.44-3,6.82-6,11-8Z" transform="translate(-672.35 -396)"/><path class="cls-5" d="M790.34,472c-.83,3.22-1.58,6.48-4,9h0c.16-3.28,2-6,3-9h1Z" transform="translate(-672.35 -396)"/><path class="cls-5" d="M757.36,510c-2.53,2.4-5.79,3.15-9,4v-1c3-1,5.72-2.84,9-3Z" transform="translate(-672.35 -396)"/><path class="cls-6" d="M790.34,472h-1a6.34,6.34,0,0,1,1-4h1v2C790.46,470.39,790.37,471.18,790.34,472Z" transform="translate(-672.35 -396)"/><path class="cls-6" d="M748.35,513v1c-.81,0-1.61.11-2,1h-2v-1A6.36,6.36,0,0,1,748.35,513Z" transform="translate(-672.35 -396)"/><path class="cls-7" d="M786.36,481c0,.83-.1,1.62-1,2h0c0-.83.1-1.62,1-2Z" transform="translate(-672.35 -396)"/><path class="cls-8" d="M761.36,508c-.39.9-1.17,1-2,1h0c.38-.9,1.17-1,2-1Z" transform="translate(-672.35 -396)"/><path class="cls-7" d="M759.36,509c-.38.91-1.17,1-2,1h0c.38-.9,1.17-1,2-1Z" transform="translate(-672.35 -396)"/><path class="cls-9" d="M776.37,496l-1,1h0l1-1Z" transform="translate(-672.35 -396)"/><path class="cls-9" d="M775.35,497a1.33,1.33,0,0,1-1,1h0a1.36,1.36,0,0,1,1-1Z" transform="translate(-672.35 -396)"/><path class="cls-9" d="M774.35,498a1.33,1.33,0,0,1-1,1h0a1.36,1.36,0,0,1,1-1Z" transform="translate(-672.35 -396)"/><path class="cls-9" d="M773.35,499l-1,1,0,0,1-1Z" transform="translate(-672.35 -396)"/><path class="cls-5" d="M679.35,429a23.35,23.35,0,0,1,9-13l0,0a106.55,106.55,0,0,1-9,13Z" transform="translate(-672.35 -396)"/><path class="cls-5" d="M692.35,412a19.82,19.82,0,0,1,11-8v0c-3.44,3-6.83,6-11,8Z" transform="translate(-672.35 -396)"/><path class="cls-5" d="M708.35,401a29.8,29.8,0,0,1,8-2.95c0,.33,0,.66,0,1-3,1-5.71,2.84-9,3h0Z" transform="translate(-672.35 -396)"/><path class="cls-5" d="M674.37,440a29.25,29.25,0,0,1,2.94-8l1-1h0c-.17,3.28-2,6-3,9Z" transform="translate(-672.35 -396)"/><path class="cls-10" d="M703.35,404c.38-.9,1.17-1,2-1h0c-.38.9-1.16,1-2,1Z" transform="translate(-672.35 -396)"/><path class="cls-7" d="M705.35,403c.38-.91,1.17-1,2-1h0c-.39.9-1.17,1-2,1Z" transform="translate(-672.35 -396)"/><path class="cls-7" d="M678.35,431c0-.83.09-1.62,1-2h0c0,.83-.1,1.62-1,2Z" transform="translate(-672.35 -396)"/><path class="cls-9" d="M688.34,416l1-1h0l-1,1Z" transform="translate(-672.35 -396)"/><path class="cls-9" d="M689.35,415a1.36,1.36,0,0,1,1-1h0a1.33,1.33,0,0,1-1,1Z" transform="translate(-672.35 -396)"/><path class="cls-9" d="M690.35,414a1.36,1.36,0,0,1,1-1h0a1.33,1.33,0,0,1-1,1Z" transform="translate(-672.35 -396)"/><path class="cls-9" d="M691.35,413l1-1,0,0-1,1Z" transform="translate(-672.35 -396)"/><path class="cls-5" d="M776.37,416a23.4,23.4,0,0,1,9,13h0a104.26,104.26,0,0,1-9-13Z" transform="translate(-672.35 -396)"/><path class="cls-5" d="M761.36,404a19.85,19.85,0,0,1,11,8l0,0c-4.17-2-7.55-5-11-8Z" transform="translate(-672.35 -396)"/><path class="cls-5" d="M748.35,398a29.28,29.28,0,0,1,8,2.95l1,1h0c-3.28-.16-6-2-9-3Z" transform="translate(-672.35 -396)"/><path class="cls-5" d="M787.39,432a29,29,0,0,1,3,8h-1c-1-3-2.84-5.72-3-9h0Z" transform="translate(-672.35 -396)"/><path class="cls-7" d="M757.36,402c.83,0,1.62.1,2,1h0c-.83,0-1.62-.1-2-1Z" transform="translate(-672.35 -396)"/><path class="cls-7" d="M785.36,429c.9.39,1,1.18,1,2h0c-.9-.38-1-1.17-1-2Z" transform="translate(-672.35 -396)"/><path class="cls-10" d="M759.36,403c.83,0,1.61.09,2,1v0c-.83,0-1.62-.11-2-1Z" transform="translate(-672.35 -396)"/><path class="cls-9" d="M774.35,414a1.33,1.33,0,0,1,1,1h0a1.36,1.36,0,0,1-1-1Z" transform="translate(-672.35 -396)"/><path class="cls-9" d="M773.35,413a1.33,1.33,0,0,1,1,1h0a1.36,1.36,0,0,1-1-1Z" transform="translate(-672.35 -396)"/><path class="cls-9" d="M775.35,415l1,1,0,0-1-1Z" transform="translate(-672.35 -396)"/><path class="cls-9" d="M772.36,412l1,1h0l-1-1Z" transform="translate(-672.35 -396)"/><path class="cls-5" d="M688.34,496a23.35,23.35,0,0,1-9-13h0a105.34,105.34,0,0,1,9,13Z" transform="translate(-672.35 -396)"/><path class="cls-5" d="M703.35,508a19.82,19.82,0,0,1-11-8l0,0c4.16,2,7.55,5,11,8Z" transform="translate(-672.35 -396)"/><path class="cls-5" d="M677.31,480c-1-2.67-3.17-4.89-2.94-8h1c1,3,2.84,5.72,3,9h0Z" transform="translate(-672.35 -396)"/><path class="cls-5" d="M716.36,514a29.46,29.46,0,0,1-8-2.95l-1-1h0c3.28.16,6,2,9,3C716.35,513.33,716.35,513.66,716.36,514Z" transform="translate(-672.35 -396)"/><path class="cls-7" d="M679.35,483c-.91-.39-1-1.18-1-2h0c.9.38,1,1.17,1,2Z" transform="translate(-672.35 -396)"/><path class="cls-10" d="M705.35,509c-.83,0-1.62-.09-2-1v0c.83,0,1.61.11,2,1Z" transform="translate(-672.35 -396)"/><path class="cls-7" d="M707.35,510c-.83,0-1.62-.1-2-1h0c.84,0,1.62.1,2,1Z" transform="translate(-672.35 -396)"/><path class="cls-9" d="M689.35,497l-1-1,0,0,1,1Z" transform="translate(-672.35 -396)"/><path class="cls-9" d="M691.35,499a1.36,1.36,0,0,1-1-1h0a1.33,1.33,0,0,1,1,1Z" transform="translate(-672.35 -396)"/><path class="cls-9" d="M692.35,500l-1-1h0l1,1Z" transform="translate(-672.35 -396)"/><path class="cls-9" d="M690.35,498a1.36,1.36,0,0,1-1-1h0a1.33,1.33,0,0,1,1,1Z" transform="translate(-672.35 -396)"/><path class="cls-6" d="M716.35,399c0-.33,0-.66,0-1l4-1v1A6.34,6.34,0,0,1,716.35,399Z" transform="translate(-672.35 -396)"/><path class="cls-6" d="M748.35,398v1a6.36,6.36,0,0,1-4-1v-1Z" transform="translate(-672.35 -396)"/><path class="cls-6" d="M716.36,514c0-.33,0-.66,0-1a6.34,6.34,0,0,1,4,1v1Z" transform="translate(-672.35 -396)"/><path class="cls-6" d="M789.35,440h1l1,4h-1A6.34,6.34,0,0,1,789.35,440Z" transform="translate(-672.35 -396)"/><path class="cls-6" d="M674.37,440h1a6.4,6.4,0,0,1-1,4h-1Z" transform="translate(-672.35 -396)"/><path class="cls-6" d="M675.35,472h-1l-1-4h1A6.34,6.34,0,0,1,675.35,472Z" transform="translate(-672.35 -396)"/><path class="cls-11" d="M782.36,456.42A50,50,0,1,1,732.77,406,50.09,50.09,0,0,1,782.36,456.42Zm-50,47.58c26.28,0,47.87-21.65,48-47.76a48,48,0,0,0-96-.48C684.21,482.24,706.09,504.08,732.36,504Z" transform="translate(-672.35 -396)"/><path class="cls-12" d="M716,446.31c5.64-.62,10.58-3.23,15.4-6.52,4.8,3,9.48,6.2,15.24,6.39,1.4,17.92,1,23.18-14.94,31.68C714.74,469.47,714.68,463.31,716,446.31Zm28.42,2.1A35,35,0,0,1,734,444c-1.32-.89-2.59-1.58-4.08-.57-3.55,2.41-7.65,3.65-11.76,5.18,0,3.37,0,6.51,0,9.65.11,7.13,5.4,14.38,12.08,16.57a4,4,0,0,0,1.94.14c4.84-.94,11.91-8.78,12.2-13.84C744.65,457,744.46,452.86,744.46,448.41Z" transform="translate(-672.35 -396)"/><path class="cls-13" d="M724.17,457.89c2.94,0,3.49,2.34,5.5,3,2.93-1.7,4.7-5.14,8-7-.12,3.07-1,4.17-7.93,10A11.87,11.87,0,0,1,724.17,457.89Z" transform="translate(-672.35 -396)"/></svg>