<svg id="Слой_1" data-name="Слой 1" xmlns="http://www.w3.org/2000/svg" viewBox="0 0 119.85 119.85"><defs><style>.cls-1{fill:#feecdf;}.cls-2{fill:#feecde;}.cls-3{fill:#fed5b4;}.cls-4{fill:#feebde;}.cls-5{fill:#fee9da;}.cls-6{fill:#fc9d57;}.cls-7{fill:#fc9549;}.cls-8{fill:#fc9447;}.cls-9{fill:#fc9142;}.cls-10{fill:#fc9a52;}.cls-11{fill:#fc9c54;}.cls-12{fill:#fca05c;}.cls-13{fill:#fda05c;}.cls-14{fill:#fc8229;}.cls-15{fill:#fc8832;}.cls-16{fill:#fc8329;}.cls-17{fill:#fc974d;}.cls-18{fill:#fc832a;}.cls-19{fill:#feeadb;}</style></defs><title>6</title><path class="cls-1" d="M762.63,324.47c3.72,2.14,8.46,1.23,12,4,0,.32,0,.65,0,1a59.45,59.45,0,0,0-42,0c0-.33,0-.65,0-1,3.52-2.76,8.27-1.85,12-4Z" transform="translate(-693.71 -324.47)"/><path class="cls-2" d="M693.71,375.4c2.15-3.72,1.24-8.46,4-12h1a59.45,59.45,0,0,0,0,42h-1c-2.76-3.53-1.86-8.26-4-12Z" transform="translate(-693.71 -324.47)"/><path class="cls-2" d="M809.57,363.42c2.76,3.52,1.85,8.26,4,12v18c-2.14,3.72-1.23,8.47-4,12h-1a59.45,59.45,0,0,0,0-42h1Z" transform="translate(-693.71 -324.47)"/><path class="cls-1" d="M774.61,440.33c-3.52,2.75-8.26,1.85-12,4h-18c-3.72-2.14-8.46-1.24-12-4q0-.49,0-1a59.45,59.45,0,0,0,42,0C774.61,439.67,774.61,440,774.61,440.33Z" transform="translate(-693.71 -324.47)"/><path class="cls-3" d="M753.65,434.33a49.94,49.94,0,1,1,.23-99.88c27.49,0,49.73,22.53,49.7,50.31C803.56,412,781,434.33,753.65,434.33Zm47.92-49.5c0-26.52-21.33-48.33-47.37-48.37-26.58,0-48.45,21.26-48.5,47.24,0,26.85,21.26,48.6,47.63,48.63S801.55,410.9,801.57,384.83Z" transform="translate(-693.71 -324.47)"/><path class="cls-1" d="M718.68,336.45c1.05-2.06,2.77-3.19,6.21-4-2.41,2.23-3.94,3.62-6.2,4Z" transform="translate(-693.71 -324.47)"/><path class="cls-1" d="M788.59,336.45c-2.25-.32-3.75-1.87-6.52-4,3.63.77,5.4,1.88,6.53,4Z" transform="translate(-693.71 -324.47)"/><path class="cls-4" d="M705.7,349.44,703,354.89a4.77,4.77,0,0,1,2.73-5.46Z" transform="translate(-693.71 -324.47)"/><path class="cls-2" d="M801.58,349.43c2.13,1,3.06,2.87,3.5,5.1a8.1,8.1,0,0,1-3.5-5.09Z" transform="translate(-693.71 -324.47)"/><path class="cls-2" d="M705.7,419.35c-2.06-1.05-3.19-2.77-4-6.21,2.22,2.41,3.62,3.94,4,6.2Z" transform="translate(-693.71 -324.47)"/><path class="cls-4" d="M801.58,419.34c.32-2.25,1.87-3.75,4-6.51-.77,3.62-1.88,5.39-4,6.52Z" transform="translate(-693.71 -324.47)"/><path class="cls-2" d="M718.68,432.33c2.26.32,3.76,1.87,6.53,4-3.63-.77-5.4-1.88-6.53-4Z" transform="translate(-693.71 -324.47)"/><path class="cls-4" d="M788.6,432.33c-1.05,2.06-2.77,3.2-6.21,4,2.41-2.22,3.94-3.62,6.2-4Z" transform="translate(-693.71 -324.47)"/><path class="cls-1" d="M718.69,336.45a6.5,6.5,0,0,1-4.08,3.42c.83-1.68,1.73-3.31,4.07-3.42Z" transform="translate(-693.71 -324.47)"/><path class="cls-1" d="M788.6,336.45c2.17.21,3.42,1.55,4.62,3.93a8.09,8.09,0,0,1-4.63-3.93Z" transform="translate(-693.71 -324.47)"/><path class="cls-1" d="M705.7,349.43c.1-2.26,1.77-3.24,4.14-5.29a8.59,8.59,0,0,1-4.14,5.3Z" transform="translate(-693.71 -324.47)"/><path class="cls-1" d="M801.58,349.44a6.53,6.53,0,0,1-3.42-4.08c1.68.84,3.31,1.73,3.42,4.07Z" transform="translate(-693.71 -324.47)"/><path class="cls-1" d="M718.68,432.33c-2.17-.2-3.42-1.55-4.62-3.93a8,8,0,0,1,4.62,3.93Z" transform="translate(-693.71 -324.47)"/><path class="cls-1" d="M705.7,419.34a6.53,6.53,0,0,1,3.42,4.08c-1.68-.83-3.3-1.73-3.42-4.07Z" transform="translate(-693.71 -324.47)"/><path class="cls-1" d="M801.58,419.35c-.1,2.26-1.77,3.24-4.14,5.29a8.59,8.59,0,0,1,4.14-5.3Z" transform="translate(-693.71 -324.47)"/><path class="cls-1" d="M788.59,432.33a6.53,6.53,0,0,1,4.08-3.42c-.83,1.68-1.73,3.31-4.07,3.42Z" transform="translate(-693.71 -324.47)"/><path class="cls-5" d="M732.66,328.46c0,.33,0,.65,0,1l-1.29-.48Z" transform="translate(-693.71 -324.47)"/><path class="cls-5" d="M774.62,329.44c0-.33,0-.66,0-1l1.3.5Z" transform="translate(-693.71 -324.47)"/><path class="cls-5" d="M698.69,363.41h-1c.16-.44.33-.87.5-1.3Z" transform="translate(-693.71 -324.47)"/><path class="cls-5" d="M697.71,405.37h1l-.48,1.29Z" transform="translate(-693.71 -324.47)"/><path class="cls-5" d="M809.57,363.42h-1l.48-1.29Z" transform="translate(-693.71 -324.47)"/><path class="cls-5" d="M808.59,405.37h1c-.16.43-.33.86-.5,1.29Z" transform="translate(-693.71 -324.47)"/><path class="cls-5" d="M732.66,439.34q0,.5,0,1l-1.29-.51Z" transform="translate(-693.71 -324.47)"/><path class="cls-5" d="M774.61,440.33c0-.33,0-.66,0-1l1.29.48Z" transform="translate(-693.71 -324.47)"/><path class="cls-6" d="M764.76,380.55,762.29,385c3.14,1,6.27,1.8,9.31,2.89,1.17.42,3.45.15,2.82,2.51-.45,1.66-1.95,2-3.58,2-4.3-.05-8.6.06-12.9-.05a11.85,11.85,0,0,0-6.2,1.32c0-.44-.06-.87-.1-1.3,1.82-1.8,4.09-1.95,6.48-1.91,4.55.07,9.1,0,13.65,0l.12-.78-13.38-4.16,6-5.25Z" transform="translate(-693.71 -324.47)"/><path class="cls-7" d="M738.73,386.61c2.83-.57.61-4.16,3-5a.65.65,0,0,0,.66.44l.24.3c-1.77,3-.42,6.36-.89,9.51-.64,4.29,1.16,5,4.71,3.4l1.13.92c-2.79.25-6.72,5.62-7.6-2.44-.33-3-5.18-.66-7.86-1.4-1-.26-2.63.69-2.67-1.11,0-.66,1.2-1.35,1.86-2l.41.23c3.2,1.87,6.28,2.63,8.89-1Z" transform="translate(-693.71 -324.47)"/><path class="cls-8" d="M742.58,381.07c.58-.8,1.53-1.08,1.94-.24,2.69,5.46,5.66,3.84,8.77.49l1.14,0c-1.64,2.61-3.45,5.91-6.14,6.5-2.4.54-2.54-4-4.72-5.36-.24-.16-.62-.1-.94-.14l-.24-.3C742.46,381.73,742.52,381.4,742.58,381.07Z" transform="translate(-693.71 -324.47)"/><path class="cls-9" d="M761.69,371.54c1.79-2.45,4.24-3.07,6.79-1.7,1.61.86,3.25,2.4,1.4,4.63l-1,0c.41-5.66-3-3.68-5.86-2.95l-1.22.26Z" transform="translate(-693.71 -324.47)"/><path class="cls-10" d="M738.73,386.61l1.88,1.88c-2.42-.81-4.65.55-7,.63l-1-.78C734.38,386.85,736.73,387.36,738.73,386.61Z" transform="translate(-693.71 -324.47)"/><path class="cls-8" d="M754.8,379.43l4.49-5.11,1.17.05a16,16,0,0,1-4.51,5.09Z" transform="translate(-693.71 -324.47)"/><path class="cls-11" d="M769.39,375.34c-.89,1.69-1.88,3.29-3.78,4l0,.06c-.21-2,1.19-3,2.41-4.1Z" transform="translate(-693.71 -324.47)"/><path class="cls-12" d="M751.64,392.4c0,.43.07.86.1,1.3l-2.13,1.5-1.14-.89Z" transform="translate(-693.71 -324.47)"/><path class="cls-13" d="M748.47,394.31l1.14.89-2,1-1.13-.92Z" transform="translate(-693.71 -324.47)"/><path class="cls-14" d="M760.43,373.21l1.26-1.67.06.2a2.75,2.75,0,0,0,0,.86l-.86,1Z" transform="translate(-693.71 -324.47)"/><path class="cls-15" d="M732.59,388.34l1,.78-1.9.33-.41-.23Z" transform="translate(-693.71 -324.47)"/><path class="cls-14" d="M760.46,374.37l-1.17-.05,1.14-1.11.41.38A.78.78,0,0,1,760.46,374.37Z" transform="translate(-693.71 -324.47)"/><path class="cls-16" d="M754.8,379.43l1.15,0-1.12,1.1-.39-.35A.77.77,0,0,1,754.8,379.43Z" transform="translate(-693.71 -324.47)"/><path class="cls-17" d="M765.61,379.37c-.29.39-.57.79-.85,1.18l-.23-.23,1.13-.89Z" transform="translate(-693.71 -324.47)"/><path class="cls-16" d="M754.43,381.36l-1.14,0,1.16-1.11.38.35A.77.77,0,0,1,754.43,381.36Z" transform="translate(-693.71 -324.47)"/><path class="cls-14" d="M769.39,375.34h-1.32l.76-.9,1,0Z" transform="translate(-693.71 -324.47)"/><path class="cls-18" d="M742.58,381.07c-.06.33-.12.66-.19,1a.65.65,0,0,1-.66-.44Z" transform="translate(-693.71 -324.47)"/><path class="cls-19" d="M740.61,388.49" transform="translate(-693.71 -324.47)"/><path class="cls-19" d="M731.72,389.45l1.9-.33" transform="translate(-693.71 -324.47)"/><path class="cls-14" d="M763,371.48l-1.27,1.12a2.75,2.75,0,0,1,0-.86Z" transform="translate(-693.71 -324.47)"/></svg>