<svg id="Слой_1" data-name="Слой 1" xmlns="http://www.w3.org/2000/svg" viewBox="0 0 119.87 119.87"><defs><style>.cls-1{fill:#feecdf;}.cls-2{fill:#fed5b5;}.cls-3{fill:#feece0;}.cls-4{fill:#fc8b38;}.cls-5{fill:#fc9447;}.cls-6{fill:#fc9142;}.cls-7{fill:#fca05c;}.cls-8{fill:#fdad73;}.cls-9{fill:#fda463;}.cls-10{fill:#fc9950;}.cls-11{fill:#fdbd8d;}.cls-12{fill:#fdb885;}.cls-13{fill:#fc9346;}.cls-14{fill:#fc964b;}.cls-15{fill:#fc832a;}.cls-16{fill:#fc8730;}.cls-17{fill:#fc974d;}.cls-18{fill:#fda564;}.cls-19{fill:#fc8329;}.cls-20{fill:#fdddc6;}</style></defs><title>2</title><path class="cls-1" d="M672.54,449.72c-4.16-2.08-9.21-1.63-13.11-4.79,14.75,4.89,29.44,5.15,44.18-.11-3.84,3.39-9,2.77-13.09,4.9Z" transform="translate(-621.6 -329.85)"/><path class="cls-1" d="M690.52,329.85c4.17,2.1,9.24,1.61,13.14,4.77-13.63-4.16-27.28-5.47-41.12-.82,2.78-3.08,7-1.86,10-3.95Z" transform="translate(-621.6 -329.85)"/><path class="cls-1" d="M621.6,380.79c2-3.05,1-7.11,3.81-10.06-3.58,12.7-3.92,25.35.09,38-3-2.77-1.82-7-3.9-10Z" transform="translate(-621.6 -329.85)"/><path class="cls-1" d="M741.46,398.77c-2,3.05-1,7.11-3.81,10.06,3.58-12.7,3.92-25.34-.09-38,3,2.76,1.82,7,3.9,10Z" transform="translate(-621.6 -329.85)"/><path class="cls-2" d="M681.72,339.83a50,50,0,0,1,49.76,50.26c0,27.45-22.57,49.67-50.39,49.64-27.36,0-49.54-22.66-49.51-50.51C631.62,362.13,654.27,339.82,681.72,339.83Zm0,2c-26.36,0-48.13,21.52-48.15,47.6,0,26.45,21.43,48.26,47.47,48.28,26.54,0,48.38-21.33,48.41-47.35C729.5,363.57,708.15,341.85,681.74,341.84Z" transform="translate(-621.6 -329.85)"/><path class="cls-3" d="M652.08,338.76l-4.45,2.94C648.13,339.25,649.84,338.61,652.08,338.76Z" transform="translate(-621.6 -329.85)"/><path class="cls-3" d="M711,338.88c2.39-.47,3.81.61,4.52,2.79Z" transform="translate(-621.6 -329.85)"/><path class="cls-1" d="M633.58,354.82c-.21,2.38-2.13,3.6-3.36,5.3a6,6,0,0,1,3.36-5.3Z" transform="translate(-621.6 -329.85)"/><path class="cls-1" d="M729.48,354.82A6.28,6.28,0,0,1,733,360c-1.57-1.46-3.14-2.92-3.47-5.21Z" transform="translate(-621.6 -329.85)"/><path class="cls-1" d="M729.47,424.74c.23-2.36,2.14-3.59,3.36-5.29a6,6,0,0,1-3.35,5.29Z" transform="translate(-621.6 -329.85)"/><path class="cls-1" d="M647.66,437.88l4.3,2.79C649.78,441,648.2,440.26,647.66,437.88Z" transform="translate(-621.6 -329.85)"/><path class="cls-1" d="M711,440.77l4.54-2.89C714.86,440.29,713.26,441.1,711,440.77Z" transform="translate(-621.6 -329.85)"/><path class="cls-1" d="M633.58,424.74a6.25,6.25,0,0,1-3.47-5.21c1.57,1.46,3.13,2.93,3.47,5.21Z" transform="translate(-621.6 -329.85)"/><path class="cls-1" d="M633.58,424.74a8.24,8.24,0,0,1,4.07,5.12c-2.32-1.79-3.93-2.8-4.07-5.12Z" transform="translate(-621.6 -329.85)"/><path class="cls-1" d="M729.48,424.74c-.1,2.21-1.71,3.3-3.92,5,.68-2.81,2.27-3.9,3.91-5Z" transform="translate(-621.6 -329.85)"/><path class="cls-1" d="M633.58,354.82c.1-2.21,1.71-3.29,3.92-4.95-.68,2.8-2.27,3.9-3.92,4.95Z" transform="translate(-621.6 -329.85)"/><path class="cls-1" d="M729.48,354.82a7.63,7.63,0,0,1-3.59-4.13c1.84.81,3.45,1.81,3.59,4.13Z" transform="translate(-621.6 -329.85)"/><path class="cls-4" d="M684.43,408.61c.17-2-.61-3.89,2.37-5.3,1.8-.85,2.7-4.56,1.28-7.7-2.61,1.49-.55,4.21-2.09,5.42-1.69,1.33-3.72.69-5.93.46,1-2.49,3.48-.84,4.67-2.05.93-2.29-1-4.64-.12-6.7.82-1.87,2.62-3.3,2.68-6.05,1.81,1.19.4,3.61,2.27,4.15l-.09-.06c.34.82.68,1,1,0l1.26-.19c1.33-.16,2.83.49,4-.78l.84,1a2.86,2.86,0,0,1-.2.92l-1.89.06c-1.22,0-2.79-.34-2.66,1.61.11,1.56,1.49,1.27,2.57,1.27l2.36,0a1.86,1.86,0,0,1,1,2.06c-.74,4.73,1.58,8.77,2.82,13.06-.88-.07-1.73-.22-2.15-1.17-1.45-3.43-2.48-6.91-2-10.72.2-1.49-.75-2.11-2.15-1.94-1.23.15-2.95-.74-3.54.88-.89,2.41.1,5.68,1.67,6.3,3.16,1.24,2.18,3.78,3.07,5.68-.77,1.08-1.43.86-2-.16.51-2.6-.82-3.27-3.07-2.9-2,.32-5.13-1.31-4.79,2.87C685.2,409.48,684.81,409.38,684.43,408.61Zm1-14.74c1.65.66,2.89,1.16,3.85-.21.13-.19-.24-.93-.56-1.21C687.13,391,686.5,392.43,685.44,393.87Zm5.06,8.84c-.15-.16-.4-.69-.7-.72-.76-.07-1.13.61-1.17,1.22s.17,1.34,1.06,1.18S690.56,403.61,690.5,402.71Z" transform="translate(-621.6 -329.85)"/><path class="cls-5" d="M684.53,372.79c1,.75,1.69,1.63,1.29,3-1,3.29.79,6.08,1.95,9.36-2.13.28-4-1.4-5.88.1l-1.75,13.53c-2-3,1.06-7.3-3.49-8.27.94-1.45,2.77-.2,3.72-1.89-1.21-2.27-2.5-4.13-5.82-1.8l3-4h.67c.55.38.25,2.47,1.79.85,2.17-2.29,1.37-5.22,1.76-7.89h.89c1.5,0,2-.91,1.9-2.28A1.34,1.34,0,0,1,684.53,372.79Zm-.28,5.73c-1.08.23-1.11,1.16-1.29,1.89s-.78,2,.88,2.22C685.06,381.34,684.35,379.91,684.25,378.52Z" transform="translate(-621.6 -329.85)"/><path class="cls-6" d="M664.45,409.79c2.22-3.71.41-8.84,4.23-12l1.12-.21c.54.12.83,1.15,1.5.56.24-.22.08-.9.1-1.37,1.39-.29,3.09.66,4.13-1a2.52,2.52,0,0,0-1.84-1.85l-1.55-.19,1.4-1.94.92,0c2.34,1.93,2.92,4.17,2.25,7.26-.52,2.38-1.4,5.66,3.3,6.39-4.3,1.36-4.67,1.25-5.15-1.32-.38-2,.56-4.18-.78-6.2-1.86.86-.92,2.44-1.36,3.51-.51,1.25.6,4.11-3,2.74-.93-.36-4.36,1.72-2.28,4.75C666.68,410,665.51,409.7,664.45,409.79Zm3.3-8.22c1.44.28,2.49.79,3.38-.33C670,399.37,669,399.39,667.75,401.57Z" transform="translate(-621.6 -329.85)"/><path class="cls-7" d="M664.45,409.79c1.06-.09,2.23.2,3-.86l17-.32c.38.77.77.87,1.17,0a14.47,14.47,0,0,1,7.86,0c.6,1,1.26,1.24,2,.16l2.93-.2c.42.95,1.27,1.1,2.15,1.17a1.59,1.59,0,0,1-1.61.89H666.07A1.63,1.63,0,0,1,664.45,409.79Z" transform="translate(-621.6 -329.85)"/><path class="cls-8" d="M669.8,397.61l-1.12.21-.3-3.92,1.14-1.07c1-.1,1.22,2.16,2.62.89l1.55.19c-1.72,2.93.71,1.74,1.84,1.85-1,1.7-2.74.75-4.13,1C670.74,396.82,670,396.77,669.8,397.61Z" transform="translate(-621.6 -329.85)"/><path class="cls-9" d="M692,389.39l-1.16,1.24h-.57l.07.06c-.5-3,1.08-4.39,2.51-5.92,0,.51,0,1,.07,1.55a.17.17,0,0,1,0,.1A8,8,0,0,0,692,389.39Z" transform="translate(-621.6 -329.85)"/><path class="cls-10" d="M694.45,391.81l1.89-.06c.13,1,.26,1.95.38,2.92l-2.36,0Z" transform="translate(-621.6 -329.85)"/><path class="cls-11" d="M670.66,386.85c.1-1-.74-2.71,1.11-2.59,1.07.07.68,1.62.7,2.57Z" transform="translate(-621.6 -329.85)"/><path class="cls-12" d="M692.63,384.86c.07-1-.79-2.67.83-2.65s.72,1.72.81,2.71Z" transform="translate(-621.6 -329.85)"/><path class="cls-10" d="M696.54,390.83l-.84-1L694.42,387a.57.57,0,0,1,.4-.37C695.94,387.79,698.84,388.25,696.54,390.83Z" transform="translate(-621.6 -329.85)"/><path class="cls-5" d="M670.66,386.85l1.81,0c.49,1.74-.76,2.22-2,2.74l0-1.24Z" transform="translate(-621.6 -329.85)"/><path class="cls-13" d="M669.52,392.83l-1.14,1.07a2,2,0,0,1-.35-3.19l1.3,0C669.26,391.45,668.22,392.25,669.52,392.83Z" transform="translate(-621.6 -329.85)"/><path class="cls-14" d="M678.22,382.8h-.67c0-.7-1-1.33-.23-2.08.16-.16.55-.09.83-.13Z" transform="translate(-621.6 -329.85)"/><path class="cls-15" d="M684.52,373.07c-.08.3-.26.8,0,.89l-2.92.37,0,0a2.58,2.58,0,0,1,1.45-2.54l.51.06h.5A1.71,1.71,0,0,1,684.52,373.07Z" transform="translate(-621.6 -329.85)"/><path class="cls-16" d="M692.63,384.86l1.64.06c.19.56.37,1.12.55,1.68a.57.57,0,0,0-.4.37l-1.89.11c0-.47,0-.93-.08-1.39A2.93,2.93,0,0,1,692.63,384.86Z" transform="translate(-621.6 -329.85)"/><path class="cls-17" d="M684.26,371.85l-.35,0-.36-.06c-.08-.68-1-1.3-.22-2,.16-.16.55-.09.83-.13Z" transform="translate(-621.6 -329.85)"/><path class="cls-18" d="M674.46,391.8l-.92,0c0-.79-.48-2.22.26-2.21C675.21,389.59,674.28,391,674.46,391.8Z" transform="translate(-621.6 -329.85)"/><path class="cls-15" d="M682.66,375.76h-.89c-.31-.87-.48-1.69.75-2l0,0Z" transform="translate(-621.6 -329.85)"/><path class="cls-19" d="M669.33,390.74l-1.3,0,1.36-1.09.36.41A.62.62,0,0,1,669.33,390.74Z" transform="translate(-621.6 -329.85)"/><path class="cls-19" d="M670.46,388.33l0,1.24a.74.74,0,0,1-.75.46l-.36-.41Z" transform="translate(-621.6 -329.85)"/><path class="cls-20" d="M689.47,390.78" transform="translate(-621.6 -329.85)"/></svg>