<svg id="Слой_1" data-name="Слой 1" xmlns="http://www.w3.org/2000/svg" viewBox="0 0 119.89 119.89"><defs><style>.cls-1{fill:#feecde;}.cls-2{fill:#feebde;}.cls-3{fill:#fed5b4;}.cls-4{fill:#feecdf;}.cls-5{fill:#fee9da;}.cls-6{fill:#fc8b37;}.cls-7{fill:#fc8c39;}.cls-8{fill:#fc8e3d;}.cls-9{fill:#fc9e59;}.cls-10{fill:#fdceab;}.cls-11{fill:#fefefe;}.cls-12{fill:#fc9d56;}</style></defs><title>4</title><path class="cls-1" d="M-149.71,215.89c-6.13-1.5-12.23-3.21-18.62-3a72.5,72.5,0,0,0-20.35,4v-1c3-2.11,6.52-2.51,10-3,.84-.11,1.66,0,2-1h18c2.26,1.65,5.05,1.25,7.56,1.95.68.2,1.19.37,1.44,1C-149.72,215.22-149.72,215.55-149.71,215.89Z" transform="translate(227.65 -211.9)"/><path class="cls-1" d="M-149.71,328.79a14,14,0,0,1-7.07,2c-.83.07-1.61.05-1.93,1h-18c-2.12-1.75-4.92-1-7.25-2-1.59-.66-3.46-.63-4.74-2v-1c4.15,1.27,8.25,2.83,12.65,3,2.13.08,4,1.07,6.21,1.1,6.9.11,13.51-1.39,20.11-3.07Q-149.72,328.29-149.71,328.79Z" transform="translate(227.65 -211.9)"/><path class="cls-2" d="M-223.66,253.86a57.74,57.74,0,0,0,0,36h-1a14.11,14.11,0,0,1-2-7.06c-.07-.84,0-1.62-1-1.94v-18c1.65-2.25,1.25-5.05,2-7.56.2-.68.37-1.19,1-1.43h1Z" transform="translate(227.65 -211.9)"/><path class="cls-2" d="M-111.74,289.83a57.74,57.74,0,0,0,0-36h1a14,14,0,0,1,2,7.06c.07.84,0,1.62,1,1.93v18c-1.65,2.26-1.25,5.06-2,7.56-.19.68-.37,1.19-1,1.44Z" transform="translate(227.65 -211.9)"/><path class="cls-3" d="M-167.87,321.8a50.07,50.07,0,0,1-49.8-50.38A50.13,50.13,0,0,1-167,221.87a50.1,50.1,0,0,1,49.29,50.9A50,50,0,0,1-167.87,321.8Zm48.13-49.7a48.2,48.2,0,0,0-46.82-48.21c-27.47-.58-48.64,21.78-49.11,46.94-.5,27.25,21.86,48.82,47.59,49C-141.46,320-119.78,298.05-119.74,272.1Z" transform="translate(227.65 -211.9)"/><path class="cls-2" d="M-215.66,236.87c.08,2.35-2.24,3.39-2.91,5.34,0,.13-.65.26-.71.17a1,1,0,0,1-.23-.83c.94-1.84,1.69-3.84,3.85-4.68Z" transform="translate(227.65 -211.9)"/><path class="cls-2" d="M-119.74,236.87a5.61,5.61,0,0,1,3.14,3.43c.22.69,1.38,1.43.47,2s-1.38-.61-1.53-1.28c-.36-1.58-2.58-2.2-2.08-4.17Z" transform="translate(227.65 -211.9)"/><path class="cls-2" d="M-132.73,223.89c-2.34.07-3.38-2.25-5.33-2.92-.14,0-.26-.64-.17-.71a1,1,0,0,1,.83-.23c1.83.94,3.84,1.7,4.67,3.85Z" transform="translate(227.65 -211.9)"/><path class="cls-2" d="M-202.67,223.88a5.55,5.55,0,0,1,3.43-3.13c.69-.22,1.43-1.39,2-.47.49.75-.62,1.37-1.28,1.52-1.58.36-2.2,2.58-4.17,2.09Z" transform="translate(227.65 -211.9)"/><path class="cls-2" d="M-215.66,306.81a5.55,5.55,0,0,1-3.13-3.43c-.23-.69-1.39-1.43-.48-2s1.38.62,1.53,1.28c.36,1.58,2.58,2.2,2.08,4.17Z" transform="translate(227.65 -211.9)"/><path class="cls-2" d="M-119.74,306.81c-.08-2.34,2.24-3.38,2.91-5.33,0-.14.65-.26.72-.17a1,1,0,0,1,.22.83c-.94,1.83-1.69,3.84-3.85,4.67Z" transform="translate(227.65 -211.9)"/><path class="cls-2" d="M-202.67,319.8c2.34-.08,3.38,2.24,5.33,2.91.14.05.26.65.18.72s-.64.33-.84.22c-1.83-.93-3.84-1.69-4.67-3.85Z" transform="translate(227.65 -211.9)"/><path class="cls-2" d="M-132.73,319.8a5.59,5.59,0,0,1-3.43,3.14c-.69.22-1.43,1.38-2,.47s.62-1.38,1.28-1.53c1.58-.36,2.2-2.58,4.17-2.08Z" transform="translate(227.65 -211.9)"/><path class="cls-4" d="M-202.67,223.89c-.5,1.48-1.88,2.23-2.86,3.3-.44.47-1.16,1-1.63.32s.43-1.07.85-1.47c1-1,1.85-2.42,3.64-2.16Z" transform="translate(227.65 -211.9)"/><path class="cls-4" d="M-132.73,223.88c.17,0,.33,0,.49,0,2,.26,2.9,2,4.07,3.29,0,0-.31.61-.41.59-1.76-.35-2.53-2-3.73-3-.22-.2-.28-.57-.42-.86Z" transform="translate(227.65 -211.9)"/><path class="cls-1" d="M-215.66,236.87a4,4,0,0,1,0-.49c.26-2,2-2.89,3.29-4.07.05,0,.6.31.58.41-.34,1.76-1.95,2.53-3,3.73a2.52,2.52,0,0,1-.87.42Z" transform="translate(227.65 -211.9)"/><path class="cls-1" d="M-119.74,236.87c-1.49-.5-2.24-1.87-3.31-2.86-.47-.43-1-1.15-.32-1.63s1.07.43,1.47.86c1,1,2.42,1.84,2.16,3.63Z" transform="translate(227.65 -211.9)"/><path class="cls-4" d="M-132.73,319.8c.51-1.49,1.88-2.24,2.87-3.31.43-.47,1.15-1,1.63-.32s-.44,1.07-.86,1.47c-1,1-1.85,2.42-3.64,2.16Z" transform="translate(227.65 -211.9)"/><path class="cls-4" d="M-215.66,306.81c1.49.51,2.24,1.88,3.31,2.87.47.43,1,1.15.32,1.63s-1.07-.44-1.47-.86c-1-1-2.42-1.85-2.16-3.64Z" transform="translate(227.65 -211.9)"/><path class="cls-4" d="M-119.74,306.81a4.17,4.17,0,0,1,0,.5c-.26,2-2,2.89-3.29,4.06,0,0-.6-.31-.58-.41.35-1.76,2-2.52,3-3.73.19-.22.57-.28.86-.42Z" transform="translate(227.65 -211.9)"/><path class="cls-4" d="M-202.67,319.8a4,4,0,0,1-.49,0c-2-.25-2.89-2-4.07-3.29,0,0,.31-.6.41-.58,1.76.35,2.53,2,3.73,3a2.47,2.47,0,0,1,.42.86Z" transform="translate(227.65 -211.9)"/><path class="cls-5" d="M-147.72,215.89a7.69,7.69,0,0,1,1.44,0,7.35,7.35,0,0,1,1.22.48,6.26,6.26,0,0,1-1.26.48,1.2,1.2,0,0,1-1.4-1Z" transform="translate(227.65 -211.9)"/><path class="cls-5" d="M-111.75,251.86a1.2,1.2,0,0,1-1-1.4,6.18,6.18,0,0,1,.48-1.25,5.53,5.53,0,0,1,.48,1.22,7.57,7.57,0,0,1,0,1.43Z" transform="translate(227.65 -211.9)"/><path class="cls-5" d="M-223.65,291.83a1.19,1.19,0,0,1,1,1.39,6.26,6.26,0,0,1-.48,1.26,5.94,5.94,0,0,1-.48-1.22,7.67,7.67,0,0,1,0-1.44Z" transform="translate(227.65 -211.9)"/><path class="cls-5" d="M-111.75,291.82a7.67,7.67,0,0,1,0,1.44,5.94,5.94,0,0,1-.48,1.22,6.26,6.26,0,0,1-.48-1.26,1.19,1.19,0,0,1,1-1.39Z" transform="translate(227.65 -211.9)"/><path class="cls-5" d="M-147.72,327.79a1.2,1.2,0,0,1,1.4-1,6.93,6.93,0,0,1,1.26.48,6.62,6.62,0,0,1-1.22.49,8.65,8.65,0,0,1-1.44,0Z" transform="translate(227.65 -211.9)"/><path class="cls-5" d="M-223.65,251.86a7.57,7.57,0,0,1,0-1.43,5.53,5.53,0,0,1,.48-1.22,6.18,6.18,0,0,1,.48,1.25,1.2,1.2,0,0,1-1,1.4Z" transform="translate(227.65 -211.9)"/><path class="cls-5" d="M-149.71,215.89c0-.34,0-.67,0-1,.81,0,1.75-.17,2,1h-2Z" transform="translate(227.65 -211.9)"/><path class="cls-5" d="M-188.68,215.89v1c-.61,0-1.62.12-1.62-.49S-189.29,215.92-188.68,215.89Z" transform="translate(227.65 -211.9)"/><path class="cls-5" d="M-223.66,253.86h-1c0-.82-.17-1.75,1-2h0Z" transform="translate(227.65 -211.9)"/><path class="cls-5" d="M-224.65,289.83h1v2h0C-224.82,291.58-224.62,290.65-224.65,289.83Z" transform="translate(227.65 -211.9)"/><path class="cls-5" d="M-111.74,289.83h1c0,.82.17,1.75-1,2h0Z" transform="translate(227.65 -211.9)"/><path class="cls-5" d="M-110.75,253.86h-1v-2h0C-110.58,252.11-110.77,253-110.75,253.86Z" transform="translate(227.65 -211.9)"/><path class="cls-5" d="M-188.68,326.8v1c-.61,0-1.62.1-1.62-.5S-189.29,326.82-188.68,326.8Z" transform="translate(227.65 -211.9)"/><path class="cls-5" d="M-149.71,328.79q0-.5,0-1h2C-148,329-148.9,328.77-149.71,328.79Z" transform="translate(227.65 -211.9)"/><path class="cls-6" d="M-161.66,260a2.21,2.21,0,0,1,1.41-1.26c1-.48,2.06-1.45,3.15-.51.91.79.21,1.8-.18,2.7-.84,1.93-.53,3.36,1.5,4.5a6.56,6.56,0,0,1,3,3.81c.19.64.23,1.45,1,1.55,4.49.61,2.76,4.07,3.05,6.59.13,1.13-.59,1.79-1.51,2.33-3.91,2.3-4.78,3.39-6.56,8.09a4.42,4.42,0,0,1-6.79,1.55c-2.29-2.16-7.42-2.34-9.29,0-1.46,1.81-2.78,1.05-4.34.6-2.14-.61-3.08-1.81-2.32-4a1.4,1.4,0,0,1,1,1.21c1.81,1.46,3.6,2.8,4.93-.5a1.6,1.6,0,0,1,1.65-.85q3.75,0,7.48.06a1.71,1.71,0,0,1,1.75,1.45c.2.87.58,1.75,1.61,1.3s2.25-.5,2.39-2.1c.38-4.27,4-6.19,6.86-8.38,1.1-.85,2-1.11,2-2.69s-.28-2.6-2.15-2.51c-1.53.07-1.94-1.25-2.22-2.29a6.47,6.47,0,0,0-3.61-4.47c-1.82-.86-2.18-2.34-1.78-4.15.66-.28,1-.82.73-1.45s-.66-.27-.84.23l-1,.12A.91.91,0,0,1-161.66,260Z" transform="translate(227.65 -211.9)"/><path class="cls-7" d="M-178.52,287.08a1.4,1.4,0,0,0-1-1.21c.3-1.69-.64-2.79-1.73-3.9a7.43,7.43,0,0,1-2.46-4.73c-.13-2.77.18-5.51-2.54-7.52-1-.75-.47-2.5-.27-3.81.65.13.88.61,1,1.17a10,10,0,0,0,1,2.07c.76,1,1.48.93,1.84-.39l2-1.92a1,1,0,0,1,1,.91c-3.86,6.26-3.73,8.88,1,14.51C-177.25,284-177.18,285.42-178.52,287.08Z" transform="translate(227.65 -211.9)"/><path class="cls-8" d="M-179.71,267.75a1,1,0,0,0-1-.91c0-.28.07-.55.09-.83,4.34-2.88,9-4.93,14.32-4.1,2.18.33,3.26-.92,4.64-2a.91.91,0,0,0,.95.89c-1.14,2.61-3.06,3.46-5.87,3C-171.51,263.13-175.84,264.75-179.71,267.75Z" transform="translate(227.65 -211.9)"/><path class="cls-6" d="M-166.9,259.39c-.32.53-1,.63-1.25.35a15.13,15.13,0,0,1-1.29-2.05A4.36,4.36,0,0,0-174.7,256a3.93,3.93,0,0,0-3,4.07,8.13,8.13,0,0,1,0,1.48c-.06.41-.05,1.11-.75.85a1.67,1.67,0,0,1-1-1c-.6-2.55.71-4.37,2.44-6a5,5,0,0,1,5.88-1.15,9.18,9.18,0,0,1,4.09,4.17A2.31,2.31,0,0,1-166.9,259.39Z" transform="translate(227.65 -211.9)"/><path class="cls-9" d="M-183.76,263.88c.47,1.23-.68,2-.92,3a2.63,2.63,0,0,0-.83.23c-.14-.56-.37-1-1-1.17A2.33,2.33,0,0,1-183.76,263.88Z" transform="translate(227.65 -211.9)"/><path class="cls-10" d="M-159.6,262l-.11-1.22c.18-.5.52-.88.84-.23S-158.94,261.67-159.6,262Z" transform="translate(227.65 -211.9)"/><path class="cls-11" d="M-185.51,267.08a2.63,2.63,0,0,1,.83-.23" transform="translate(227.65 -211.9)"/><path class="cls-11" d="M-182.71,268.76" transform="translate(227.65 -211.9)"/><path class="cls-12" d="M-156.66,272.84a1.62,1.62,0,0,1-1.5,1.65,1.61,1.61,0,0,1-1.51-1.64,1.62,1.62,0,0,1,1.5-1.66A1.63,1.63,0,0,1-156.66,272.84Z" transform="translate(227.65 -211.9)"/></svg>