<svg version="1.0" xmlns="http://www.w3.org/2000/svg"
 width="119px" height="6px" viewBox="0 0 1000.000000 51.000000"
 preserveAspectRatio="xMidYMid meet">
<metadata>
Created by potrace 1.15, written by Peter Selinger 2001-2017
</metadata>
<g transform="translate(0.000000,51.000000) scale(0.100000,-0.100000)"
fill="#FF8C00" stroke="none">
<path d="M618 486 c-78 -32 -133 -65 -283 -170 -130 -91 -283 -176 -317 -176
-25 0 -23 -26 4 -44 59 -42 162 -7 330 112 282 198 313 197 635 -15 84 -55
172 -107 197 -114 39 -11 45 -17 51 -46 l6 -33 64 0 c61 0 65 2 65 23 0 18 29
39 158 115 224 133 409 223 459 224 51 0 104 -27 232 -122 73 -55 129 -88 189
-111 94 -36 157 -77 167 -108 5 -18 15 -21 66 -21 54 0 59 2 59 23 0 18 28 39
143 109 234 142 369 204 472 215 50 5 51 4 190 -89 81 -55 170 -106 212 -122
89 -34 132 -62 158 -103 19 -30 24 -32 78 -33 52 0 57 2 57 23 1 19 44 45 301
181 l301 159 67 -32 c36 -18 125 -68 196 -111 152 -91 233 -133 293 -150 37
-12 42 -17 42 -42 0 -26 3 -28 38 -28 50 1 103 27 187 92 83 65 213 144 319
194 148 70 247 57 441 -61 58 -35 148 -83 200 -105 87 -39 145 -83 145 -111 0
-5 29 -9 65 -9 36 0 65 4 65 10 0 5 14 25 30 44 21 24 57 45 120 70 49 19 118
53 154 75 94 58 173 96 235 115 109 32 154 20 309 -83 126 -84 232 -141 300
-161 37 -12 42 -17 42 -42 0 -28 1 -28 60 -28 56 0 60 2 60 23 0 17 15 31 63
58 34 20 133 77 220 127 177 102 294 154 345 154 43 0 110 -35 207 -108 42
-33 136 -88 209 -124 103 -51 135 -72 151 -98 19 -31 23 -33 66 -29 66 5 162
57 374 202 191 130 297 191 352 201 32 6 33 8 33 56 l0 51 -37 -6 c-60 -10
-222 -94 -448 -232 -116 -71 -222 -133 -237 -139 -22 -8 -39 -5 -85 13 -170
69 -466 266 -503 336 -9 17 -22 25 -41 25 -40 0 -251 -109 -494 -254 -115 -69
-218 -126 -227 -126 -37 0 -126 44 -246 122 -69 45 -148 91 -175 102 -59 24
-125 89 -134 130 -6 27 -7 28 -58 24 -69 -6 -173 -56 -315 -153 -203 -139
-229 -156 -303 -191 -39 -19 -81 -34 -92 -34 -23 0 -109 48 -315 178 -79 50
-168 102 -196 114 -45 19 -53 28 -59 55 -6 33 -7 33 -63 33 -46 0 -60 -4 -69
-20 -28 -44 -183 -142 -435 -275 -189 -100 -180 -100 -321 -31 -176 87 -405
253 -422 307 -5 16 -16 19 -61 19 -50 0 -54 -2 -54 -23 0 -19 -10 -27 -49 -41
-77 -27 -266 -126 -436 -227 l-156 -92 -42 13 c-143 42 -476 259 -524 340 -17
30 -21 32 -61 27 -61 -7 -161 -59 -357 -188 -174 -114 -285 -174 -340 -185
-23 -4 -58 8 -160 57 -243 117 -393 223 -411 293 -6 24 -10 26 -58 26 -47 0
-56 -4 -98 -42 -55 -52 -197 -137 -421 -253 -148 -77 -173 -87 -205 -82 -64
11 -192 82 -327 183 -71 53 -151 108 -177 123 -35 19 -48 32 -48 49 0 18 -5
22 -32 22 -18 0 -58 -11 -90 -24z"/>
</g>
</svg>
