<svg id="Слой_1" data-name="Слой 1" xmlns="http://www.w3.org/2000/svg" viewBox="0 0 267.79 157.93"><defs><style>.cls-1{fill:#616161;}.cls-2{fill:gray;}.cls-3{fill:#f0f0f0;}.cls-4{fill:#3c3c3c;}.cls-5{fill:#eeefef;}.cls-6{fill:#3f4b59;}.cls-7{fill:#646464;}.cls-8{fill:#626262;}.cls-9{fill:#757575;}.cls-10{fill:#f1f1f1;}.cls-11{fill:#5f5f5f;}.cls-12{fill:#2a3138;}.cls-13{fill:#425061;}.cls-14{fill:#ededed;}.cls-15{fill:#737373;}.cls-16{fill:#898989;}.cls-17{fill:#e9e9e9;}.cls-18{fill:#434343;}.cls-19{fill:#5e5e5e;}.cls-20{fill:#89898a;}.cls-21{fill:#4e5865;}.cls-22{fill:#575757;}.cls-23{fill:#464646;}.cls-24{fill:#535353;}.cls-25{fill:#807f7f;}.cls-26{fill:#515151;}.cls-27{fill:#4d95ed;}.cls-28{fill:#4d95ec;}.cls-29{fill:#c9c9c9;}.cls-30{fill:#2a2f34;}.cls-31{fill:#3e72b2;}.cls-32{fill:#335680;}.cls-33{fill:#a6a6a6;}.cls-34{fill:#eff0f0;}.cls-35{fill:#5d5d5d;}.cls-36{fill:#425060;}.cls-37{fill:#e0e0e0;}.cls-38{fill:#7f7f7f;}.cls-39{fill:#4f4f4f;}.cls-40{fill:#4c95ec;}.cls-41{fill:#bebebe;}.cls-42{fill:#b7b7b7;}.cls-43{fill:#375171;}.cls-44{fill:#4d4d4d;}.cls-45{fill:#304f73;}.cls-46{fill:#64696f;}.cls-47{fill:#335781;}.cls-48{fill:#4e4e4e;}.cls-49{fill:#343f4b;}.cls-50{fill:#293646;}.cls-51{fill:#2b2f34;}.cls-52{fill:#30373f;}.cls-53{fill:#3a587d;}.cls-54{fill:#494c51;}.cls-55{fill:#46484b;}.cls-56{fill:#202224;}.cls-57{fill:#202021;}.cls-58{fill:#b9b9b9;}.cls-59{fill:#4d96ed;}.cls-60{fill:#2f3740;}.cls-61{fill:#313842;}.cls-62{fill:#232e3b;}.cls-63{fill:#3b6ba5;}.cls-64{fill:#ccc;}.cls-65{fill:#d1d1d1;}.cls-66{fill:#d0d0d0;}.cls-67{fill:#374250;}.cls-68{fill:#2e3845;}.cls-69{fill:#b8b8b8;}.cls-70{fill:#969594;}.cls-71{fill:#cacaca;}.cls-72{fill:#e2e2e2;}.cls-73{fill:#c4c4c4;}</style></defs><title>adv-2</title><path class="cls-1" d="M-149.29,271.27h5l3.1,1.92-2.24.38a4.27,4.27,0,0,0,.35.53c.64-.28,1.26-.6,1.88-.92l4.89,1.14,0,0c.08.25.17.5.26.75-.14.14-.29.27-.44.4l-1.54.64a5.93,5.93,0,0,0-.43.44,50.65,50.65,0,0,0-20.55-3.08c-.72-1.24-4.4,1.87-3.23-2.18h13Z" transform="translate(284.11 -271.27)"/><path class="cls-2" d="M-162.29,271.27c-1.17,4.05,2.51.94,3.23,2.18l-7.25,1.73c0-.26.07-.53.11-.79l1.24-.64-2.16-.28-1.2-.22,3-2Z" transform="translate(284.11 -271.27)"/><path class="cls-3" d="M-136.32,274.32l-4.89-1.14h0l-3.1-1.92h5Z" transform="translate(284.11 -271.27)"/><path class="cls-4" d="M-149.29,271.27h0Z" transform="translate(284.11 -271.27)"/><path class="cls-3" d="M-118.36,289.27c9.47,5.41,12.51,14.82,15,24.48a65.25,65.25,0,0,1,1.08,8.77c.21,1.93,1.06,2.71,3,1.71l-3.12,8.82v0l-1,13.14a15.29,15.29,0,0,0-1.06-2.1c-.59-.89-1.31-1.7-2-2.54-.74.8-1.53,1.55-2.19,2.41-2.3,2.95-4.49,6-6.83,8.89-1.54,1.91-3.54,3.59-1.84,6.39l-6.8-1.19a55.79,55.79,0,0,0-6.74-1c-5.3-.12-10.61,0-15.91.05-1.4,0-2.36-.2-1.51-1.91l1.95-.14,6.29-1.67c13.4-4.63,22.18-13.79,26.63-27.19,2.72-8.05,3.31-16.12.21-24.22a.63.63,0,0,0-.07-.78Q-115.81,295.27-118.36,289.27Z" transform="translate(284.11 -271.27)"/><path class="cls-5" d="M-43.46,325.27c4.94,1.25,6.91,5.49,8.7,9.43,5.58,12.24,4.39,24-3.36,35.1-2.53,3.6-2.43,3.67.68,7.63l-11.86-4.26c-3.16-.27-6.33-.47-9.48-.84-1.83-.21-3.62-.7-5.42-1.07h.44l.41-.16,2.21-.77c9.55-2.07,20.34-14.2,20.8-25.12q0-4.49,0-9Z" transform="translate(284.11 -271.27)"/><path class="cls-6" d="M-49.3,373.17l11.86,4.26,4.93,3.83.91,1,2.27,2.85,0,.05c.3.37.59.75.88,1.13l-.05-.06,4.2,9.92-.24,3.09c-.28,3.65-.48,7.31-.89,11A37.21,37.21,0,0,1-26.59,415c0-3.64.05-7.29.12-10.94.27-13.09-8-24.71-20.86-27.91-2.3-.66-4.6-1.85-6.91-1.89q-17.61-.29-35.24,0c-2,0-3.91,1.2-5.86,1.85-2.73.84-4.28-.69-5.87-2.62a32.41,32.41,0,0,0-17.06-11.36l-2.08-1.9,3.38-.2,12.6,6.17,6.06,5.95h0c1.14,2.87,3.18,1,4.88.92,6.1-.26,12.21-.53,18.32-.77,2-.08,4-.15,6-.07C-62.51,372.54-55.9,372.87-49.3,373.17Z" transform="translate(284.11 -271.27)"/><path class="cls-7" d="M-102.47,333.05l3.12-8.82,11.07-10.84,4.21-2a.6.6,0,0,0,.74-.23l1,.13,2-.84,2.7-.37,12.56.07,1.75.19,2.07.87,0,0-.06,1.11c0,.29,0,.58,0,.87l-1,.11h0l-3.23-.87-1.77-.17h-9l-1.74.17-3.25.91c-17.25,7.48-22,21.79-18.14,37l-2,1.21c-.67-1.74-1.33-3.49-2-5.23l1-13.14v14.31l1.58-.08Z" transform="translate(284.11 -271.27)"/><path class="cls-1" d="M-118.36,289.27q2.53,6,5.08,12l-2.09-1a4.82,4.82,0,0,0-.93,0h0l-.89-2.06c-4.15-10.13-11.67-16.94-21.32-21.65a5.93,5.93,0,0,1,.43-.44l1.54-.64c.15-.13.3-.26.44-.4l1.76.34A58.5,58.5,0,0,1-118.36,289.27Z" transform="translate(284.11 -271.27)"/><path class="cls-8" d="M-61.33,313.13c0-.29,0-.58,0-.87l3.07-.05c6.48,2.6,10.83,7.62,14.81,13.06l3.11,11-2.1.18c-2.85-9.93-8-18-17.89-22.29Z" transform="translate(284.11 -271.27)"/><path class="cls-9" d="M-65.08,310.12l-12.56-.07a2.45,2.45,0,0,0,.45-.74Z" transform="translate(284.11 -271.27)"/><path class="cls-10" d="M-84.07,311.36l-4.21,2Z" transform="translate(284.11 -271.27)"/><path class="cls-10" d="M-77.19,309.31a2.45,2.45,0,0,1-.45.74l-2.7.37-1.8,0-.29-.28Z" transform="translate(284.11 -271.27)"/><path class="cls-9" d="M-58.27,312.21l-3.07.05.06-1.11Z" transform="translate(284.11 -271.27)"/><path class="cls-9" d="M-61.26,311.18l-2.07-.87Z" transform="translate(284.11 -271.27)"/><path class="cls-3" d="M-134.34,275.39l-1.76-.34c-.09-.25-.18-.5-.26-.75Z" transform="translate(284.11 -271.27)"/><path class="cls-10" d="M-82.29,311.26l-1-.13.9-1,.29.28A3.29,3.29,0,0,0-82.29,311.26Z" transform="translate(284.11 -271.27)"/><path class="cls-11" d="M-216.24,316.23l5.69,6.1,2.31,3.87,0,0,.85,1.17-.07-.07c.27,1.12.46,2.26.84,3.35a31.14,31.14,0,0,1-19.54,39.62l-1.2-.18-2.12-1c1.36-.61,2.68-1.32,4.07-1.82,9.66-3.53,19.15-15.68,17.2-28a41.79,41.79,0,0,0-.86-6.76c-2.53-8.58-8.29-14.42-16.19-18.31-1.09-1.67,0-2,1.33-2.09Z" transform="translate(284.11 -271.27)"/><path class="cls-12" d="M-282.24,417.37l-1.87-.23.06-18.87c.29,3.07.54,6.15.87,9.21.24,2.24.58,4.47.88,6.71a14.83,14.83,0,0,0,3.64,1q25.88.12,51.76,0a13.73,13.73,0,0,0,3.62-1l1,2.77-23,.41h-37Z" transform="translate(284.11 -271.27)"/><path class="cls-1" d="M-171.3,274.09l3-.84,1.2.22.92.92c0,.26-.08.53-.11.79-13.59,4.94-22.89,14-27,28.06l-2.1,5.11q-.48,4.48-.94,8.95l-.88-.09C-198.31,297-189,283-171.3,274.09Z" transform="translate(284.11 -271.27)"/><path class="cls-13" d="M-282.3,414.19c-.3-2.24-.64-4.47-.88-6.71-.33-3.06-.58-6.14-.87-9.21,1-10.24,6.95-17,15.43-22.06,1.12-.67,2.27-1.29,3.41-1.94l2.89-.1,3.1.09-3.06,2.05c-.91.41-1.8.84-2.73,1.22-8.2,3.38-13.89,9.27-15.68,17.92C-281.95,401.55-281.81,407.93-282.3,414.19Z" transform="translate(284.11 -271.27)"/><path class="cls-14" d="M-262.37,373.06c3-1.52,2.15-3.62.69-5.58a16.27,16.27,0,0,1-3.52-11.33c4.69,6.26,9.68,12.15,17.73,14.22l2.24.79.39.16h.43c-1.82.34-3.62.78-5.45,1-3.17.36-6.35.56-9.53.83l-2.65.3Z" transform="translate(284.11 -271.27)"/><path class="cls-11" d="M-247.47,370.37c-8.05-2.07-13-8-17.73-14.22l-2.11-4.93-.91-6,2.17.95c.61,1.53,1.17,3.08,1.82,4.59,2.18,5.09,4.78,9.86,9.91,12.64l11.09,5.75-2.11,1.15Z" transform="translate(284.11 -271.27)"/><path class="cls-11" d="M-266,327.3c3.92-6.42,8.54-12.1,15.75-15.08.82.46,3.43-1,2,1.86-6.81,3.18-12.07,7.94-15.21,14.85-.94,2.08-1.72,4.23-2.58,6.34l-2.13,1,1-6a.49.49,0,0,0,.15-.66Z" transform="translate(284.11 -271.27)"/><path class="cls-15" d="M-248.27,314.08c1.41-2.88-1.2-1.4-2-1.86,5.92-3.45,12.38-3.3,18.89-2.91l5.09,1.07-.07-.05,1.12.74,1.35,1c-1.38.1-2.42.42-1.33,2.09A34.41,34.41,0,0,0-248.27,314.08Z" transform="translate(284.11 -271.27)"/><path class="cls-16" d="M-197.2,317.21l.88.09.29,1.9c.24-.39.69-.78.69-1.17,0-3.23,0-6.45,0-9.68l2.1-5.11q0,10-.08,20l-1.38-1.21a13.56,13.56,0,0,0-.51,1.52c-.13.62-.15,1.25-.22,1.88l-1.75-3.32C-197.21,320.49-197.2,318.85-197.2,317.21Z" transform="translate(284.11 -271.27)"/><path class="cls-3" d="M-226.31,310.38l-5.09-1.07Z" transform="translate(284.11 -271.27)"/><path class="cls-14" d="M-262.32,374.17l-2.89.1,2.84-1.21.33.36C-262.13,373.67-262.22,373.92-262.32,374.17Z" transform="translate(284.11 -271.27)"/><path class="cls-3" d="M-225.26,311.07l-1.12-.74Z" transform="translate(284.11 -271.27)"/><path class="cls-17" d="M-282.24,417.37h3c-.28,6.64,4.34,8.77,9.55,8.8,8.48,0,17,.14,25.45,0,7.94-.15,15.88-.6,23.81-.95a71.37,71.37,0,0,1,7.28-.41c5.1.31,10.17,1.32,15.26,1.34q47.67.19,95.32,0c4.45,0,8.89-.56,13.33-.93,2.12-.18,4.25-.84,6.34-.72,7.9.44,15.79,1.39,23.69,1.62,10.14.29,20.3.14,30.44,0,6-.05,9.33-2.53,9.34-7.36A95.75,95.75,0,0,0-20.69,403c-.4-2.4-2.34-4.55-3.59-6.82l-4.2-9.92a28.37,28.37,0,0,1,12.11,23.28c.07,3.33.06,6.66,0,10-.12,6-3.72,9.61-9.7,9.63-16.31.06-32.63,0-48.94,0h-83.11c-14.48,0-29,.06-43.45,0-3.78,0-7.56-.85-11.34-.84-3.94,0-7.89.81-11.84.84-15.15.1-30.29,0-45.44,0C-279.25,429.18-282.17,426.31-282.24,417.37Z" transform="translate(284.11 -271.27)"/><path class="cls-17" d="M-29.33,385.14l-2.27-2.85Z" transform="translate(284.11 -271.27)"/><path class="cls-17" d="M-28.43,386.32l-.88-1.13Z" transform="translate(284.11 -271.27)"/><path class="cls-3" d="M-193.36,323.26l.08-20c4.08-14.07,13.38-23.12,27-28.06l7.25-1.73a50.65,50.65,0,0,1,20.55,3.08c9.65,4.71,17.17,11.52,21.32,21.65l.89,2.06h0c0,.65,0,1.3,0,1.95s0,1.41-.07,2.11a9.43,9.43,0,0,1-2.51-1.36c-2.28-2.39-4.2-5.16-6.66-7.33-17.34-15.36-40.78-11.12-53.45,6.41-7,9.74-8.61,21-4.07,32.6,1.26,3.22,2.5,6.44,3.75,9.67-.79-.57-1.62-1.08-2.36-1.7-5.58-4.7-8.59-11.09-11.53-17.53Z" transform="translate(284.11 -271.27)"/><path class="cls-18" d="M-141.21,273.18c-.62.32-1.24.64-1.88.92a4.27,4.27,0,0,1-.35-.53l2.24-.38Z" transform="translate(284.11 -271.27)"/><path class="cls-18" d="M-136.54,275.45l-1.54.64Z" transform="translate(284.11 -271.27)"/><path class="cls-18" d="M-166.2,274.39l-.92-.92,2.16.28Z" transform="translate(284.11 -271.27)"/><path class="cls-19" d="M-113.42,326.25c-4.45,13.4-13.23,22.56-26.63,27.19l-4.33.63-2.13-1c.16-.24.32-.48.46-.73l.41,0,.35-.23,2.1-.85-.06,0,4-1.12c11.36-4.48,19-12.47,22.94-24.07a2,2,0,0,0,.84-.28Z" transform="translate(284.11 -271.27)"/><path class="cls-20" d="M-148.29,355.25c-.85,1.71.11,1.92,1.51,1.91,5.3-.06,10.61-.17,15.91-.05a55.79,55.79,0,0,1,6.74,1l-59.33,0a4.52,4.52,0,0,0,.22-.8h0c5.49,0,11-.05,16.48-.09l7-.06-.51-1.9,1-1.95h10Z" transform="translate(284.11 -271.27)"/><path class="cls-21" d="M-183.46,358.05l59.33,0,6.8,1.19a4.17,4.17,0,0,0,.36.81l-3.38.2h0l-6-1h-55.9l-7.11,0,1.07-.95Z" transform="translate(284.11 -271.27)"/><path class="cls-22" d="M-113.42,326.25l-2.08-.37c1.58-7.87,2.46-15.74,0-23.61h.47l1.26,1.27.61-1.52C-110.11,310.13-110.7,318.2-113.42,326.25Zm1-9c0-2.64,0-5.29,0-7.93l-.42-.61-.36.63v7.89l.36.63Z" transform="translate(284.11 -271.27)"/><path class="cls-23" d="M-148.29,355.25l-1-2,2.76-.17,2.13,1-2,1Z" transform="translate(284.11 -271.27)"/><path class="cls-20" d="M-146.34,355.11l2-1,4.33-.63Z" transform="translate(284.11 -271.27)"/><path class="cls-24" d="M-113.21,302l-.61,1.52-1.26-1.27c-.1-.67-.19-1.34-.29-2l2.09,1A.63.63,0,0,1-113.21,302Z" transform="translate(284.11 -271.27)"/><path class="cls-1" d="M-63.35,371.11l-.41.16h-.44c-2.11.8-2.23-.5-2.13-2a34.92,34.92,0,0,0,3.38-.88c9.16-3.43,16.14-9,18.66-19l1.77-3.17,2.18-1c-.46,10.92-11.25,23-20.8,25.12Z" transform="translate(284.11 -271.27)"/><path class="cls-25" d="M-66.33,369.24c-.1,1.52,0,2.82,2.13,2,1.8.37,3.59.86,5.42,1.07,3.15.37,6.32.57,9.48.84-6.6-.3-13.21-.63-19.82-.89-2-.08-4,0-6,.07-6.11.24-12.22.51-18.32.77l13.31-1.23-2.36-1.59,1.22-.17,3-1Z" transform="translate(284.11 -271.27)"/><path class="cls-26" d="M-40.34,345.22l-2.18,1c0-3.26.05-6.52.07-9.78l2.1-.18Q-40.35,340.73-40.34,345.22Z" transform="translate(284.11 -271.27)"/><path class="cls-25" d="M-63.35,371.11l2.21-.77Z" transform="translate(284.11 -271.27)"/><path class="cls-27" d="M-118.27,362.17a32.41,32.41,0,0,1,17.06,11.36c1.59,1.93,3.14,3.46,5.87,2.62,2.76-.67,4.08.88,4.92,3.18q1,5.94,2.06,11.88a28.08,28.08,0,0,1,.63,4.33,53.57,53.57,0,0,1-.5,5.49l-1-1.83-1-2.11-.87-1.51c-.37.61-1.06,1.21-1.07,1.82-.13,5.9-.14,11.79-.19,17.69-15.63,0-31.26.14-46.9.13q-38.41,0-76.84-.12c0-5.15-.07-10.3-.13-15.45,0-1.15-.16-2.3-.24-3.45l-1.67,1-1,2-1.37,1.29a9.08,9.08,0,0,1-.67-1.89,14.74,14.74,0,0,1,.06-2.39q1.56-8.47,3.1-16.95c.93-3.08,3.16-3.54,5.91-3,1.75-1,3.81-1.72,5.2-3.1,4.86-4.81,9.7-9.52,16.73-11a15.38,15.38,0,0,1,3.77-.72,63.35,63.35,0,0,1,6.39.9c1,6.34,2,12.69,3.11,19,1.53,8.45,3.28,16.85,4.78,25.31.46,2.6,1.36,4.54,4.25,4.56,9.14.07,18.3.18,27.44-.13,1.4-.05,3.63-2.07,3.94-3.5,1.71-8.08,3-16.26,4.37-24.4.3-.69.6-1.38.89-2.07v0l2-10a3.55,3.55,0,0,1,.09-.92q.47-3,.94-6l-.1-1.81a23.6,23.6,0,0,1,5-1.08A27.26,27.26,0,0,1-118.27,362.17Z" transform="translate(284.11 -271.27)"/><path class="cls-28" d="M-47.33,376.19c12.84,3.2,21.13,14.82,20.86,27.91-.07,3.65-.08,7.3-.12,10.94l-57.7.11c-.3-1.61-.07-2.87,2-2.94,3.2.59,5-.29,5.15-4,.08-2.44,1-4.85,1.35-7.3.6-4.41,1.63-8.87,1.41-13.26-.22-4.55-.68-4.56,4-4.39,2.49.1,3.51.48,1.78,3.11a6.74,6.74,0,0,0-.58,4.27c.86,6.05,2,12.07,2.86,18.12.34,2.32,1.18,3.56,3.74,3.63,2.81.07,3.8-1.46,4.24-3.83q2.52-13.63,5.07-27.28C-52.18,378.57-52.11,374.63-47.33,376.19Z" transform="translate(284.11 -271.27)"/><path class="cls-29" d="M-24.28,396.18c1.25,2.27,3.19,4.42,3.59,6.82a95.75,95.75,0,0,1,1.23,15.78c0,4.83-3.37,7.31-9.34,7.36-10.14.1-20.3.25-30.44,0-7.9-.23-15.79-1.18-23.69-1.62-2.09-.12-4.22.54-6.34.72-4.44.37-8.88.92-13.33.93q-47.65.12-95.32,0c-5.09,0-10.16-1-15.26-1.34a71.37,71.37,0,0,0-7.28.41c-7.93.35-15.87.8-23.81.95-8.48.17-17,.07-25.45,0-5.21,0-9.83-2.16-9.55-8.8h3c1.08,4.64,2.41,5.8,7,5.81,13.17,0,26.34,0,39.51.05,3.77,0,6.78-.88,8.76-4.4.46-.83,1.84-1.13,2.8-1.67l2.92.2a16.16,16.16,0,0,0,12.58,5.84c5.48,0,11,0,16.45,0q45.09,0,90.19,0c4.92,0,8.9-1.7,11.71-5.85h9c-.38,3.14,1.14,4.73,4.17,4.8,4.21.1,8.43-.07,12.65.05,9.42.27,18.83.78,28.25.87A10.35,10.35,0,0,0-24,421c2.69-2.28,2.26-11.51-.19-14.75l-.33-6.93Z" transform="translate(284.11 -271.27)"/><path class="cls-30" d="M-75.36,417.35h-9l-2-.41c0-1.43-.08-2.85,2-1.79l57.7-.11a37.21,37.21,0,0,0,1.18-4.82c.41-3.64.61-7.3.89-11l.33,6.93c-.06,2.15-.16,4.31-.18,6.47,0,4.51,0,4.52-4.6,4.54Z" transform="translate(284.11 -271.27)"/><path class="cls-31" d="M-118.27,362.17a27.26,27.26,0,0,0-5.22-.88,23.6,23.6,0,0,0-5,1.08h-51.7a63.35,63.35,0,0,0-6.39-.9,15.38,15.38,0,0,0-3.77.72l8-2.06,56.1,0,5.91.17h0Z" transform="translate(284.11 -271.27)"/><path class="cls-32" d="M-47.33,376.19c-4.78-1.56-4.85,2.38-6,5.1-.42-2.1,1.18-5.21-3.19-5.14-10.23.16-20.47.11-30.69,0-2.41,0-3.29,1-3.26,3.18-.84-2.3-2.16-3.85-4.92-3.18,2-.65,3.9-1.82,5.86-1.85q17.61-.27,35.24,0C-51.93,374.34-49.63,375.53-47.33,376.19Z" transform="translate(284.11 -271.27)"/><path class="cls-17" d="M-82.47,370.3l2.36,1.59-13.31,1.23c-1.7.05-3.74,1.95-4.88-.92,4.45-.48,4.51-.5,3.19-4.56-.94-2.9-2.08-5.73-3.13-8.59C-93.63,363.7-89.32,368.78-82.47,370.3Z" transform="translate(284.11 -271.27)"/><path class="cls-17" d="M-104.37,366.24a7.79,7.79,0,0,1,6.06,5.95Z" transform="translate(284.11 -271.27)"/><path class="cls-10" d="M-42.45,336.41c0,3.26,0,6.52-.07,9.78l-1.77,3.17c.24-1.62.58-3.23.67-4.86.11-1.8.72-4.24-.18-5.32-3.27-3.91-6.49-8.45-10.8-10.8-12.15-6.63-24.83-3.25-32.54,7.66-6.84,9.7-5.08,19.67.79,29.29-6.84-2.89-10.16-8.83-13.11-15.1-3.84-15.16.89-29.47,18.14-37l3.25-.91,1.74-.17h9l1.77.17,3.23.87h0l2,.88C-50.48,318.42-45.3,326.48-42.45,336.41Z" transform="translate(284.11 -271.27)"/><path class="cls-1" d="M-99.46,350.23c2.95,6.27,6.27,12.21,13.11,15.1l7.24,3.76-2.14,1-1.22.17c-6.85-1.52-11.16-6.6-15.77-11.25l-3.2-7.61Z" transform="translate(284.11 -271.27)"/><path class="cls-1" d="M-102.47,333.05l1.59,14.25-1.58.08V333.05Z" transform="translate(284.11 -271.27)"/><path class="cls-9" d="M-67.34,312.19h0Z" transform="translate(284.11 -271.27)"/><path class="cls-9" d="M-62.34,313.23l-3.23-.87Z" transform="translate(284.11 -271.27)"/><path class="cls-9" d="M-78.07,312.37l-3.25.91Z" transform="translate(284.11 -271.27)"/><path class="cls-9" d="M-60.34,314.12l-2-.88,1-.11Z" transform="translate(284.11 -271.27)"/><path class="cls-9" d="M-82.29,311.26a3.29,3.29,0,0,1,.15-.82l1.8,0Z" transform="translate(284.11 -271.27)"/><path class="cls-33" d="M-116.3,300.24l-.89-2.06Z" transform="translate(284.11 -271.27)"/><path class="cls-33" d="M-115.37,300.26c.1.68.19,1.35.29,2h-.47a2.06,2.06,0,0,1-.74-.08c0-.65,0-1.3,0-1.95A4.82,4.82,0,0,1-115.37,300.26Z" transform="translate(284.11 -271.27)"/><path class="cls-34" d="M-226.14,370.29a31.14,31.14,0,0,0,19.54-39.62c-.38-1.09-.57-2.23-.84-3.35,5.74,3.65,7.82,9.47,9.12,15.68a28.73,28.73,0,0,1-.47,14.49c-.42,1.38.31,3.11.51,4.68l-11.1,9.78-1,1.19.06-.06c-1.6-.1-3.2-.31-4.8-.3-4.51,0-9,.18-13.53.27l-.23-.14Z" transform="translate(284.11 -271.27)"/><path class="cls-35" d="M-193.19,325.06c2.94,6.44,5.95,12.83,11.53,17.53.74.62,1.57,1.13,2.36,1.7l10,6,6.05,2,.36.18.4,0c.15.25.3.49.46.73l-2.15,1-1.19.3-1.89-.1h0l-3.91-1.16.06.05-1.13-.78a.72.72,0,0,0-.76-.26l-2.17-1,.05,0-1.12-.82a.62.62,0,0,0-.69-.24l-1.29-.88h0l-1.89-1.2.06.06-1.1-1,0,.05-1.13-.91h0l-1-.94,0,0-1-.94-.05-.05-.94-.95c-4.29-5.12-8.26-10.41-9.87-17.07C-193.8,327.05-193.18,326.59-193.19,325.06Z" transform="translate(284.11 -271.27)"/><path class="cls-36" d="M-209.38,372l11.1-9.78,8.93-3,7.11,0q0,.45-.09.9l-8,2.06c-7,1.47-11.87,6.18-16.73,11-1.39,1.38-3.45,2.09-5.2,3.1l-2.06-2,4-1.24-.06.06Z" transform="translate(284.11 -271.27)"/><path class="cls-37" d="M-167.3,354.25l1.89.1,3.19.73,1.92.12.51,1.9-7,.06c-5.49,0-11,.06-16.48.09,4-.36,8-.74,12-1.06,1.15-.1,2.34.09,3.46-.11C-167.5,356-167.44,354.89-167.3,354.25Z" transform="translate(284.11 -271.27)"/><path class="cls-22" d="M-193.19,325.06c0,1.53-.61,2-2,1.19a.93.93,0,0,1-.29-.8c.07-.63.09-1.26.22-1.88a13.56,13.56,0,0,1,.51-1.52l1.38,1.21Z" transform="translate(284.11 -271.27)"/><path class="cls-34" d="M-208.24,326.2l-2.31-3.87Z" transform="translate(284.11 -271.27)"/><path class="cls-37" d="M-183.46,358.05l-4.82.19,5-1A4.52,4.52,0,0,1-183.46,358.05Z" transform="translate(284.11 -271.27)"/><path class="cls-37" d="M-171.22,353.08l3.91,1.16Z" transform="translate(284.11 -271.27)"/><path class="cls-37" d="M-175.22,351.1l2.17,1Z" transform="translate(284.11 -271.27)"/><path class="cls-37" d="M-180.15,348l1.89,1.2Z" transform="translate(284.11 -271.27)"/><path class="cls-37" d="M-185.31,343.32l.94.95Z" transform="translate(284.11 -271.27)"/><path class="cls-37" d="M-181.19,347.09l1.1,1Z" transform="translate(284.11 -271.27)"/><path class="cls-37" d="M-182.28,346.23l1.13.91Z" transform="translate(284.11 -271.27)"/><path class="cls-37" d="M-183.31,345.29l1,.94Z" transform="translate(284.11 -271.27)"/><path class="cls-37" d="M-184.32,344.32l1,.94Z" transform="translate(284.11 -271.27)"/><path class="cls-37" d="M-172.29,352.35l1.13.78Z" transform="translate(284.11 -271.27)"/><path class="cls-34" d="M-207.37,327.39l-.85-1.17Z" transform="translate(284.11 -271.27)"/><path class="cls-37" d="M-176.29,350.32l1.12.82Z" transform="translate(284.11 -271.27)"/><path class="cls-37" d="M-178.27,349.2l1.29.88Z" transform="translate(284.11 -271.27)"/><path class="cls-3" d="M-208.19,339.23c-3-3.17-5.81-6.62-9.12-9.45-10.42-8.91-30.43-4.67-36.31,8-3.33,7.15-4.54,13.94-1.29,21.31.57,1.28.41,2.89.59,4.35-5.13-2.78-7.73-7.55-9.91-12.64-.65-1.51-1.21-3.06-1.82-4.59V335.27c.86-2.11,1.64-4.26,2.58-6.34,3.14-6.91,8.4-11.67,15.21-14.85a34.41,34.41,0,0,1,23,.08c7.9,3.89,13.66,9.73,16.19,18.31A41.79,41.79,0,0,1-208.19,339.23Z" transform="translate(284.11 -271.27)"/><path class="cls-38" d="M-242.25,369.21l11.93-.08,3,1,1.2.18-2.74,2.62-2.34.26c-3.68-2.59-7.37-2.57-11.06,0l-14.87.21-2.24-.24c3.18-.27,6.36-.47,9.53-.83,1.83-.2,3.63-.64,5.45-1Z" transform="translate(284.11 -271.27)"/><path class="cls-39" d="M-227.34,370.11l-3-1a.93.93,0,0,1,.86,0Z" transform="translate(284.11 -271.27)"/><path class="cls-40" d="M-282.3,414.19c.49-6.26.35-12.64,1.61-18.74,1.79-8.65,7.48-14.54,15.68-17.92.93-.38,1.82-.81,2.73-1.22,5.5-.52,5.48-.51,6.19,5.2a5.63,5.63,0,0,0,.86,1.69l1,2c.23,2.45.3,4.93.73,7.35.95,5.33,2.22,10.6,3.08,15.94.39,2.41,1.15,4.15,3.73,4.45,2.88.33,4.35-1.34,4.7-4,.38-2.93.5-5.89.74-8.84l1.95-5.18c-.74,6.36-1.48,12.72-2.28,19.63l11.5-1.6,4.89-.76,1.95,1.9a13.73,13.73,0,0,1-3.62,1q-25.89.09-51.76,0A14.83,14.83,0,0,1-282.3,414.19Z" transform="translate(284.11 -271.27)"/><path class="cls-41" d="M-218.17,417.15c-1,.54-2.34.84-2.8,1.67-2,3.52-5,4.42-8.76,4.4-13.17-.09-26.34,0-39.51-.05-4.59,0-5.92-1.17-7-5.81h1c1.15,2.79,3.23,3.91,6.23,3.86q9.18-.13,18.36,0c2.82,0,4.85-.8,5.38-3.86l23-.41q.92-3.88,1.85-7.77l.32-2.82h1.67l.19,7.84Z" transform="translate(284.11 -271.27)"/><path class="cls-42" d="M-245.24,417.35c-.53,3.06-2.56,3.89-5.38,3.86q-9.18-.12-18.36,0c-3,.05-5.08-1.07-6.23-3.86Z" transform="translate(284.11 -271.27)"/><path class="cls-43" d="M-218.43,406.36h-1.67l-.54-1.28c-.19.15-.57.34-.55.45.22,1.22.5,2.44.77,3.65q-.93,3.88-1.85,7.77l-1-2.77-1.95-1.9,1-3.09,1-4v4.22l1.09-.16c-.36-1.35-.72-2.71-1.09-4.07l2-9a14.74,14.74,0,0,0-.06,2.39,9.08,9.08,0,0,0,.67,1.89l1.37-1.29c0,1.62,0,3.25.07,4.87l1,1.08,0,0Z" transform="translate(284.11 -271.27)"/><path class="cls-44" d="M-195.38,308.35c0,3.23.07,6.45,0,9.68,0,.39-.45.78-.69,1.17l-.29-1.9Z" transform="translate(284.11 -271.27)"/><path class="cls-45" d="M-255.23,383.2a5.63,5.63,0,0,1-.86-1.69c-.71-5.71-.69-5.72-6.19-5.2l3.06-2.05,2.07-.9,14.87-.21,11.06,0,2.34-.26.23.14,14.36,1.27,2.06,2c-2.75-.57-5-.11-5.91,3l-.38-.12c.73-3.37-1.68-2.91-3.62-2.92-8.61,0-17.22,0-25.83,0C-255.2,376.21-255.2,376.21-255.23,383.2Z" transform="translate(284.11 -271.27)"/><path class="cls-46" d="M-257.15,373.36l-2.07.9-3.1-.09c.1-.25.19-.5.28-.75l2.65-.3Z" transform="translate(284.11 -271.27)"/><path class="cls-46" d="M-242.25,369.21l-2.16,2.1h-.43l-.39-.16a3.48,3.48,0,0,0-.11-.85l2.11-1.15Z" transform="translate(284.11 -271.27)"/><path class="cls-38" d="M-245.34,370.31a3.48,3.48,0,0,1,.11.85l-2.24-.79Z" transform="translate(284.11 -271.27)"/><path class="cls-26" d="M-266.06,335.27v10.91l-2.17-.95,0-9Z" transform="translate(284.11 -271.27)"/><path class="cls-3" d="M-116.34,326.16a65.61,65.61,0,0,0,.85-8.23c-.07-4.54-.56-9.08-.87-13.63,0-.7,0-1.41.07-2.11a2.06,2.06,0,0,0,.74.08c2.51,7.87,1.63,15.74,0,23.61A2,2,0,0,1-116.34,326.16Z" transform="translate(284.11 -271.27)"/><path class="cls-37" d="M-162.53,352.36H-146c-.14.25-.3.49-.46.73l-2.76.17h-10l-2.75-.16C-162.23,352.85-162.38,352.61-162.53,352.36Z" transform="translate(284.11 -271.27)"/><path class="cls-23" d="M-162.07,353.09l2.75.16-1,1.95-1.92-.12-2-1Z" transform="translate(284.11 -271.27)"/><path class="cls-47" d="M-182.33,360.13q.06-.45.09-.9h55.9a8.62,8.62,0,0,0,.11.87Z" transform="translate(284.11 -271.27)"/><path class="cls-6" d="M-126.23,360.1a8.62,8.62,0,0,1-.11-.87l6,1Z" transform="translate(284.11 -271.27)"/><path class="cls-44" d="M-113.16,317.19V309.3l.39,0h.39c0,2.64,0,5.29,0,7.93A4.15,4.15,0,0,1-113.16,317.19Z" transform="translate(284.11 -271.27)"/><path class="cls-24" d="M-113.16,317.19a4.15,4.15,0,0,0,.79,0l-.43.61Z" transform="translate(284.11 -271.27)"/><path class="cls-24" d="M-112.38,309.28h-.39l-.39,0,.36-.63Z" transform="translate(284.11 -271.27)"/><path class="cls-48" d="M-79.11,369.09a.94.94,0,0,1,.85,0l-3,1Z" transform="translate(284.11 -271.27)"/><path class="cls-49" d="M-90.42,379.33c0-2.2.85-3.2,3.26-3.18,10.22.11,20.46.16,30.69,0,4.37-.07,2.77,3,3.19,5.14q-2.53,13.65-5.07,27.28c-.44,2.37-1.43,3.9-4.24,3.83-2.56-.07-3.4-1.31-3.74-3.63-.87-6-2-12.07-2.86-18.12a6.74,6.74,0,0,1,.58-4.27c1.73-2.63.71-3-1.78-3.11-4.71-.17-4.25-.16-4,4.39.22,4.39-.81,8.85-1.41,13.26-.34,2.45-1.27,4.86-1.35,7.3-.12,3.7-1.95,4.58-5.15,4a33.06,33.06,0,0,1-2-4.64c-1.43-5.43-2.7-10.91-4-16.36Q-89.38,385.27-90.42,379.33Zm12.13,6.81,0,0c-2.09-5.2-1.85-5.59,3.67-5.65,2.5,0,5-.07,7.5,0,3.79.12,4,.68,2.54,4.09-.83,1.91-1.78,4-1.77,6a55.89,55.89,0,0,0,1.25,9.85c.58,3.09,1.45,6.13,2.2,9.2l1.23,0c1.06-4.6,2.25-9.17,3.15-13.8,1-5,1.58-10.14,2.57-15.18.36-1.82-.12-2.53-1.83-2.53-9.5,0-19-.08-28.48,0a2.8,2.8,0,0,0-1.69,2.11c1.17,6.35,2.56,12.66,3.85,19,.59,2.92,1,5.88,1.68,8.78.15.64,1.07,1.11,1.64,1.65.41-.65,1.1-1.27,1.18-2,.26-2.14.28-4.31.39-6.47h0l.8-2.09a.66.66,0,0,0,.18-.81C-77.79,394.32-76,390.23-78.29,386.14Z" transform="translate(284.11 -271.27)"/><path class="cls-50" d="M-180.14,362.37h51.7l.1,1.81q-.48,3-.94,6a3.55,3.55,0,0,0-.09.92c-2.79,2.92-1.69,6.62-2,10v0a4.61,4.61,0,0,0-.9.11q0-5.56-.11-11.13l0,0c2.8-1.07,2.49-3.57,1.8-5.44-.33-.89-2.65-1.36-4.11-1.46-3.31-.2-6.65-.06-10-.06-9.82,0-19.65,0-29.47,0-4,0-4.92,1.13-3.7,4.64a9.26,9.26,0,0,0,1.72,2.31l0-.05c1,8.25,1.47,16.63,3.28,24.71a79.41,79.41,0,0,1,1.76,9.45c.09,1,1.4,1.89,2.15,2.82l3.64,1.06c1.07-2.26,2.15-2,3.24,0h15.69c.59-1,1.17-2.09,1.91-3.42l.25,3.45c4.29,1.72,6.43.63,6.9-3.79a63.33,63.33,0,0,0,0-7.29l-.07,0c.7-.79,1.9-1.51,2-2.39.51-3.64.69-7.33,1-11l-.15-.26.15-.24,2.19-2v2c-1.41,8.14-2.66,16.32-4.37,24.4-.31,1.43-2.54,3.45-3.94,3.5-9.14.31-18.3.2-27.44.13-2.89,0-3.79-2-4.25-4.56-1.5-8.46-3.25-16.86-4.78-25.31C-178.17,375.06-179.11,368.71-180.14,362.37Z" transform="translate(284.11 -271.27)"/><path class="cls-51" d="M-218.17,417.15l-.07-2.95,2.07.9q38.43.07,76.84.12c15.64,0,31.27-.09,46.9-.13l2-.86-.1,2.86-42.78.26h-81.94Z" transform="translate(284.11 -271.27)"/><path class="cls-52" d="M-223.24,405.22l-1,4c-3.92,2.52-5.53,2.42-5.9-.58-.53-4.22-.65-8.49-.94-12.74.67,3.56,1.27,7.14,2,10.68a15.33,15.33,0,0,0,1.47,3.13c.63-.9,1.64-1.73,1.83-2.71,1.84-9.54,3.56-19.11,5.31-28.67l1.91.84.38.12q-1.55,8.47-3.1,16.95l-2,9Z" transform="translate(284.11 -271.27)"/><path class="cls-53" d="M-88.36,391.21c1.34,5.45,2.61,10.93,4,16.36a33.06,33.06,0,0,0,2,4.64c-2,.07-2.26,1.33-2,2.94-2.13-1.06-2.09.36-2,1.79a1,1,0,0,1-.74,0l-1-7.77c-.05-2.73-.11-5.45-.16-8.18a53.57,53.57,0,0,0,.5-5.49A28.08,28.08,0,0,0-88.36,391.21Z" transform="translate(284.11 -271.27)"/><path class="cls-54" d="M-88.23,401c0,2.73.11,5.45.16,8.18l-1-3.66-1,.2c-.13,2.83-.25,5.65-.38,8.48l-2,.86c.05-5.9.06-11.79.19-17.69,0-.61.7-1.21,1.07-1.82l.87,1.51c-.38,2.1-.77,4.19-1.15,6.28l1.64.2.53-4.37Z" transform="translate(284.11 -271.27)"/><path class="cls-55" d="M-216.17,415.1l-2.07-.9c-.06-2.62-.13-5.23-.19-7.84l.23-1.25c0-2.65,0-5.29,0-7.94l1.67-1c.08,1.15.23,2.3.24,3.45C-216.24,404.8-216.21,410-216.17,415.1Z" transform="translate(284.11 -271.27)"/><path class="cls-56" d="M-218.21,397.17c0,2.65,0,5.29,0,7.94l0,0-1-1.08-.07-4.87Z" transform="translate(284.11 -271.27)"/><path class="cls-57" d="M-89.28,399.2l-.53,4.37-1.64-.2c.38-2.09.77-4.18,1.15-6.28Z" transform="translate(284.11 -271.27)"/><path class="cls-31" d="M-131.36,381.18c.3-3.42-.8-7.12,2-10Z" transform="translate(284.11 -271.27)"/><path class="cls-31" d="M-129.28,370.22q.47-3,.94-6Q-128.82,367.2-129.28,370.22Z" transform="translate(284.11 -271.27)"/><path class="cls-31" d="M-132.26,381.26a4.61,4.61,0,0,1,.9-.11c-.29.69-.59,1.38-.89,2.07v-2Z" transform="translate(284.11 -271.27)"/><path class="cls-58" d="M-75.36,417.35l46.39-.14c4.58,0,4.57,0,4.6-4.54,0-2.16.12-4.32.18-6.47,2.45,3.24,2.88,12.47.19,14.75a10.35,10.35,0,0,1-6.29,2.12c-9.42-.09-18.83-.6-28.25-.87-4.22-.12-8.44.05-12.65-.05C-74.22,422.08-75.74,420.49-75.36,417.35Z" transform="translate(284.11 -271.27)"/><path class="cls-41" d="M-87.08,417a1,1,0,0,0,.74,0l2,.41c-2.81,4.15-6.79,5.85-11.71,5.85q-45.1,0-90.19,0c-5.48,0-11,0-16.45,0a16.16,16.16,0,0,1-12.58-5.84h5c1.21,1.2,2.25,3.14,3.65,3.45a53.22,53.22,0,0,0,11.72,1.3c8.76-.08,17.5-.62,26.25-.9,2.63-.08,3.49-1.48,3.37-3.85h6c.52,3,2.52,3.92,5.33,3.85,3.11-.08,6.24-.08,9.35,0,2.81.07,4.81-.83,5.33-3.85h6c-.12,2.35.72,3.78,3.33,3.85,11.35.28,22.69.89,34,.74,2.77,0,6.93-.36,7.64-4.82Z" transform="translate(284.11 -271.27)"/><path class="cls-46" d="M-214.29,374.32l-14.36-1.27c4.51-.09,9-.23,13.53-.27,1.6,0,3.2.2,4.8.3Z" transform="translate(284.11 -271.27)"/><path class="cls-46" d="M-209.38,372l-1,1.19Z" transform="translate(284.11 -271.27)"/><path class="cls-20" d="M-164.22,354.05l2,1-3.19-.73Z" transform="translate(284.11 -271.27)"/><path class="cls-46" d="M-231.22,373.17l-11.06,0C-238.59,370.6-234.9,370.58-231.22,373.17Z" transform="translate(284.11 -271.27)"/><path class="cls-59" d="M-230.12,413l-11.5,1.6,2.28-19.63c-.41-3.36-.88-6.71-1.15-10.08,0-.45.84-1.29,1.42-1.42a17.31,17.31,0,0,1,3.46-.1c1.83,0,2.54.33,2,2.64a26,26,0,0,0-.28,8.71c.69,5.72,1.8,11.4,2.73,17.09l1,1.29Z" transform="translate(284.11 -271.27)"/><path class="cls-60" d="M-231.15,411.84c-.93-5.69-2-11.37-2.73-17.09a26,26,0,0,1,.28-8.71c.53-2.31-.18-2.64-2-2.64a17.31,17.31,0,0,0-3.46.1c-.58.13-1.46,1-1.42,1.42.27,3.37.74,6.72,1.15,10.08l-1.95,5.18a35,35,0,0,1-.75-5,39.2,39.2,0,0,1,.63-5.24c-1-2.07-2-4.15-3-6.19-.91-1.78-.56-3,1.5-3.09a115.59,115.59,0,0,1,11.92.17c.66,0,1.92,2.36,1.7,2.61-3.25,3.83-1.43,8.29-1.78,12.46.29,4.25.41,8.52.94,12.74.37,3,2,3.1,5.9.58l-1,3.09-4.89.76,0,.1Z" transform="translate(284.11 -271.27)"/><path class="cls-61" d="M-241.41,389.9a39.2,39.2,0,0,0-.63,5.24,35,35,0,0,0,.75,5c-.24,2.95-.36,5.91-.74,8.84-.35,2.61-1.82,4.28-4.7,4-2.58-.3-3.34-2-3.73-4.45-.86-5.34-2.13-10.61-3.08-15.94-.43-2.42-.5-4.9-.73-7.35.14-1.42.21-2.84.45-4.24a20,20,0,0,1,.81-2.67c1.85,10.56,3.47,21.17,6.86,31.42a4.18,4.18,0,0,0,1.24-2.37Q-243.16,398.64-241.41,389.9Z" transform="translate(284.11 -271.27)"/><path class="cls-62" d="M-253,378.32a20,20,0,0,0-.81,2.67c-.24,1.4-.31,2.82-.45,4.24l-1-2c0-7,0-7,7.26-7,8.61,0,17.22,0,25.83,0,1.94,0,4.35-.45,3.62,2.92l-1.91-.84Z" transform="translate(284.11 -271.27)"/><path class="cls-55" d="M-220.42,409.17c-.27-1.21-.55-2.43-.77-3.65,0-.11.36-.3.55-.45l.54,1.28Z" transform="translate(284.11 -271.27)"/><path class="cls-63" d="M-223.24,405.21l1.09,4.07-1.09.16v-4.22Z" transform="translate(284.11 -271.27)"/><path class="cls-55" d="M-219.19,404.06l1,1.08Z" transform="translate(284.11 -271.27)"/><path class="cls-64" d="M-79.18,401.3c-.11,2.16-.13,4.33-.39,6.47-.08.69-.77,1.31-1.18,2-.57-.54-1.49-1-1.64-1.65-.68-2.9-1.09-5.86-1.68-8.78-1.29-6.32-2.68-12.63-3.85-19a2.8,2.8,0,0,1,1.69-2.11c9.49-.13,19-.08,28.48,0,1.71,0,2.19.71,1.83,2.53-1,5-1.59,10.15-2.57,15.18-.9,4.63-2.09,9.2-3.15,13.8l-1.23,0c-.75-3.07-1.62-6.11-2.2-9.2a55.89,55.89,0,0,1-1.25-9.85c0-2,.94-4.09,1.77-6,1.49-3.41,1.25-4-2.54-4.09-2.5-.07-5,0-7.5,0-5.52.06-5.76.45-3.67,5.65-2.25-1.38-3.66-.22-3.81,1.86a114.56,114.56,0,0,0-.07,12.57C-82.13,400.86-80.21,401.07-79.18,401.3Z" transform="translate(284.11 -271.27)"/><path class="cls-65" d="M-79.18,401.3c-1-.23-2.95-.44-3-.71A114.56,114.56,0,0,1-82.07,388c.15-2.08,1.56-3.24,3.81-1.86l0,0q0,6.14,0,12.27a.66.66,0,0,1-.18.81l-.8,2.09Z" transform="translate(284.11 -271.27)"/><path class="cls-64" d="M-78.25,398.41q0-6.14,0-12.27C-76,390.23-77.79,394.32-78.25,398.41Z" transform="translate(284.11 -271.27)"/><path class="cls-64" d="M-79.23,401.31l.8-2.09Z" transform="translate(284.11 -271.27)"/><path class="cls-66" d="M-165.37,408.16-169,407.1c-1-5.29-2-10.59-3-15.88q-2.06-10.56-4.16-21.1l0,.05c-1.16-6.29-1.16-6.28,5.64-6.27q16.19,0,32.37,0c6.82,0,6.82,0,5.73,6.24l0,0-2.07,13.11-.15.24.15.26a5.07,5.07,0,0,1-.81.56c.12-2.63.09-5.28.4-7.89.34-2.81-.82-4-3.45-3.05s-3,3.08-3,5.62a60.51,60.51,0,0,1-.69,8.71c-.65,4.52.87,8.57,1.57,13.18l3.2-6.67-.2,2.93.07,0q-1.44,5.07-2.87,10.12c-.57-.28-1.59-.48-1.65-.84-.87-5.17-2.4-10.39-2.15-15.52.24-4.82,1.12-9.34-2.19-13.45-.26-.33-.12-1-.17-1.47.55-1.19,1-2.4,1.66-3.56,1.9-3.62,1.62-4.24-2.33-4.29-4.95-.07-9.89-.09-14.83,0-3.36.07-3.63.67-2.16,3.84.34.73.58,1.51.87,2.26-5-1.67-7.38-.47-7,4.43.58,6.82,1.91,13.58,3.14,20.33.11.57,1.83.85,2.8,1.26Z" transform="translate(284.11 -271.27)"/><path class="cls-59" d="M-146.44,408.14h-15.69c1.14-8.33,1.94-16.73,3.58-25,.7-3.5,1-6.37-1.35-9.17-1.63-2-1.16-2.93,1.39-2.92h8.45c2.57,0,3,1,1.38,2.93-2.34,2.8-2,5.67-1.35,9.17C-148.39,391.42-147.58,399.81-146.44,408.14Z" transform="translate(284.11 -271.27)"/><path class="cls-67" d="M-146.44,408.14c-1.14-8.33-1.95-16.72-3.59-24.95-.69-3.5-1-6.37,1.35-9.17,1.62-1.94,1.19-2.94-1.38-2.93h-8.45c-2.55,0-3,1-1.39,2.92,2.33,2.8,2.05,5.67,1.35,9.17-1.64,8.23-2.44,16.63-3.58,25-1.09-2-2.17-2.24-3.24,0l1.14-8,2.15-13,0-11.07-1.1-2c-.29-.75-.53-1.53-.87-2.26-1.47-3.17-1.2-3.77,2.16-3.84,4.94-.1,9.88-.08,14.83,0,4,.05,4.23.67,2.33,4.29-.61,1.16-1.11,2.37-1.66,3.56-.29,1.73-1,3.53-.78,5.2,1.2,9,2.63,18,4,27l-1.07,0-.25-3.45C-145.27,406.05-145.85,407.1-146.44,408.14Z" transform="translate(284.11 -271.27)"/><path class="cls-68" d="M-132.41,370.17c1.09-6.25,1.09-6.24-5.73-6.24q-16.19,0-32.37,0c-6.8,0-6.8,0-5.64,6.27a9.26,9.26,0,0,1-1.72-2.31c-1.22-3.51-.34-4.62,3.7-4.64,9.82,0,19.65,0,29.47,0,3.33,0,6.67-.14,10,.06,1.46.1,3.78.57,4.11,1.46C-129.92,366.6-129.61,369.1-132.41,370.17Z" transform="translate(284.11 -271.27)"/><path class="cls-68" d="M-176.2,370.12q2.08,10.54,4.16,21.1c1,5.29,2,10.59,3,15.88-.75-.93-2.06-1.82-2.15-2.82a79.41,79.41,0,0,0-1.76-9.45C-174.73,386.75-175.2,378.37-176.2,370.12Z" transform="translate(284.11 -271.27)"/><path class="cls-68" d="M-144.28,408.17l1.07,0,3-.93q1.44-5.06,2.87-10.12a63.33,63.33,0,0,1,0,7.29C-137.85,408.8-140,409.89-144.28,408.17Z" transform="translate(284.11 -271.27)"/><path class="cls-68" d="M-137.46,397.13c.07-1,.13-2,.2-2.93l2-9.9a5.07,5.07,0,0,0,.81-.56c-.31,3.67-.49,7.36-1,11C-135.56,395.62-136.76,396.34-137.46,397.13Z" transform="translate(284.11 -271.27)"/><path class="cls-68" d="M-134.44,383.24l2.07-13.11q.06,5.56.11,11.13v0Z" transform="translate(284.11 -271.27)"/><path class="cls-69" d="M-88.31,417.12c-.71,4.46-4.87,4.78-7.64,4.82-11.34.15-22.68-.46-34-.74-2.61-.07-3.45-1.5-3.33-3.85l42.78-.26c.62-1.29,1.24-2.57,2.22-4.62Z" transform="translate(284.11 -271.27)"/><path class="cls-69" d="M-165.28,417.35c.12,2.37-.74,3.77-3.37,3.85-8.75.28-17.49.82-26.25.9a53.22,53.22,0,0,1-11.72-1.3c-1.4-.31-2.44-2.25-3.65-3.45Z" transform="translate(284.11 -271.27)"/><path class="cls-69" d="M-139.29,417.35c-.52,3-2.52,3.92-5.33,3.85-3.11-.08-6.24-.08-9.35,0-2.81.07-4.81-.83-5.33-3.85Z" transform="translate(284.11 -271.27)"/><path class="cls-70" d="M-88.31,417.12v-4.65c-1,2-1.6,3.33-2.22,4.62,0-.95.06-1.91.1-2.86.13-2.83.25-5.65.38-8.48l1-.2,1,3.66,1,7.77Z" transform="translate(284.11 -271.27)"/><path class="cls-71" d="M-253,378.32l32.58,0c-1.75,9.56-3.47,19.13-5.31,28.67-.19,1-1.2,1.81-1.83,2.71a15.33,15.33,0,0,1-1.47-3.13c-.77-3.54-1.37-7.12-2-10.68.35-4.17-1.47-8.63,1.78-12.46.22-.25-1-2.57-1.7-2.61a115.59,115.59,0,0,0-11.92-.17c-2.06.06-2.41,1.31-1.5,3.09,1,2,2,4.12,3,6.19q-1.76,8.75-3.5,17.47a4.18,4.18,0,0,1-1.24,2.37C-249.54,399.49-251.16,388.88-253,378.32Z" transform="translate(284.11 -271.27)"/><path class="cls-40" d="M-231.15,411.84l1,1.29Z" transform="translate(284.11 -271.27)"/><path class="cls-72" d="M-162.08,387.24q-1.08,6.5-2.15,13c-1-.41-2.69-.69-2.8-1.26-1.23-6.75-2.56-13.51-3.14-20.33-.42-4.9,1.91-6.1,7-4.43l1.1,2c-3.63-1.07-6.74.22-6.49,3.27.44,5.5,1.67,10.94,2.56,16.41l.77-.29C-164.21,392.79-163.15,390-162.08,387.24Z" transform="translate(284.11 -271.27)"/><path class="cls-73" d="M-140.26,407.21l-3,.93c-1.36-9-2.79-18-4-27-.23-1.67.49-3.47.78-5.2,0,.5-.09,1.14.17,1.47,3.31,4.11,2.43,8.63,2.19,13.45-.25,5.13,1.28,10.35,2.15,15.52C-141.85,406.73-140.83,406.93-140.26,407.21Z" transform="translate(284.11 -271.27)"/></svg>