<svg id="Слой_1" data-name="Слой 1" xmlns="http://www.w3.org/2000/svg" viewBox="0 0 89.11 136.16"><defs><style>.cls-1{fill:#444a51;}.cls-2{fill:#252525;}.cls-3{fill:#424850;}.cls-4{fill:#4d95ed;}.cls-5{fill:#363d46;}.cls-6{fill:#d8d9d9;}.cls-7{fill:#333;}.cls-8{fill:#2f4156;}.cls-9{fill:#292b2e;}.cls-10{fill:#c3c4c4;}.cls-11{fill:#b4b4b4;}.cls-12{fill:#b4b5b5;}.cls-13{fill:#dedfdf;}.cls-14{fill:#bcbcbc;}.cls-15{fill:#bababa;}.cls-16{fill:#c4c4c4;}.cls-17{fill:#efefef;}</style></defs><title>adv-1</title><path class="cls-1" d="M-147.13,300c-.14-3.55,2.9-4.92,4.84-7.06h2a19,19,0,0,0,4.12.92q32.41.07,64.84,0c0,.29,0,.57,0,.86-21.13,0-42.26.23-63.38,0-9.17-.09-10.87,1.69-10.83,10.91.17,35.43,0,70.86,0,106.3-.28,0-.56,0-.83,0q0-53.36,0-106.72A34.51,34.51,0,0,0-147.13,300Z" transform="translate(147.29 -292.9)"/><path class="cls-1" d="M-71.29,294.69c0-.29,0-.57,0-.86s0-.62,0-.93h2l5.21,7.05-.39-.06a24.08,24.08,0,0,0-.75,4.23q0,53.88,0,107.76l-.84,0c0-1.82-.1-3.65-.1-5.48q0-51.62,0-103.25C-66.12,299.12-67,296-71.29,294.69Z" transform="translate(147.29 -292.9)"/><path class="cls-2" d="M-71.29,292.9c0,.31,0,.62,0,.93q-32.43,0-64.84,0a19,19,0,0,1-4.12-.92Z" transform="translate(147.29 -292.9)"/><path class="cls-2" d="M-147.13,300a34.51,34.51,0,0,1,.76,5.2q.08,53.37,0,106.72a7.12,7.12,0,0,1-.8,0c-.05-6.32-.15-12.65-.15-19q0-43.72,0-87.45C-147.28,303.62-147.18,301.79-147.13,300Z" transform="translate(147.29 -292.9)"/><path class="cls-3" d="M-147.13,411.87a7.12,7.12,0,0,0,.8,0c.27,0,.55,0,.83,0,1.25,4.29,4.41,5.18,8.47,5.17,21.91-.06,43.83,0,65.74.08,0,.29,0,.57,0,.86q-32.85,0-65.69,0a13.67,13.67,0,0,0-3.18.78l-2-.14-3-1.92Z" transform="translate(147.29 -292.9)"/><path class="cls-4" d="M-71.29,417.16c-21.91,0-43.83-.14-65.74-.08-4.06,0-7.22-.88-8.47-5.17,0-35.44.17-70.87,0-106.3,0-9.22,1.66-11,10.83-10.91,21.12.22,42.25,0,63.38,0,4.3,1.27,5.17,4.43,5.16,8.49q-.11,51.63,0,103.25c0,1.83.07,3.66.1,5.48A7.23,7.23,0,0,1-71.29,417.16Zm-63.88-113.22c-.06,29.94-.06,59.89-.22,89.83,0,3.13,1.35,3.43,3.89,3.42,17.14-.08,34.27,0,51.41-.05,3.74,0,3.81-.08,3.82-3.87q0-28.69,0-57.4c0-10.64-.09-21.29-.14-31.93a7.44,7.44,0,0,0-2.47-1q-26.91-.09-53.83,0A7.48,7.48,0,0,0-135.17,303.94Zm29.44,97a5.5,5.5,0,0,0-5.57,5.65,5.64,5.64,0,0,0,5.44,5.33,5.58,5.58,0,0,0,5.58-5.7A5.54,5.54,0,0,0-105.73,400.91Z" transform="translate(147.29 -292.9)"/><path class="cls-2" d="M-64.47,299.89l.33,2v3c-.06,1.16-.16,2.32-.16,3.47q0,49,0,98.05c0,1.82-.12,3.64-.18,5.46h-.76q0-53.88,0-107.76A24.08,24.08,0,0,1-64.47,299.89Z" transform="translate(147.29 -292.9)"/><path class="cls-5" d="M-65.22,411.88h.76l.19,1.07c-1.66,2.77-3.47,5.35-7.06,5.75V418c0-.29,0-.57,0-.86a7.23,7.23,0,0,0,5.23-5.25Z" transform="translate(147.29 -292.9)"/><path class="cls-6" d="M-64.13,304.9v-3c4.29,3,5.92,7.18,5.9,12.43-.1,33.32-.25,66.66.06,100,.1,11.44-5.3,13.95-14.57,14.45-10.8.57-21.66.13-32.49.13-7.17,0-14.33.1-21.5,0a55.2,55.2,0,0,1-9.32-1.06c-3.09-.6-6.11-5.42-6.11-9.17l2,.14-.15.26c.59,5.58,5.37,7.76,11.41,7.82q27.73.24,55.47,0a18.25,18.25,0,0,0,8.5-2c3.53-2,4.71-5.72,4.69-9.81,0-11.5,0-23,0-34.49q0-33,0-66C-60.29,310.82-60.48,307.17-64.13,304.9Z" transform="translate(147.29 -292.9)"/><path class="cls-2" d="M-71.33,418v.68l-26,.37h-40l-3-.06.15-.26A13.67,13.67,0,0,1-137,418Q-104.17,417.95-71.33,418Z" transform="translate(147.29 -292.9)"/><path class="cls-7" d="M-76.41,303.94c0,10.64.13,21.29.14,31.93q0,28.71,0,57.4c0,3.79-.08,3.86-3.82,3.87-17.14,0-34.27,0-51.41.05-2.54,0-3.91-.29-3.89-3.42.16-29.94.16-59.89.22-89.83l1.88.83-.14,10.16c-.06.82-.17,1.65-.17,2.47q0,37.07,0,74.12c0,.66.05,1.32,0,2-.1,1.67.65,2.46,2.34,2.34,1-.07,2-.11,3-.16l49.89-.08a16.78,16.78,0,0,0,.79-3.62q0-40.15,0-80.29c0-2.31-.4-4.62-.62-6.92Z" transform="translate(147.29 -292.9)"/><path class="cls-8" d="M-76.41,303.94l-1.86.84h-55l-1.88-.83a7.48,7.48,0,0,1,2.46-1q26.91-.09,53.83,0A7.44,7.44,0,0,1-76.41,303.94Z" transform="translate(147.29 -292.9)"/><path class="cls-9" d="M-105.73,400.91a5.54,5.54,0,0,1,5.45,5.28,5.58,5.58,0,0,1-5.58,5.7,5.64,5.64,0,0,1-5.44-5.33A5.5,5.5,0,0,1-105.73,400.91Zm.31,1.9c-2.57,0-3.82,1.15-3.93,3.27a3.34,3.34,0,0,0,3.56,3.81,3.32,3.32,0,0,0,3.56-3.8C-102.35,403.83-103.64,402.85-105.42,402.81Z" transform="translate(147.29 -292.9)"/><path class="cls-10" d="M-104.27,419.07h7c.93,4.21,1.48,4.78,5.36,4.82,6.78.06,13.57.1,20.35,0S-62,419.37-64.27,413l-.19-1.07c.06-1.82.18-3.64.18-5.46q0-49,0-98.05c0-1.15.1-2.31.16-3.47,3.65,2.27,3.84,5.92,3.84,9.65q0,33,0,66c0,11.5,0,23,0,34.49,0,4.09-1.16,7.83-4.69,9.81a18.25,18.25,0,0,1-8.5,2q-27.73.26-55.47,0c-6-.06-10.82-2.24-11.41-7.82l3,.06c1,3.69,3.76,4.78,7.16,4.81q10.23.08,20.46,0C-105.76,423.85-105.22,423.29-104.27,419.07Z" transform="translate(147.29 -292.9)"/><path class="cls-11" d="M-64.27,413c2.22,6.42-.66,10.82-7.33,10.93s-13.57.07-20.35,0c-3.88,0-4.43-.61-5.36-4.82l26-.37C-67.74,418.3-65.93,415.72-64.27,413Z" transform="translate(147.29 -292.9)"/><path class="cls-12" d="M-104.27,419.07c-1,4.22-1.49,4.78-5.42,4.82q-10.23.09-20.46,0c-3.4,0-6.18-1.12-7.16-4.81Z" transform="translate(147.29 -292.9)"/><path class="cls-13" d="M-78.4,395.61l-49.89.08c-2.34-1.05-2-3.14-2-5.12q0-33.26,0-66.49a19.18,19.18,0,0,1,.6-4.39c1.37-5.64,3.55-7.7,9.18-7.73,14-.07,28,.09,42,.17l0,3.85a19.31,19.31,0,0,0-4.3-1c-12-.08-24-.16-35.94,0-5.13.07-6.54,1.46-7.74,6.46a23.76,23.76,0,0,0-.73,5.35q-.08,31.46,0,62.9c0,1,0,2,0,3-.09,2.26,1.44,2.25,3,2.19l45.71-.11A6.35,6.35,0,0,1-78.4,395.61Z" transform="translate(147.29 -292.9)"/><path class="cls-14" d="M-78.5,312.13c-14-.08-28-.24-42-.17-5.63,0-7.81,2.09-9.18,7.73a19.18,19.18,0,0,0-.6,4.39q0,33.24,0,66.49c0,2-.34,4.07,2,5.12-1,.05-2,.09-3,.16-1.69.12-2.44-.67-2.34-2.34,0-.67,0-1.33,0-2q0-37.06,0-74.12c0-.82.11-1.65.17-2.47a7.5,7.5,0,0,0,1.63-1.06,14.75,14.75,0,0,1,12.83-5c3.45.24,6.94,0,10.41,0,8.92,0,17.85.05,26.78,0C-79.42,308.86-77.79,309.21-78.5,312.13Z" transform="translate(147.29 -292.9)"/><path class="cls-15" d="M-78.5,312.13c.71-2.92-.92-3.27-3.28-3.25-8.93.07-17.86,0-26.78,0-3.47,0-7,.2-10.41,0a14.75,14.75,0,0,0-12.83,5,7.5,7.5,0,0,1-1.63,1.06l.14-10.16h55c.22,2.3.62,4.61.62,6.92q.09,40.14,0,80.29a16.78,16.78,0,0,1-.79,3.62,6.35,6.35,0,0,0-.16-.85l0-75.79,0-3Z" transform="translate(147.29 -292.9)"/><path class="cls-16" d="M-105.42,402.81c1.78,0,3.07,1,3.19,3.28a3.32,3.32,0,0,1-3.56,3.8,3.34,3.34,0,0,1-3.56-3.81C-109.24,404-108,402.81-105.42,402.81Z" transform="translate(147.29 -292.9)"/><path class="cls-17" d="M-78.58,319a40.51,40.51,0,0,0-6.3-1c-10.65-.1-21.31-.06-32,0-5.32,0-7.39,2.06-7.43,7.54-.07,8.16,0,16.32,0,24.48q0,22.47,0,44.94c-1.58.06-3.11.07-3-2.19,0-1,0-2,0-3q0-31.44,0-62.9a23.76,23.76,0,0,1,.73-5.35c1.2-5,2.61-6.39,7.74-6.46,12-.17,24-.09,35.94,0a19.31,19.31,0,0,1,4.3,1Z" transform="translate(147.29 -292.9)"/></svg>