<svg id="Слой_1" data-name="Слой 1" xmlns="http://www.w3.org/2000/svg" viewBox="0 0 181.42 159.05"><defs><style>.cls-1{fill:#4d95ed;}.cls-2{fill:#4a5b6f;}.cls-3{fill:#f5f5f5;}.cls-4{fill:#707070;}.cls-5{fill:#f4f4f4;}.cls-6{fill:#e6e6e6;}.cls-7{fill:#7d7d7d;}.cls-8{fill:#cacaca;}.cls-9{fill:#e3e4e4;}.cls-10{fill:#4c6078;}.cls-11{fill:#757575;}.cls-12{fill:#7b7b7b;}.cls-13{fill:#4f6175;}.cls-14{fill:#e5e5e5;}.cls-15{fill:#7f7f7f;}.cls-16{fill:#e3e3e3;}.cls-17{fill:#515151;}.cls-18{fill:#545454;}.cls-19{fill:#656565;}.cls-20{fill:#474747;}.cls-21{fill:#5a5a5a;}.cls-22{fill:#e9e9e9;}.cls-23{fill:#dbdbdb;}.cls-24{fill:#dadada;}.cls-25{fill:#b4b4b4;}.cls-26{fill:#b3b4b4;}.cls-27{fill:#babbbb;}.cls-28{fill:#c5c6c6;}.cls-29{fill:#b7b8b8;}.cls-30{fill:#b4b5b4;}.cls-31{fill:#ccc;}.cls-32{fill:#d6d6d6;}.cls-33{fill:#f3f3f3;}.cls-34{fill:#cbcbcb;}.cls-35{fill:#555a61;}.cls-36{fill:#b4b5b5;}.cls-37{fill:#555758;}.cls-38{fill:#818181;}.cls-39{fill:#f2f2f2;}.cls-40{fill:#f1f1f1;}.cls-41{fill:#b7b7b7;}.cls-42{fill:#525150;}.cls-43{fill:#cdcece;}.cls-44{fill:#c1c2c2;}.cls-45{fill:#436081;}.cls-46{fill:#56616e;}.cls-47{fill:#6d6d6d;}.cls-48{fill:#696c70;}.cls-49{fill:#b9b9b9;}.cls-50{fill:#cdcdcd;}.cls-51{fill:#595d61;}.cls-52{fill:#eaeaea;}.cls-53{fill:#d0d0d0;}.cls-54{fill:#e7e7e7;}</style></defs><title>adv-3</title><path class="cls-1" d="M-62.65,287a.48.48,0,0,1-.13.58c.28.95.3,2.1.88,2.81,1.68,2.05,3.64,3.87,5.39,5.88,4.21,4.84,4.56,4.88,8.53-.4,2.88-3.82,6.84-4.69,11.13-3.78,4,.84,6.13,3.82,7,7.67.88,4-1.3,8.11-5.6,10.71-4.1,2.48-4.16,3.05-.89,6.6,3.14,3.39,6.24,6.82,9.51,10.4-3.51,3.27-6.82,6.29-10,9.41-3.86,3.75-3.82,3.78.34,6.87,3.28,2.43,5.36,5.55,4.63,9.78A11,11,0,0,1-40.24,362c-4.39.77-7.79-.9-10.43-5.11-2.4-3.82-3-3.93-6.31-.84-3.5,3.27-6.92,6.63-10.79,10.35l-12.29-13.44c6.69-2.66,10.78-6.42,10.46-13.28-.2-4.26-4.65-9.57-9-10.26-7.47-1.17-11.43,3.8-14.94,10.06-4.19-4.52-8.07-8.68-11.89-12.79,3.62-3.67,6.87-7,10.14-10.31,3.57-3.61,3.59-3.65-.57-6.42-3.36-2.22-5-5.36-4.62-9.3a9.73,9.73,0,0,1,6.75-8.5c5-1.89,8.77-.29,12.24,5.46,1.19,2,2.31,3.56,4.5,1.33C-73.16,295-69.42,291-65.65,287Z" transform="translate(197.61 -287.04)"/><path class="cls-2" d="M-65.65,287C-69.42,291-73.16,295-77,298.9c-2.19,2.23-3.31.64-4.5-1.33-3.47-5.75-7.21-7.35-12.24-5.46a9.73,9.73,0,0,0-6.75,8.5c-.42,3.94,1.26,7.08,4.62,9.3,4.16,2.77,4.14,2.81.57,6.42-3.27,3.31-6.52,6.64-10.14,10.31,3.82,4.11,7.7,8.27,11.89,12.79,3.51-6.26,7.47-11.23,14.94-10.06,4.36.69,8.81,6,9,10.26.32,6.86-3.77,10.62-10.46,13.28l12.29,13.44c3.87-3.72,7.29-7.08,10.79-10.35,3.29-3.09,3.91-3,6.31.84,2.64,4.21,6,5.88,10.43,5.11a11,11,0,0,0,8.32-8.38c.73-4.23-1.35-7.35-4.63-9.78-4.16-3.09-4.2-3.12-.34-6.87,3.22-3.12,6.53-6.14,10-9.41-3.27-3.58-6.37-7-9.51-10.4-3.27-3.55-3.21-4.12.89-6.6,4.3-2.6,6.48-6.67,5.6-10.71-.85-3.85-3-6.83-7-7.67-4.29-.91-8.25,0-11.13,3.78-4,5.28-4.32,5.24-8.53.4-1.75-2-3.71-3.83-5.39-5.88-.58-.71-.6-1.86-.88-2.81l9.33,10.19c4.66-3,8.11-6.12,12.15-7.59,4.72-1.71,8.53,1.41,11.73,4.79l1,2,.84,2.07,0,0,.1,1.93-.13,1.83-9,12.69,5.9,4.61,0,0,1,1.18,2,2,2,2.06a.61.61,0,0,0,.25.64l-.18,2.88-2,2-10.6,9.73,5.79,4.25,1.81,3.21,1,3.2v2.58l-.89,2.15c-2.72,5.28-7,8.07-13,8.06l-3.75-1.15-1.24-.85h0L-54,355.32c-3.59,3.44-6.64,6.7-10.05,9.5-1.47,1.2-3.7,1.47-5.58,2.16l-6-6c-1.18-1.39-2.35-2.8-3.55-4.16-3.39-3.82-3.14-4.43,1.22-6.85,2.05-1.13,3.56-3.22,5.31-4.88l1.08-2.86-1.17-6.16c-4.81-6.9-12.81-6.69-17.08.43-.92,1.54-1.94,3-2.92,4.51l-1.83-.17-7-6.9,0,0-1-1.16-3-2.93,0,.07-1.08-1.22c.32-1.61.17-3.56,1-4.77a55.08,55.08,0,0,1,5.8-6.05l.9-.91.07-.07,4.33-3.94-5.35-3.75-.11-.11-.81-1c-2.38-4.86-2.56-9.58,1.07-13.93,5.28-6.32,13.85-6,18.62.7.66.93,1.16,2,2.06,3.53L-67.65,287Z" transform="translate(197.61 -287.04)"/><path class="cls-3" d="M-105.48,329.86l3,2.93,1,1.16,0,0c-.11,5.45,5.4,13.65,10.56,14.68,2.08.42,4.65-.66,6.76-1.61,2.52-1.12,4.7-3,7.19-4.23,2.22-1.09,3.85-.2,4.41,2.31-1.75,1.66-3.26,3.75-5.31,4.88-4.36,2.42-4.61,3-1.22,6.85,1.2,1.36,2.37,2.77,3.55,4.16-2.05,3.28-.6,5.85,1.66,8.27,1.75,1.87,3.48,3.76,5.21,5.64h-14l.87-3.92c1-5.58-1-9.92-5.85-12.64a11,11,0,0,0-12.69.83c-5.3,4-5.47,9.48-3.43,15.63h-17.47V359.55c3.47-.18,6.8.36,9.57-.64,8.64-3.12,9.94-13.14,3-20.85.68-.72,1.69-1.33,2-2.17A57.57,57.57,0,0,0-105.48,329.86Z" transform="translate(197.61 -287.04)"/><path class="cls-4" d="M-108.7,338.06c7,7.71,5.65,17.73-3,20.85-2.77,1-6.1.46-9.57.64v15.23h17.47c-2-6.15-1.87-11.6,3.43-15.63a11,11,0,0,1,12.69-.83c4.84,2.72,6.85,7.06,5.85,12.64-.56-1.65-1.13-3.29-1.69-4.94-3.58-6.59-8-8.78-13.51-6.67-5.07,2-6.75,6.17-5.28,13.57.57,2.87-.71,4-3.4,4.07l-13.89.21c-.29,2.26-.59,4.52-.88,6.79l-.21,12a3.29,3.29,0,0,1-1,0l-8.16-1.48,6.42-1.37-.91-1.19q-.06-6.94-.13-13.89l.86-2.95-.06-1.08q.48-8.52,1-17.06a35,35,0,0,1,3.84.49c5.26,1.27,7.93.25,11.22-4.4,2.84-3.94,2.11-8-.49-11.44s-6.38-4.36-10.65-3a17,17,0,0,1-3.88.33c-.45-6.18-.91-12.35-1.41-19.1-2.18,0-4.29.09-6.39,0-3.77-.2-7.53-.52-11.29-.79l-.8-1.38.19-1.55a9.3,9.3,0,0,0-.33-10.32,9.68,9.68,0,0,0-12.26-3.67c-4.57,2-6.68,6.55-5.57,12,1,5,.67,5.45-4.22,5.57-1.83,0-3.68-.15-5.49,0-2.87.29-5.71.81-8.56,1.23l-.85-1.73c1.67-.46,3.33-1.25,5-1.33,4.13-.2,8.27-.06,13-.06-2-7.06-1.63-13.23,5.23-17a10.65,10.65,0,0,1,12.2.78c5.4,4,6.36,9.35,3.65,16.29,4.87,0,9.12-.21,13.33.1,2,.14,3.83,1.31,5.74,2v16.73l8.76-.63,0-.05,1.08.62Z" transform="translate(197.61 -287.04)"/><path class="cls-5" d="M-28.56,297.05l-1-2c7.87,1.5,13.56,10.46,11.42,18a6.25,6.25,0,0,1-.6,1.89c-4.16,5.75-3.62,10.85,1,16.35,2.72,3.22,1.67,8.84-1.6,11.83-3.83,3.51-5.07,6.78-2.11,11.63,3.73,6.08,1.15,13-3.85,17.93-4.68,4.61-12,6.8-18.61,3.24-3.46-1.88-6.38-2.75-9.86.48-4.07,3.77-4.51,4.26-2.44,9.64,1,2.61,1.72,5.33,2.57,8l-10-.54V390c.28-.39.86-.83.81-1.17-1.06-7,1.7-11.66,7.87-15.26,4.28-2.5,6.11-3.38,10.37-.91,6.35,3.69,12.21,3,17.72-2,4.42-4,5.43-10.15,2.31-16.34-2-4-2.05-7.11,1.44-10.58,4.62-4.6,5.12-8.51,2.36-12.81-1.22-1.9-3.18-3.32-4.8-5a.61.61,0,0,1-.25-.64,84.6,84.6,0,0,1,3.38-8.09c3.86-7.13,1.49-15.52-5.32-18.21l0,0Z" transform="translate(197.61 -287.04)"/><path class="cls-6" d="M-141.66,430c-3.74-3.11-7.68-2.59-9.59,1.62a20.49,20.49,0,0,0-1.35,6.69c-.33,4.32-3,7.34-7.37,7.69-2.14.17-4.3.05-6.45,0-7.91,0-11.11-3.16-11.22-11,1.34.9,3.17,1.5,3.94,2.75a10.52,10.52,0,0,0,11.36,5c4.81-1.11,6.47-3.08,6.61-9a9.76,9.76,0,0,1,4.48-8.37c3.37-2.32,7-1.48,10.5-.35Z" transform="translate(197.61 -287.04)"/><path class="cls-7" d="M-63.63,390v3.44l10,.54c8,3.09,9.79,14.48,3.17,20.26-3.81,3.32-8,3.41-13,1.86-.35,5.85-.69,11.5-1,17.15-.08-2.11-.09-4.22-.24-6.32-.24-3.64-.57-7.27-.87-10.91.82-2.92,2.67-1.91,4.64-1.41,4.1,1,7.81.39,10.4-3.4l.74-1.18.54-1c2.42-9.83-2.5-15-12.41-13a16.93,16.93,0,0,1-3.88-.14l.08.09c-.09-5.12-.26-10.25-.22-15.37,0-2.56-1-3.61-3.51-3.54-4.47.13-8.93.11-13.4.15a1.27,1.27,0,0,0-.86-.25l-1.1-1.11a1.32,1.32,0,0,0-.19-.85q.63-4.5,1.27-9c.56,1.65,1.13,3.29,1.69,4.94l-.87,3.92h14l4.94,2.34Q-63.71,383.63-63.63,390Z" transform="translate(197.61 -287.04)"/><path class="cls-8" d="M-140.75,425.07c-3.54-1.13-7.13-2-10.5.35a9.76,9.76,0,0,0-4.48,8.37c-.14,5.92-1.8,7.89-6.61,9a10.52,10.52,0,0,1-11.36-5c-.77-1.25-2.6-1.85-3.94-2.75a2.84,2.84,0,0,1,0-.77v-.46l5,.4c1.13,1.21,2,3,3.42,3.51a12.65,12.65,0,0,0,7,.75c1.14-.29,1.65-3.06,2.44-4.71l.15-2.65c3.18-8.1,9.05-11.85,17.77-11Z" transform="translate(197.61 -287.04)"/><path class="cls-9" d="M-112.62,435.22c1.33,8-1.17,10.76-9.78,10.82h-.49c-13.27,0-13.27,0-17.79-11.84h2.05a23.29,23.29,0,0,1,3.08,3.86c1.89,3.8,6.28,5.78,11.53,4.88,4.9-.85,6.92-2.95,7.41-7.73Z" transform="translate(197.61 -287.04)"/><path class="cls-10" d="M-177.65,434.26l-2.07-6.2V415.72l-11-.57-4-3c-.72-2.5-2-5-2-7.49-.11-6.89,5.38-11.24,12.22-10.16,1.6.25,3.21.38,4.82.57l1-.06.06,1.09h0l-1,.91-2,.07-2.18-.93c-.33,0-.67,0-1,0-3.91-.25-7.39.49-9.1,4.51-1.51,3.57-1.55,7.22,1,10.36s6,3.61,9.9,2.45,5.31,0,5.37,4.42c.07,4.6,0,9.21,0,14.87l15.95-1.67,1.17-.14,0,0-.11,2.12-17,.75Z" transform="translate(197.61 -287.04)"/><path class="cls-11" d="M-178.68,395l-1,.06-1-36.12c-12.07,2.09-17.66-2.59-16.82-13.84l1.76,6c3.74,6.24,6.46,7.59,12.18,6l1-.28h2.91l1.13,1.27V374h15.87c-.43.68-.83,1.95-1.28,2-3.63.16-7.28-.08-10.89.18-1.29.09-2.5,1.24-3.75,1.91Z" transform="translate(197.61 -287.04)"/><path class="cls-12" d="M-83.57,434.9c-2.73-.47-2.21-2.34-1.8-4.18a26.2,26.2,0,0,0,1-4.82c.17-6.15-3-9.73-8.65-9.88-5.78-.16-9.61,3.57-9.77,9.55,0,1.16.1,2.32.16,3.48l-1,1.07-.9-3.1,0-3q1.39-3.53,2.8-7.05c4.33-3.36,9-3.87,14.11-1.94,6.23,4.71,6.86,10.83,4,17.89l15.23.91Z" transform="translate(197.61 -287.04)"/><path class="cls-3" d="M-112.72,336.16l-8.76.63V320.06c.87,1.12,1.51,2.71,2.65,3.27C-113.25,326-112.31,330.72-112.72,336.16Z" transform="translate(197.61 -287.04)"/><path class="cls-13" d="M-160.52,430.9l-1.17.14c-2.85-3.9-2-7.87,0-11.72a12.35,12.35,0,0,1,16.77-4.91c6,3.52,8.06,11.08,4.56,16.65l-1.18,0-.1-1,.91-4.93-1.16-4.95c-2.24-4.91-6.5-5.73-11.15-5.11a8.56,8.56,0,0,0-7.84,7.71C-161.28,425.38-160.68,428.17-160.52,430.9Z" transform="translate(197.61 -287.04)"/><path class="cls-14" d="M-179.73,423.08v5c-10.83-1.87-14.81-6.11-15-15.94l4,3C-189,420.47-185.67,423.6-179.73,423.08Z" transform="translate(197.61 -287.04)"/><path class="cls-15" d="M-179.61,319.29l.85,1.73c0,4.77.08,9.54.17,14.31.06,3-1.14,4.45-4.21,3.42-5.5-1.84-9.62-.16-12.6,4.68l-1.12-1.35c3.65-5.86,7.09-7.06,15.9-5.24,0-4.38-.09-8.67,0-12.94A25.93,25.93,0,0,1-179.61,319.29Z" transform="translate(197.61 -287.04)"/><path class="cls-16" d="M-99.74,309.22l5.35,3.75-4.33,3.94Z" transform="translate(197.61 -287.04)"/><path class="cls-17" d="M-141.56,431l1.18,0c.51.56,1,1.61,1.53,1.6,4.84-.08,9.67-.33,14.5-.53l.65,1.73-11,.34h-6Z" transform="translate(197.61 -287.04)"/><path class="cls-18" d="M-112.62,435.22h-7l-1-.32,2.15-1,14.86-.81.83-1,1.17,0c.37,2.58-1.29,3-3.25,3Z" transform="translate(197.61 -287.04)"/><path class="cls-19" d="M-65.61,416.05c.3,3.64.63,7.27.87,10.91.15,2.1.16,4.21.24,6.32l-1.26,1.47-1.13-.87a26.17,26.17,0,0,0,1-4.62C-65.67,424.86-65.68,420.45-65.61,416.05Z" transform="translate(197.61 -287.04)"/><path class="cls-20" d="M-66.89,433.88l1.13.87-17.81.15,15.1-1Z" transform="translate(197.61 -287.04)"/><path class="cls-15" d="M-195.77,351.05l-1.76-6,.77-2.23,1.16,1.19Z" transform="translate(197.61 -287.04)"/><path class="cls-21" d="M-101.59,432l-1.17,0-.94-1.94,1-1.07Z" transform="translate(197.61 -287.04)"/><path class="cls-11" d="M-195.6,344l-1.16-1.19a.84.84,0,0,1,.24-.77l1.12,1.35A.61.61,0,0,1-195.6,344Z" transform="translate(197.61 -287.04)"/><path class="cls-16" d="M-100.66,308.09l.81,1Z" transform="translate(197.61 -287.04)"/><path class="cls-3" d="M-111.68,336.73l-1.08-.62Z" transform="translate(197.61 -287.04)"/><path class="cls-3" d="M-106.53,328.71l1.08,1.22Z" transform="translate(197.61 -287.04)"/><path class="cls-16" d="M-98.79,317l-.9.91Z" transform="translate(197.61 -287.04)"/><path class="cls-22" d="M-63.63,390q-.09-6.4-.16-12.81c2.32-1.47,4.9-2.67,6.92-4.49,4.56-4.09,9.07-4.79,14.27-1.23,3.07,2.11,6.5,2.13,9.94.56,9.34-4.25,10.65-13.18,3.2-22.11l-.22-1.91a38.86,38.86,0,0,1,3.06-4.48c5.3-5.85,5.51-8.55.89-14.64l.18-2.88c1.62,1.64,3.58,3.06,4.8,5,2.76,4.3,2.26,8.21-2.36,12.81-3.49,3.47-3.46,6.57-1.44,10.58,3.12,6.19,2.11,12.33-2.31,16.34-5.51,5-11.37,5.65-17.72,2-4.26-2.47-6.09-1.59-10.37.91-6.17,3.6-8.93,8.25-7.87,15.26C-62.77,389.2-63.35,389.64-63.63,390Z" transform="translate(197.61 -287.04)"/><path class="cls-23" d="M-29.46,350c7.45,8.93,6.14,17.86-3.2,22.11-3.44,1.57-6.87,1.55-9.94-.56-5.2-3.56-9.71-2.86-14.27,1.23-2,1.82-4.6,3-6.92,4.49l-4.94-2.34c-1.73-1.88-3.46-3.77-5.21-5.64-2.26-2.42-3.71-5-1.66-8.27l6,6,0,1c3.77,6.12,8,6.81,13.31,2.19s6.44-4.81,12.42-1.3,10,3,14.3-1.41c4.05-4.23,4-7.52-.18-13.65v-2.58Z" transform="translate(197.61 -287.04)"/><path class="cls-8" d="M-29.78,353.85c4.19,6.13,4.23,9.42.18,13.65-4.26,4.43-8.45,4.85-14.3,1.41s-7-3.4-12.42,1.3-9.54,3.93-13.31-2.19c1.43.29,3.14.17,4.22.94,2.59,1.86,4.65.79,6.81-.58l9.93-6.33h0l1.24.85,3.75,1.15c1.9,3.63,4.78,4.87,8.94,3.86,3.58-.86,5.13-3.7,5.65-6.82.26-1.57-1-3.39-1.6-5.1Z" transform="translate(197.61 -287.04)"/><path class="cls-24" d="M-72.62,345.08c-.56-2.51-2.19-3.4-4.41-2.31-2.49,1.23-4.67,3.11-7.19,4.23-2.11.95-4.68,2-6.76,1.61-5.16-1-10.67-9.23-10.56-14.68l7,6.9c1.71,4.79,5.33,5.91,9.51,3.11a46.82,46.82,0,0,1,7.66-4.42c2.58-1.09,4.92-.44,5.83,2.7Z" transform="translate(197.61 -287.04)"/><path class="cls-25" d="M-48.67,362.05l-9.93,6.33c-2.16,1.37-4.22,2.44-6.81.58-1.08-.77-2.79-.65-4.22-.94l0-1c1.88-.69,4.11-1,5.58-2.16,3.41-2.8,6.46-6.06,10.05-9.5Z" transform="translate(197.61 -287.04)"/><path class="cls-26" d="M-92.71,341c1-1.5,2-3,2.92-4.51,4.27-7.12,12.27-7.33,17.08-.43-4.77-.27-9.14.68-12.69,4.16C-87.62,342.4-90.14,341.92-92.71,341Z" transform="translate(197.61 -287.04)"/><path class="cls-27" d="M-30.83,320.16l-5.9-4.61,9-12.69C-24.67,309.35-25.95,315.07-30.83,320.16Z" transform="translate(197.61 -287.04)"/><path class="cls-28" d="M-92.71,341c2.57.92,5.09,1.4,7.31-.78,3.55-3.48,7.92-4.43,12.69-4.16l1.17,6.16c-.91-3.14-3.25-3.79-5.83-2.7A46.82,46.82,0,0,0-85,343.94c-4.18,2.8-7.8,1.68-9.51-3.11Z" transform="translate(197.61 -287.04)"/><path class="cls-29" d="M-30.67,356c.58,1.71,1.86,3.53,1.6,5.1-.52,3.12-2.07,6-5.65,6.82-4.16,1-7-.23-8.94-3.86C-37.65,364.07-33.39,361.28-30.67,356Z" transform="translate(197.61 -287.04)"/><path class="cls-30" d="M-32.54,344.86l-5.79-4.25,10.6-9.73c2.08,4.69.94,8.53-3,11.73A15.08,15.08,0,0,0-32.54,344.86Z" transform="translate(197.61 -287.04)"/><path class="cls-31" d="M-32.54,344.86a15.08,15.08,0,0,1,1.85-2.25c3.9-3.2,5-7,3-11.73l2-2c4.62,6.09,4.41,8.79-.89,14.64A38.86,38.86,0,0,0-29.68,348l-1.05,0Z" transform="translate(197.61 -287.04)"/><path class="cls-32" d="M-30.83,320.16c4.88-5.09,6.16-10.81,3.06-17.3l.13-1.83c5.7,4.86,6.42,9.76,2.58,16.1a50.83,50.83,0,0,0-2.74,6.21l-2-2-1-1.18Z" transform="translate(197.61 -287.04)"/><path class="cls-22" d="M-27.8,323.34a50.83,50.83,0,0,1,2.74-6.21c3.84-6.34,3.12-11.24-2.58-16.1l-.1-1.93c6.81,2.69,9.18,11.08,5.32,18.21a84.6,84.6,0,0,0-3.38,8.09Z" transform="translate(197.61 -287.04)"/><path class="cls-8" d="M-30.73,348.07l1.05,0,.22,1.91-.31,1.32Z" transform="translate(197.61 -287.04)"/><path class="cls-22" d="M-28.56,297.05l.84,2.07Z" transform="translate(197.61 -287.04)"/><path class="cls-24" d="M-101.52,334l-1-1.16Z" transform="translate(197.61 -287.04)"/><path class="cls-27" d="M-30.78,320.14l1,1.18Z" transform="translate(197.61 -287.04)"/><path class="cls-25" d="M-47.41,362.91l-1.24-.85Z" transform="translate(197.61 -287.04)"/><path class="cls-1" d="M-124.35,432.13c-4.83.2-9.66.45-14.5.53-.5,0-1-1-1.53-1.6,3.5-5.57,1.43-13.13-4.56-16.65a12.35,12.35,0,0,0-16.77,4.91c-2,3.85-2.83,7.82,0,11.72l-15.95,1.67c0-5.66,0-10.27,0-14.87-.06-4.45-1.33-5.62-5.37-4.42s-7.31.76-9.9-2.45-2.5-6.79-1-10.36c1.71-4,5.19-4.76,9.1-4.51.33,0,.67,0,1,0l2.18.93,2-.07,1-.91h0a27.84,27.84,0,0,0,.94-4.62c.16-4.46.11-8.92.15-13.37,4.62,0,9.25,0,13.87-.11,4-.12,5.34-1.86,4.54-5.63-1.45-6.88-.48-9.09,5.75-13.08,9,.06,12.84,4.6,11,12.88-.36,4.66.4,5.66,4.74,5.77s8.81.1,13.21.14q.06,6.94.13,13.89c-1.64.16-3.3.2-4.91.51-6.71,1.29-10.62,6.11-10.55,12.88s3.39,10.59,10.14,11.8l5.29,1.54Z" transform="translate(197.61 -287.04)"/><path class="cls-3" d="M-195.6,344a.61.61,0,0,0,.2-.61c3-4.84,7.1-6.52,12.6-4.68,3.07,1,4.27-.42,4.21-3.42-.09-4.77-.12-9.54-.17-14.31,2.85-.42,5.69-.94,8.56-1.23,1.81-.19,3.66,0,5.49,0,4.89-.12,5.24-.59,4.22-5.57-1.11-5.49,1-10.07,5.57-12a9.68,9.68,0,0,1,12.26,3.67,9.3,9.3,0,0,1,.33,10.32c-6.51-.79-7.18-.4-8.48,6.14-.82,4.2-1.78,8.17-6.57,9.52-1.42.4-2.93.47-4.37.8-7.46,1.72-7.52,1.8-7.9,9.35-.29,5.72-2.82,8.43-8.36,9.13a18.1,18.1,0,0,0-4.31,1.05c-2.58,1-3.21,2.7-1.27,4.95-5.72,1.57-8.44.22-12.18-6Z" transform="translate(197.61 -287.04)"/><path class="cls-33" d="M-107.61,353.05c-1.46-.67-2.86-1.7-4.39-1.94-7.22-1.18-8.52-2.41-9.76-9.84a11.67,11.67,0,0,0-.87-2.3,17,17,0,0,0,3.88-.33c4.27-1.39,8.06-.45,10.65,3S-104.77,349.11-107.61,353.05Z" transform="translate(197.61 -287.04)"/><path class="cls-6" d="M-119.59,377.2c6.58,4.15,7.46,9.74,6.21,17.25-1.47,8.91-1.48,10.49-9.76,13.22a7.42,7.42,0,0,0-5.49,6.25l-3-.85c.71-4.52,3.81-7,7.75-8.31,5.62-1.85,8-5.42,7.3-11.27a30.71,30.71,0,0,1,0-4.5c0-2.7-1.12-4.44-3.84-5C-120.18,381.72-119.88,379.46-119.59,377.2Z" transform="translate(197.61 -287.04)"/><path class="cls-34" d="M-120.47,384c2.72.56,3.89,2.3,3.84,5a30.71,30.71,0,0,0,0,4.5c.73,5.85-1.68,9.42-7.3,11.27-3.94,1.31-7,3.79-7.75,8.31l-1,.16c-1-1.39-2-2.79-3-4.19,3.12-2.55,6-5.66,9.46-7.46,2.7-1.39,4.56-2.88,5.53-5.62Z" transform="translate(197.61 -287.04)"/><path class="cls-35" d="M-135.67,409l3,4.19,6.43,2.43-3.39,1.47c-6.75-1.21-10.06-5.07-10.14-11.8s3.84-11.59,10.55-12.88c1.61-.31,3.27-.35,4.91-.51l.91,1.19-6.42,1.37,8.16,1.48c-1.81,0-3.61.06-5.42.07C-134.52,396.07-138.35,401.86-135.67,409Z" transform="translate(197.61 -287.04)"/><path class="cls-36" d="M-135.67,409c-2.68-7.18,1.15-13,8.58-13,1.81,0,3.61-.05,5.42-.07a3.29,3.29,0,0,0,1,0c-1,2.74-2.83,4.23-5.53,5.62C-129.71,403.38-132.55,406.49-135.67,409Z" transform="translate(197.61 -287.04)"/><path class="cls-37" d="M-124.45,378.05c-4.4,0-8.81,0-13.21-.14s-5.1-1.11-4.74-5.77l2.81,3.88,16-.92Z" transform="translate(197.61 -287.04)"/><path class="cls-38" d="M-123.59,375.1l-16,.92,0-12a2,2,0,0,1,.81.14l.24,1.92v7.9h7.93l7,.08Z" transform="translate(197.61 -287.04)"/><path class="cls-3" d="M-141.72,319.06l-.8-1.38Z" transform="translate(197.61 -287.04)"/><path class="cls-39" d="M-65.5,396c-.62-2.09-1.24-4.18-1.84-6.22-3.66-.74-7.68-.9-11.12-2.41-4.11-1.8-3.81-6.3-4.17-10.13,4.47,0,8.93,0,13.4-.15,2.55-.07,3.53,1,3.51,3.54C-65.76,385.74-65.59,390.87-65.5,396Z" transform="translate(197.61 -287.04)"/><path class="cls-40" d="M-49.29,409.09c-2.69-.62-5.38-1.27-8.08-1.84-3.79-.81-6.05-2.82-6.37-6.95-.11-1.51-1.2-2.94-1.84-4.4a16.93,16.93,0,0,0,3.88.14C-51.79,394.13-46.87,399.26-49.29,409.09Z" transform="translate(197.61 -287.04)"/><path class="cls-40" d="M-50.57,411.24l.74-1.18Z" transform="translate(197.61 -287.04)"/><path class="cls-5" d="M-83.49,377l-1.1-1.11Z" transform="translate(197.61 -287.04)"/><path class="cls-25" d="M-160.52,430.9c-.16-2.73-.76-5.52-.38-8.18a8.56,8.56,0,0,1,7.84-7.71c4.65-.62,8.91.2,11.15,5.11-8.72-.87-14.59,2.88-17.77,11-.29-.07-.59-.12-.88-.17Z" transform="translate(197.61 -287.04)"/><path class="cls-41" d="M-159.83,433.75c-.79,1.65-1.3,4.42-2.44,4.71a12.65,12.65,0,0,1-7-.75c-1.38-.49-2.29-2.3-3.42-3.51l12-.47.43,0Z" transform="translate(197.61 -287.04)"/><path class="cls-42" d="M-160.68,433.73l-12,.47-5-.4,17-.75C-160.67,433.28-160.68,433.5-160.68,433.73Z" transform="translate(197.61 -287.04)"/><path class="cls-13" d="M-160.68,433.73c0-.23,0-.45,0-.68l.11-2.12c.29.05.59.1.88.17l-.15,2.65-.42,0Z" transform="translate(197.61 -287.04)"/><path class="cls-43" d="M-119.61,435.21h3c-.49,4.78-2.51,6.88-7.41,7.73-5.25.9-9.64-1.08-11.53-4.88a23.29,23.29,0,0,0-3.08-3.86h4c1,1.09,1.91,2.24,3,3.27C-127.39,441.71-122.5,440.78-119.61,435.21Z" transform="translate(197.61 -287.04)"/><path class="cls-44" d="M-179.73,423.08c-5.94.52-9.23-2.61-11-7.93l11,.57Z" transform="translate(197.61 -287.04)"/><path class="cls-45" d="M-177.53,378.08c0,4.45,0,8.91-.15,13.37a27.84,27.84,0,0,1-.94,4.62l-.06-1.09.06-16.93Z" transform="translate(197.61 -287.04)"/><path class="cls-45" d="M-181.64,397l-2.18-.93Z" transform="translate(197.61 -287.04)"/><path class="cls-45" d="M-178.61,396.06l-1,.91Z" transform="translate(197.61 -287.04)"/><path class="cls-3" d="M-178.57,358.05a9,9,0,0,0,4.5,5.19c4.26,2.23,4.66,6.45,4.43,10.75h-8.93Z" transform="translate(197.61 -287.04)"/><path class="cls-46" d="M-177.53,378.08l-1.09,0c1.25-.67,2.46-1.82,3.75-1.91,3.61-.26,7.26,0,10.89-.18.45,0,.85-1.29,1.28-2l0,0c.69-1.36,1.93-2.7,2-4.07a52.2,52.2,0,0,0-.85-7.84l.13-1,5.83-4,2.28,2.17c-6.23,4-7.2,6.2-5.75,13.08.8,3.77-.51,5.51-4.54,5.63C-168.28,378.11-172.91,378.05-177.53,378.08Z" transform="translate(197.61 -287.04)"/><path class="cls-3" d="M-182.61,356.79h0Z" transform="translate(197.61 -287.04)"/><path class="cls-47" d="M-104.6,427l0-3Z" transform="translate(197.61 -287.04)"/><path class="cls-48" d="M-120.8,414.35l.31,5.66c0,1.34,0,2.68,0,4,.51,3.32-2,7.29,2.08,9.86l-2.15,1-3.1-1-.65-1.73V418.67l-5.29-1.54,3.39-1.47-6.43-2.43,1-.16,3,.85Z" transform="translate(197.61 -287.04)"/><path class="cls-49" d="M-123.7,433.86l3.1,1,1,.32c-2.89,5.57-7.78,6.5-12.08,2.26-1.05-1-2-2.18-3-3.27Z" transform="translate(197.61 -287.04)"/><path class="cls-50" d="M-118.45,433.89c-4.12-2.57-1.57-6.54-2.08-9.86,1.29,1.94,3.42,3.76,3.7,5.84.42,3.2,2,3.31,4.3,3l8.94.24Z" transform="translate(197.61 -287.04)"/><path class="cls-51" d="M-153.37,359.26l-2.28-2.17c7.47-2.36,12.53-.19,16,6.88q0,6,0,12l-2.81-3.88C-140.53,363.86-144.4,359.32-153.37,359.26Z" transform="translate(197.61 -287.04)"/><path class="cls-52" d="M-130.63,373.94h-4q-2-3.94-3.95-7.9l-.24-1.92C-133.67,365.39-132.09,369.61-130.63,373.94Z" transform="translate(197.61 -287.04)"/><path class="cls-12" d="M-161.61,362.1a52.2,52.2,0,0,1,.85,7.84c0,1.37-1.28,2.71-2,4.07C-164.17,369.87-164.5,365.83-161.61,362.1Z" transform="translate(197.61 -287.04)"/><path class="cls-53" d="M-138.56,366q2,4,3.95,7.9h-3.95Z" transform="translate(197.61 -287.04)"/><path class="cls-54" d="M-112.53,432.84c-2.34.34-3.88.23-4.3-3-.28-2.08-2.41-3.9-3.7-5.84,0-1.34,0-2.68,0-4,4.45,1.08,7.43,4.23,7.82,8.35C-112.54,429.85-112.57,431.35-112.53,432.84Z" transform="translate(197.61 -287.04)"/></svg>