<?xml version="1.0" standalone="no"?>
<!DOCTYPE svg PUBLIC "-//W3C//DTD SVG 20010904//EN"
 "http://www.w3.org/TR/2001/REC-SVG-20010904/DTD/svg10.dtd">
<svg version="1.0" xmlns="http://www.w3.org/2000/svg"
 width="30.000000pt" height="20.000000pt" viewBox="0 0 30.000000 20.000000"
 preserveAspectRatio="xMidYMid meet">

<g transform="translate(0.000000,20.000000) scale(0.100000,-0.100000)"
fill="#000000" stroke="none">
<path d="M94 175 c-92 -48 -117 -103 -69 -150 21 -22 33 -25 94 -25 69 0 70 1
124 48 l55 47 -49 3 c-46 3 -49 4 -43 27 4 18 -1 31 -20 49 -31 32 -32 32 -92
1z m84 -7 c20 -20 14 -45 -15 -68 l-27 -21 -8 23 c-5 13 -16 29 -25 36 -16 11
-15 13 3 27 23 18 56 19 72 3z m-68 -58 c14 -27 4 -57 -22 -66 -25 -8 -51 16
-42 39 8 21 34 22 34 2 0 -8 -8 -15 -17 -15 -13 0 -14 -3 -5 -12 8 -8 15 -8
27 2 20 17 19 37 -2 49 -24 13 -53 -4 -53 -32 0 -54 49 -62 105 -17 31 24 47
30 88 30 l50 0 -39 -35 c-38 -34 -41 -35 -119 -32 -74 2 -80 4 -94 28 -13 24
-13 29 2 53 22 33 71 36 87 6z"/>
</g>
</svg>
