<svg id="Слой_1" data-name="Слой 1" xmlns="http://www.w3.org/2000/svg" viewBox="0 0 169 169"><defs><style>.cls-1{fill:#eaeaea;}.cls-2{fill:#1382be;}.cls-3{fill:#459ccc;}.cls-4{fill:#77b6d9;}.cls-5{fill:#b3d6ea;}.cls-6{fill:#6eb1d7;}.cls-7{fill:#98c8e2;}.cls-8{fill:#d2e7f2;}.cls-9{fill:#fdcba6;}.cls-10{fill:#2f9b27;}.cls-11{fill:#fea479;}.cls-12{fill:#e1e1e1;}.cls-13{fill:#fb9d79;}.cls-14{fill:#404040;}.cls-15{fill:#f69679;}.cls-16{fill:#424242;}.cls-17{fill:#3e3e3e;}.cls-18{fill:#444;}.cls-19{fill:#0a79bb;}.cls-20{fill:#faf0e7;}.cls-21{fill:#fba785;}.cls-22{fill:#f39f81;}.cls-23{fill:#fb9d7a;}.cls-24{fill:#fba886;}.cls-25{fill:#f3916b;}.cls-26{fill:#fbd6bf;}.cls-27{fill:#f3906a;}.cls-28{fill:#fb9a76;}.cls-29{fill:#f9ae8b;}.cls-30{fill:#fef6e9;}.cls-31{fill:#f0d2c6;}.cls-32{fill:#eee9e4;}.cls-33{fill:#f8efe6;}.cls-34{fill:#fcf1e7;}.cls-35{fill:#fcf2e7;}.cls-36{fill:#fea478;}.cls-37{fill:#f7b79e;}.cls-38{fill:#fdd0b0;}.cls-39{fill:#efb68f;}.cls-40{fill:#f0b993;}.cls-41{fill:#f2ba93;}.cls-42{fill:#199210;}.cls-43{fill:#fef3e8;}.cls-44{fill:#d9d9d9;}.cls-45{fill:#cdcdcd;}.cls-46{fill:#f6b69f;}.cls-47{fill:#f6b7a1;}</style></defs><title>logo</title><path class="cls-1" d="M223,406V387a5.12,5.12,0,0,0,.95-1.58c.54-3.06.69-6.22,1.5-9.2,5.05-18.66,14.54-34.48,30.13-46.31,10.48-7.94,21.91-13.81,35-16,2.5-.41,4.92-1.26,7.38-1.91h19a6.66,6.66,0,0,0,2.07,1c9.19.64,17.78,3.65,25.81,7.71,11.12,5.62,20.93,13.05,28.63,23.19A86.73,86.73,0,0,1,388,371.13c-7.17,2-14.37,3.88-21.49,6-3.53,1.05-6.93,2.56-10.39,3.86l0,1.94-.24.14A3,3,0,0,0,355,383l-2.06-3.27L347,382.12c-1,2.21,3.69,2.86,1,4.87-.69-.18-1.46-.68-2-.51-2.7.78-5.34,1.74-8,2.63l-25-2.2c-2.71-2.23-5.35-.17-8,.13-1.32-1.87-2.85-.93-4.38-.36-6.59,2.47-13.17,5-19.81,7.34a26.68,26.68,0,0,1-7.56,1.78c-3.06.13-6.17-.51-9.25-.81l-.61-4.76c-3.2.1-5.91-1.28-8.39.77h0l-1.23.1H223.86V406A6.18,6.18,0,0,1,223,406Zm73.84-44V344.3h-3.38v20.82h7.86l1.4,2.94,2.57-.18c-.44-4-1-7.79-1.24-11.61s-.05-7.88-.05-12.2l-3.53.4V362Zm16.37-17.74V365h3.35V347.42h3.57v17.72l3.25-.21V344.24ZM342.36,362c-.4-2.49-.87-5.46-1.42-8.95a5.62,5.62,0,0,0,0-7.17c-2.32-2.85-5.61-1.8-8.62-1.45v21C335.69,364.74,339.23,366.49,342.36,362Zm-62.49-5.51,4.16-.73v-2.31l-4.34-1,.38-4.86,5.91-.9-1.19-2.6c-3,.28-5.77-.56-8.26.49v20.3h9.29l-.67-2.34-5.28-.79Z" transform="translate(-223 -312)"/><path class="cls-1" d="M317,481H298a10.22,10.22,0,0,0-2.07-1c-4.78-1-9.74-1.55-14.35-3.11-16.78-5.66-31-15.13-41.58-29.56-4.13-5.65-8.38-11.39-9.95-18.49l23.56,0c2.47-.71,1.34-2.74,1.35-4.15.09-11.25,0-22.49,0-33.74h0a23.12,23.12,0,0,1,1,4.57c.09,9.65,0,19.31.06,29,0,1.42.19,2.84.28,4.16H264V423l6.9,1c0,.29,0,.59,0,.88-1.82,5.33-1,7.21,4.13,9.14l3-2,1-.12,0,1.12v4.05c2.6,4.18,6.05,4.33,9.91,3a4.42,4.42,0,0,0,3,4.8H297c2.35,3.5,5.43,5.07,10,3.6l3.12-3.39c2.92.54,5.93,2,8.72-.95L319,442h4.71l3.24-5c3.32.1,6.3-.5,6.88-3.95-.3-2-.51-3.49-.73-4.94L335,427l4,1,3.7-2.23.3-5.67,5.07-4.06L355,414l2-1.72c-.11,2.5-2,5.17,1.47,6.76,2.2-.65,5.08-.23,6.5-3.1l.15-1.17c.71.25,1.51.84,2.11.68,7.94-2.06,15.86-4.24,23.78-6.39-.47,2.58-.76,5.2-1.44,7.72-5.05,18.68-14.65,34.43-30.16,46.3-10.45,8-21.9,13.83-35,16C321.88,479.5,319.46,480.35,317,481Z" transform="translate(-223 -312)"/><path class="cls-2" d="M388,371.13q1.59,6.42,3.19,12.84c0,.65,0,1.31,0,2l0,2-.09,2c.33,1.68.65,3.35,1,5v3l-.93,5.06.05,3,.06,2a3.23,3.23,0,0,0-.16,1c-7.92,2.15-15.84,4.33-23.78,6.39-.6.16-1.4-.43-2.11-.68A.76.76,0,0,0,365,414c-.31-1-.62-2.07-.92-3.11l-1-3.09a.78.78,0,0,0-.16-.8L362,403.9,360.78,399l-.61-1.34L359,393l.18-1.06c1.51-1.23.79-2.61.33-4-.71-2.17-1.32-4.37-2-6.61l-1.42-.3c3.46-1.3,6.86-2.81,10.39-3.86C373.58,375,380.78,373.12,388,371.13Z" transform="translate(-223 -312)"/><path class="cls-3" d="M391.07,403.06,392,398v5A7.26,7.26,0,0,0,391.07,403.06Z" transform="translate(-223 -312)"/><path class="cls-3" d="M392,395c-.32-1.68-.64-3.35-1-5a7.86,7.86,0,0,0,1,0Z" transform="translate(-223 -312)"/><path class="cls-4" d="M391.07,403.06A7.26,7.26,0,0,1,392,403v3c-.3,0-.59,0-.88.06Z" transform="translate(-223 -312)"/><path class="cls-5" d="M391.12,406.06c.29,0,.58-.05.88-.06v2a2.52,2.52,0,0,1-.82.08Z" transform="translate(-223 -312)"/><path class="cls-6" d="M392,390a7.86,7.86,0,0,1-1,0l.09-2,.88.05Z" transform="translate(-223 -312)"/><path class="cls-7" d="M392,388l-.88-.05,0-2,.85.06Z" transform="translate(-223 -312)"/><path class="cls-8" d="M392,386l-.85-.06v-2c.29,0,.57,0,.86,0Z" transform="translate(-223 -312)"/><path class="cls-9" d="M319,442l-.15,2.16c-2.79,2.94-5.8,1.49-8.72.95l-2.07-3,1.51-8L304,429c-.64-2.75-2.69-3.06-5-2.9l-1.26.34L295,421.09h-4.71c-4.16,2-7.17,4.6-8.69,8.7-.19.52-1,.82-1.47,1.22-.33,0-.66,0-1,0l1.18-3.51c-1.73-1.33-3.31-2.7-5-3.82-1.42-.91-3-1.37-4.32.36l-6.9-1V395c3.08.3,6.19.94,9.25.81a26.68,26.68,0,0,0,7.56-1.78c6.64-2.34,13.22-4.87,19.81-7.34,1.53-.57,3.06-1.51,4.38.36-2.43,3.78-6.21,5.89-10,8L292,399a12.36,12.36,0,0,0-.91,3.09c-.1,4,0,8,0,11.94,1.39,2.44,3.6,3.06,6.7,2.85a31.73,31.73,0,0,0,2.86-4.1c1.62-3.18,3-6.48,4.48-9.73l5.89-1L312,403c.32,0,.64.05,1,.06q8,4.47,16,9l9,5c-.37,2.92-1.08,5.61-4.25,6.83-.35.14-.51.76-.75,1.16l-14-7-2.72-5c-.16,2-.69,4.17,1.68,5,4.39,3.31,8.77,6.64,13.2,9.89.46.34,1.28.18,1.93.25.22,1.45.43,2.9.73,4.94-.58,3.45-3.56,4.05-6.88,3.95l-3.24,5H319c-.88-1.62-1.91-3-4-3-.74-1.4-1.6-2.65-3.78-2.07L315,439C315.86,440.63,316.91,442,319,442Zm3-8,2.29,2.7c.36-2.06-.66-2.71-2.29-2.7-3-3.7-7.11-5.8-11.11-8.05l-.68,1.05Zm-7.06-11.56c-1.7-3.86-4.14-4.44-7.83-2.19C308.78,423.45,308.78,423.45,314.94,422.44Z" transform="translate(-223 -312)"/><path class="cls-10" d="M230.05,428.87c-3.91-6.24-5-13.32-6-20.41-.11-.81-.12-1.63-.17-2.44V391.1h29.91l.13,4.93a6.36,6.36,0,0,0-.86,2.11Q253,412,253,425.81a6.9,6.9,0,0,0,.81,2.13,1.66,1.66,0,0,1-.23.95Z" transform="translate(-223 -312)"/><path class="cls-11" d="M329,412q-8-4.49-16-9a9.94,9.94,0,0,0-.12-3.1,28.72,28.72,0,0,0-2.21-4l2.38-4.19v-4.82l25,2.2-1.74,1.27c3.74,4.5,4.31,9.73,5.77,14.62-3.69,3.25-7.22,6.81-12.73,6.58C329.19,411.57,329.1,411.83,329,412Z" transform="translate(-223 -312)"/><path class="cls-12" d="M364.05,410.9c.3,1,.61,2.08.92,3.11-1.15.65-1.28,1.29,0,1.92-1.42,2.87-4.3,2.45-6.5,3.1-3.47-1.59-1.58-4.26-1.47-6.76L355,414l-4-15L348,387c2.69-2-2-2.66-1-4.87l5.92-2.39L355,383l.3,1.5.44-.06.11-1.35.24-.14,1.79,6.13c-.3.73-.59,1.47-.89,2.21l.7.23.38-1.64a7.82,7.82,0,0,1,.81.43l.27,1.64L359,393a7.24,7.24,0,0,0-.74,2.39A21.82,21.82,0,0,0,359,399l3,8h0c0,.66,0,1.33,0,2l1.66,3.82Z" transform="translate(-223 -312)"/><path class="cls-12" d="M264,395V428.7h-7.7c-.09-1.32-.28-2.74-.28-4.16,0-9.66,0-19.32-.06-29a23.12,23.12,0,0,0-1-4.57c2.48-2.05,5.19-.67,8.39-.77Z" transform="translate(-223 -312)"/><path class="cls-13" d="M313,386.91v4.82l-2.38,4.19a28.72,28.72,0,0,1,2.21,4A9.94,9.94,0,0,1,313,403c-.33,0-.65,0-1-.06L311,402l-5.89,1c-1.53-1.36-3-2.79-4.61-4.07s-3.62-2.63-5.43-3.94c3.77-2.11,7.55-4.22,10-8C307.67,386.74,310.31,384.68,313,386.91Z" transform="translate(-223 -312)"/><path class="cls-14" d="M296.84,362h3.63V344.47l3.53-.4c0,4.32-.16,8.27.05,12.2s.8,7.62,1.24,11.61l-2.57.18-1.4-2.94h-7.86V344.3h3.38Z" transform="translate(-223 -312)"/><path class="cls-15" d="M348,387,351,399l-1.7,2.77-.26-.48L343,405h-1c-1.46-4.89-2-10.12-5.77-14.62l1.74-1.27c2.66-.89,5.3-1.85,8-2.63C346.56,386.31,347.33,386.81,348,387Z" transform="translate(-223 -312)"/><path class="cls-16" d="M313.21,344.24h10.17v20.69l-3.25.21V347.42h-3.57V365h-3.35Z" transform="translate(-223 -312)"/><path class="cls-17" d="M342.36,362c-3.13,4.53-6.67,2.78-10.08,3.39v-21c3-.35,6.3-1.4,8.62,1.45a5.62,5.62,0,0,1,0,7.17C341.49,356.5,342,359.47,342.36,362Zm-6.92-6v6.29l3.65-.8-.43-5.17Zm.11-8.53V353c2.85-.21,3.5-1.68,3.17-3.7C338.45,347.57,337.46,346.67,335.55,347.42Z" transform="translate(-223 -312)"/><path class="cls-18" d="M279.87,356.45v5.23l5.28.79.67,2.34h-9.29v-20.3c2.49-1.05,5.3-.21,8.26-.49l1.19,2.6-5.91.9-.38,4.86,4.34,1v2.31Z" transform="translate(-223 -312)"/><path class="cls-12" d="M253.61,428.89a1.66,1.66,0,0,0,.23-.95L253.9,396l-.13-4.93L255,391c0,11.25.05,22.49,0,33.74C255,426.15,256.08,428.18,253.61,428.89Z" transform="translate(-223 -312)"/><path class="cls-19" d="M357.88,389.08Q357,386,356.09,383l0-1.94,1.42.3c.67,2.24,1.28,4.44,2,6.61.46,1.42,1.18,2.8-.33,4l-.27-1.64-.67-1.36Z" transform="translate(-223 -312)"/><path class="cls-20" d="M355.85,383.09l-.11,1.35-.44.06L355,383A3,3,0,0,1,355.85,383.09Z" transform="translate(-223 -312)"/><path class="cls-21" d="M280.08,431c.5-.4,1.28-.7,1.47-1.22,1.52-4.1,4.53-6.74,8.69-8.7H295l2.81,5.31,1.26-.34,1,1.91-3,1-8.1,11.09c-3.86,1.31-7.31,1.16-9.91-3V433Zm16.16-5.6c-2.81-1.78-4.69-3.18-7.55-1.72l-2.05,4.39c1.31,1.18,2.46,2.21,4.13,3.73Z" transform="translate(-223 -312)"/><path class="cls-22" d="M288.94,440.1,297,429l.26,3.58c3.13,1,4.5-.52,5.78-2.85L300,428l-1-1.91c2.32-.16,4.37.15,5,2.9L303,434l-1,3-5,7.9h-5.09A4.42,4.42,0,0,1,288.94,440.1Z" transform="translate(-223 -312)"/><path class="cls-23" d="M342,405h1c3,1.68,4.08,4.32,4.06,7.67a12.16,12.16,0,0,0,1.05,3.41L343,420.14,338,417l-9-5c.09-.14.18-.4.26-.39C334.78,411.81,338.31,408.25,342,405Z" transform="translate(-223 -312)"/><path class="cls-24" d="M297,444.9l5-7.9,1.73,2.74,3.39-5L303,434l1-5.05,5.54,5.12-1.51,8,2.07,3L307,448.5C302.45,450,299.37,448.4,297,444.9Z" transform="translate(-223 -312)"/><path class="cls-25" d="M348.11,416.08a12.16,12.16,0,0,1-1.05-3.41c0-3.35-1.05-6-4.06-7.67l6-3.69.26.48L351,399l4,15Z" transform="translate(-223 -312)"/><path class="cls-26" d="M338,417l5,3.15-.3,5.67L339,428l-4-1-2-2c.24-.4.4-1,.75-1.16C336.93,422.6,337.64,419.91,338,417Z" transform="translate(-223 -312)"/><path class="cls-27" d="M270.9,424.05c1.3-1.73,2.9-1.27,4.32-.36,1.74,1.12,3.32,2.49,5,3.82L279.09,431a1.94,1.94,0,0,0-.11.89l-1,.12c-1.32-.67-2.62-1.38-4-2a4.88,4.88,0,0,1-3.13-5.09C270.93,424.64,270.92,424.34,270.9,424.05Z" transform="translate(-223 -312)"/><path class="cls-28" d="M333,425l2,2-1.92,1.14c-.65-.07-1.47.09-1.93-.25-4.43-3.25-8.81-6.58-13.2-9.89l1,0Z" transform="translate(-223 -312)"/><path class="cls-29" d="M270.94,424.93a4.88,4.88,0,0,0,3.13,5.09c1.34.63,2.64,1.34,4,2l-3,2C269.91,432.14,269.12,430.26,270.94,424.93Z" transform="translate(-223 -312)"/><path class="cls-30" d="M365,415.93c-1.29-.63-1.16-1.27,0-1.92a.76.76,0,0,1,.16.75Z" transform="translate(-223 -312)"/><path class="cls-31" d="M279,431.91a1.94,1.94,0,0,1,.11-.89c.33,0,.66,0,1,0L279,433Z" transform="translate(-223 -312)"/><path class="cls-32" d="M362,407l-3-8h1l.81,0L362,403.9Z" transform="translate(-223 -312)"/><path class="cls-33" d="M360,399h-1a21.82,21.82,0,0,1-.77-3.6A7.24,7.24,0,0,1,359,393l1.2,4.67Z" transform="translate(-223 -312)"/><path class="cls-34" d="M364.05,410.9l-.38,1.92L362,409l1.08-1.19Z" transform="translate(-223 -312)"/><path class="cls-12" d="M362,407l0-3.1.89,3.11Z" transform="translate(-223 -312)"/><path class="cls-35" d="M362,407h.93a.78.78,0,0,1,.16.8L362,409C362,408.33,362,407.66,362,407Z" transform="translate(-223 -312)"/><path class="cls-12" d="M360,399l.2-1.32.61,1.34Z" transform="translate(-223 -312)"/><path class="cls-36" d="M295,395c1.81,1.31,3.68,2.55,5.43,3.94s3.08,2.71,4.61,4.07c-1.48,3.25-2.86,6.55-4.48,9.73a31.73,31.73,0,0,1-2.86,4.1c-3.1.21-5.31-.41-6.7-2.85,2.48.22,4.62-.27,6-3.25l-.54-4.41-4.56-.23V399Z" transform="translate(-223 -312)"/><path class="cls-37" d="M292,399v7.14l4.56.23.54,4.41c-1.42,3-3.56,3.47-6,3.25,0-4-.07-8,0-11.94A12.36,12.36,0,0,1,292,399Z" transform="translate(-223 -312)"/><path class="cls-38" d="M314.94,422.44c-6.16,1-6.16,1-7.83-2.19C310.8,418,313.24,418.58,314.94,422.44Z" transform="translate(-223 -312)"/><path class="cls-39" d="M322,434l-11.79-7,.68-1.05c4,2.25,8.09,4.35,11.11,8.05Z" transform="translate(-223 -312)"/><path class="cls-39" d="M319,418l-1,0c-2.37-.86-1.84-3-1.68-5Z" transform="translate(-223 -312)"/><path class="cls-39" d="M315,439l-3.78-2.07c2.18-.58,3,.67,3.78,2.07Z" transform="translate(-223 -312)"/><path class="cls-40" d="M319,442c-2.09,0-3.14-1.37-4-3h0c2.09,0,3.12,1.38,4,3Z" transform="translate(-223 -312)"/><path class="cls-41" d="M322,434c1.63,0,2.65.64,2.29,2.7L322,434Z" transform="translate(-223 -312)"/><path class="cls-11" d="M311,402,312,403Z" transform="translate(-223 -312)"/><path class="cls-42" d="M253.9,396l-.06,31.91a6.9,6.9,0,0,1-.81-2.13Q253,412,253,398.14A6.36,6.36,0,0,1,253.9,396Z" transform="translate(-223 -312)"/><path class="cls-43" d="M358.07,389.88l-.38,1.64-.7-.23c.3-.74.59-1.48.89-2.21l.33-.13A7.19,7.19,0,0,0,358.07,389.88Z" transform="translate(-223 -312)"/><path class="cls-2" d="M358.07,389.88a7.19,7.19,0,0,1,.14-.93l.67,1.36A7.82,7.82,0,0,0,358.07,389.88Z" transform="translate(-223 -312)"/><path class="cls-44" d="M335.44,356l3.22.32.43,5.17-3.65.8Z" transform="translate(-223 -312)"/><path class="cls-45" d="M335.55,347.42c1.91-.75,2.9.15,3.17,1.85.33,2-.32,3.49-3.17,3.7Z" transform="translate(-223 -312)"/><path class="cls-46" d="M296.24,425.41l-5.47,6.4c-1.67-1.52-2.82-2.55-4.13-3.73l2.05-4.39C291.55,422.23,293.43,423.63,296.24,425.41Z" transform="translate(-223 -312)"/><path class="cls-46" d="M300,428l3.07,1.77c-1.28,2.33-2.65,3.89-5.78,2.85L297,429Z" transform="translate(-223 -312)"/><path class="cls-47" d="M303,434l4.1.7-3.39,5L302,437Z" transform="translate(-223 -312)"/></svg>