<svg id="Слой_1" data-name="Слой 1" xmlns="http://www.w3.org/2000/svg" viewBox="0 0 275.97 8.1"><defs><style>.cls-1{fill:#91cfe6;}.cls-2{fill:#a5d7ea;}.cls-3{fill:#90cfe6;}.cls-4{fill:#97d1e7;}</style></defs><title>arrow</title><path class="cls-1" d="M-278,474.05l1.86,2.41V480l-2.35,2.18h-4l-2.44-2.27v-3.42l2-2.41Z" transform="translate(284.94 -474.05)"/><path class="cls-1" d="M-258.07,474.05l1.86,2.41V480l-2.2,2h-4.33l-2.28-2.12v-3.42l2-2.41Z" transform="translate(284.94 -474.05)"/><path class="cls-1" d="M-239.14,474.05l1.86,2.41V480l-2.19,2h-4.33l-2.29-2.12v-3.42l2-2.41Z" transform="translate(284.94 -474.05)"/><path class="cls-1" d="M-219.22,474.05l1.87,2.41V480l-2.35,2.18h-4l-2.45-2.27v-3.42l2-2.41Z" transform="translate(284.94 -474.05)"/><path class="cls-1" d="M-199.29,474.05l1.87,2.41V480l-2.35,2.18h-4l-2.45-2.27v-3.42l2-2.41Z" transform="translate(284.94 -474.05)"/><path class="cls-1" d="M-179.36,474.05l1.87,2.41V480l-2.35,2.18h-4l-2.44-2.27v-3.42l2-2.41Z" transform="translate(284.94 -474.05)"/><path class="cls-1" d="M-160.43,474.05l1.87,2.41V480l-2.35,2.18h-4l-2.45-2.27v-3.42l2-2.41Z" transform="translate(284.94 -474.05)"/><path class="cls-1" d="M-140.5,474.05l1.87,2.41V480l-2.2,2h-4.33l-2.28-2.12v-3.42l2-2.41Z" transform="translate(284.94 -474.05)"/><path class="cls-1" d="M-120.57,474.05l1.86,2.41V480l-2.19,2h-4.33l-2.28-2.12v-3.42l2-2.41Z" transform="translate(284.94 -474.05)"/><path class="cls-1" d="M-101.64,474.05l1.87,2.41V480l-2.2,2h-4.33l-2.28-2.12v-3.42l2-2.41Z" transform="translate(284.94 -474.05)"/><path class="cls-1" d="M-81.71,474.05l1.86,2.41V480L-82,482h-4.33l-2.28-2.12v-3.42l2-2.41Z" transform="translate(284.94 -474.05)"/><path class="cls-1" d="M-61.78,474.05l1.86,2.41V480l-2.35,2.18h-4l-2.45-2.27v-3.42l2-2.41Z" transform="translate(284.94 -474.05)"/><path class="cls-2" d="M-9,479.45l-2.56,1.25-1.62-2.17,1.78-2,2.4,1.08Z" transform="translate(284.94 -474.05)"/><path class="cls-3" d="M-48.83,477.19l2.51-2.21h3.07l2.31,2.45V480l-2.58,2.16h-2.87l-2.44-3.06Z" transform="translate(284.94 -474.05)"/><path class="cls-4" d="M-32.89,477.2l1.45-1.31h3c1.8,1,1.8,2.51,1.38,4.16l-1.19,1.08h-3.25l-1.37-1.23Z" transform="translate(284.94 -474.05)"/></svg>