<svg id="Слой_1" data-name="Слой 1" xmlns="http://www.w3.org/2000/svg" viewBox="0 0 34.94 33.06"><defs><style>.cls-1{fill:#fec59f;}.cls-2{fill:#febe94;}.cls-3{fill:#febd91;}.cls-4{fill:#feceae;}.cls-5{fill:#febe93;}.cls-6{fill:#fec9a6;}.cls-7{fill:#feb88a;}.cls-8{fill:#febd93;}.cls-9{fill:#feb685;}.cls-10{fill:#feaf7a;}.cls-11{fill:#fe9851;}</style></defs><title>1</title><path class="cls-1" d="M-143.22,374.51c0,7.42-.09,14.84.05,22.25,0,1.93-1.28,5,1.54,5.5,3.09.54,6.9,2,9.33-1.87.37.78.75,1,1.19.05a4.76,4.76,0,0,0,1,.21c0,.3,0,.6-.05.9,3.35,2.22,7,.89,10.56.86,1.57,0,1.88-1.68,2.2-3s-.28-3,.68-4.45c1.08,1.69.59,3.38.57,5,0,3-1.7,4.58-4.72,4.6q-9.49,0-19,0c-2.65,0-5-1.28-5.06-3.85-.18-8.76-1.09-17.55.45-26.28Z" transform="translate(145.37 -371.51)"/><path class="cls-2" d="M-125.2,391.33c.14-1,1.31-1.66,1.07-2.83l-.05.05c3.26-2,5.07-5.73,8.83-7.07,1.35-.48,2.55-1.68,4.11-.41s.54,2.36,0,3.51a2.71,2.71,0,0,0-.13,2.29c.81,2.33-1.77,6.83-3.83,6.26-3.89-1.08-5.25,1.78-7.43,3.49-1,.81-1.85,1.93-3.26,2.17a1.63,1.63,0,0,1-.42-.62c.77-.79,1.51-1.62,2.33-2.36,2.46-2.21,1.46-3.44-1.14-4.26Zm12.69-9.31c-3.69.83-5.87,3.16-8,5.47-.89.95-2.1,1.89-.53,3.29a2,2,0,0,0,3.09-.1C-115.52,388.33-112.54,386.29-112.51,382Z" transform="translate(145.37 -371.51)"/><path class="cls-3" d="M-143.22,374.51l-1.27-.08c1-2.76,3.28-2.93,5.7-2.92,5.15,0,10.3,0,15.45,0,6.85,0,8,1.42,6.61,8.35-1.31-6.73-1.69-7.07-9.1-7.21-4-.07-8,0-12,0C-139.83,372.64-141.78,372.83-143.22,374.51Z" transform="translate(145.37 -371.51)"/><path class="cls-4" d="M-120,383.26h-20C-137.08,381-124.72,380.89-120,383.26Z" transform="translate(145.37 -371.51)"/><path class="cls-5" d="M-139.25,376.79h18C-123.31,378.14-132.42,378.2-139.25,376.79Z" transform="translate(145.37 -371.51)"/><path class="cls-6" d="M-129.14,394.52c-3.51-.28-7.11.51-10.81-.56,3.71-2.37,8.89-2,10.76.62Z" transform="translate(145.37 -371.51)"/><path class="cls-7" d="M-124.13,388.5h-15.36l0-1c5.08.64,10.25-1.28,15.28,1.06Z" transform="translate(145.37 -371.51)"/><path class="cls-8" d="M-133.68,398.64c-2,1.13-4,1.13-6.53.29C-137.87,396.91-135.78,397.64-133.68,398.64Z" transform="translate(145.37 -371.51)"/><path class="cls-9" d="M-131.11,400.44c-.44.92-.82.73-1.19-.05a7.81,7.81,0,0,1,2.8-4.12l.54.44C-129.16,398.25-130.57,399.1-131.11,400.44Z" transform="translate(145.37 -371.51)"/><path class="cls-9" d="M-129.5,396.27l.36-1.75-.05.06,2.87-2.13.21.25c-.15,1.91-1.59,2.9-2.85,4Z" transform="translate(145.37 -371.51)"/><path class="cls-10" d="M-130.18,401.55c0-.3,0-.6.05-.9l3.83-2.48a1.63,1.63,0,0,0,.42.62C-127.11,400-128.18,401.5-130.18,401.55Z" transform="translate(145.37 -371.51)"/><path class="cls-11" d="M-126.32,392.45l1.12-1.12.09.22a1.43,1.43,0,0,1-1,1.15Z" transform="translate(145.37 -371.51)"/></svg>