<svg id="Слой_1" data-name="Слой 1" xmlns="http://www.w3.org/2000/svg" viewBox="0 0 34.97 32.14"><defs><style>.cls-1{fill:#fd9143;}.cls-2{fill:#fd9851;}.cls-3{fill:#fd964c;}.cls-4{fill:#fd9d59;}.cls-5{fill:#fd9449;}.cls-6{fill:#fd9347;}.cls-7{fill:#fda86b;}.cls-8{fill:#fda76a;}.cls-9{fill:#fd8c3a;}</style></defs><title>6</title><path class="cls-1" d="M-135.21,365.14c-.18-1.07.33-2.49-1.23-2.91s-2.77-1.29-2.82-3c-.09-2.64-.63-5.37.33-7.89a3.75,3.75,0,0,1,3.72-2.06c3,0,6-.13,9,0,2.68.14,4.31,1.53,4.18,4.47-.08,1.66,0,3.32-.08,5-.11,1.89-1.17,3.51-3,3.3-3.91-.46-6.9,1.53-10.13,3Zm4.51-14.06c-7.59-.14-7.7-.05-7.41,5.95.18,3.75,2.87,5.53,6.6,4.25a14,14,0,0,1,3.91-.35c3.85-.21,4.14-.5,4.25-4.34.14-5.41.12-5.44-5.37-5.51Z" transform="translate(146.2 -349.21)"/><path class="cls-2" d="M-115.29,371.06c.24,1.44,1.52,1.54,2.54,2,1.37.65,1.87,1.75,1.28,4-1.43-3.35-3.77-2-5.76-2.37-2.68-.54-4,.19-5.34,1.93a2,2,0,0,1-.07-2.58c.38-.69.85-1.9-.66-1.23-2.07.92-4.93-1.2-6.08,2.12-1.27-1.48-.47-2.54.22-2.92,2-1.1,2.91-2.17,2-4.63-.65-1.67.9-2.93,2.45-3.06a2.27,2.27,0,0,1,2.59,2.83c-1.41,4.07,1,4.57,4,4.92l-.06-.08c.71,1.53,1.4,1.62,2.06,0l-.11-1.09,0,.06Zm-9.33-5c-.6.17-1.29.27-1.27,1.11a1.68,1.68,0,0,0,1.3,1.74c.58.09,1.12-.48,1.22-1.21A1.34,1.34,0,0,0-124.62,366.09Zm-.09,5.23-.19.29.33,0Z" transform="translate(146.2 -349.21)"/><path class="cls-3" d="M-135.28,365.06c.81,2.78,1,5.46-1.17,7.81-1.4,1.51-2.75,1.61-4.25.18-1.7-1.63-2.43-5.64-1.15-7.32,1.95-2.55,4.31-1.73,6.64-.59Zm-1,2.88c.24-1.52-1-2.29-2.63-2.24a2.14,2.14,0,0,0-2.26,2.6c.27,1.73.5,4.07,2.64,4C-136.8,372.23-136.29,370.16-136.25,367.94Z" transform="translate(146.2 -349.21)"/><path class="cls-4" d="M-140.28,375.22a2.94,2.94,0,0,0,3.11.14,4.58,4.58,0,0,1,6.48,2.13c.36.81.53,1.76-.3,2.18-1.23.63-1-.66-1.34-1.25-1.12-1.83-2.6-3.11-4.63-1.23s-3.13.18-4.35-1.07Z" transform="translate(146.2 -349.21)"/><path class="cls-5" d="M-115.29,371.06l-1.06-.09a6.42,6.42,0,0,1,.48-1.4c.7-1.15.84-2.2-.48-3a1.43,1.43,0,0,0-1.32,0,2.55,2.55,0,0,0-.22,3.21c.28.51,1,.74,1.57,1.1,0,.36.07.73.11,1.09l-2.06,0,.06.08c-.47-.86-.94-1.71-1.42-2.56a2.75,2.75,0,0,1,.35-3.61,3.05,3.05,0,0,1,3.61-.7c1.45.59,1.7,1.89,1.59,3.29C-114.15,369.53-114.25,370.52-115.29,371.06Z" transform="translate(146.2 -349.21)"/><path class="cls-6" d="M-140.28,375.22l-1,.9c-2.45.21-4.06,1.46-4.5,5.23C-146.9,375.68-145.91,374.88-140.28,375.22Z" transform="translate(146.2 -349.21)"/><path class="cls-7" d="M-133.46,356c0,.78-.56,1.08-1.19,1.08a1.41,1.41,0,0,1-1.11-.66,1,1,0,0,1,.9-1.32A1.12,1.12,0,0,1-133.46,356Z" transform="translate(146.2 -349.21)"/><path class="cls-8" d="M-125.62,356a1.14,1.14,0,0,1-1.44,1,1,1,0,0,1-.89-1.35,1.41,1.41,0,0,1,1.13-.68C-126.21,355-125.6,355.34-125.62,356Z" transform="translate(146.2 -349.21)"/><path class="cls-9" d="M-130.17,355.18c.45.18.91.37.73,1-.14.46-.43.87-1,.73s-.88-.4-.72-1S-130.77,355.05-130.17,355.18Z" transform="translate(146.2 -349.21)"/></svg>