<svg id="Слой_1" data-name="Слой 1" xmlns="http://www.w3.org/2000/svg" viewBox="0 0 34.58 34.67"><defs><style>.cls-1{fill:#fd9347;}.cls-2{fill:#fd974e;}.cls-3{fill:#fd9348;}.cls-4{fill:#fd8c3b;}.cls-5{fill:#fd9952;}.cls-6{fill:#fd8a37;}.cls-7{fill:#fea05f;}.cls-8{fill:#fd8d3c;}.cls-9{fill:#fd8e3e;}.cls-10{fill:#fc832a;}.cls-11{fill:#fc8329;}.cls-12{fill:#fda566;}.cls-13{fill:#fc842c;}.cls-14{fill:#fc8833;}.cls-15{fill:#fc8229;}</style></defs><title>2</title><path class="cls-1" d="M737.1,395.53c-8-9-5.55-21,5.57-26.83l1,.81c-10.81,7.05-12.51,15.6-5.16,26l-.26.2Z" transform="translate(-732.38 -367.05)"/><path class="cls-2" d="M738.54,395.52c5.67,4.72,12,5.28,18.75,2.88l1.09-.24.2.26c-6,4.87-13.57,4.33-20-1.42-.09-.43-.18-.85-.28-1.28Z" transform="translate(-732.38 -367.05)"/><path class="cls-3" d="M743.18,387.53c-6.34-6.07-7.07-10.18-2.34-13.29.88-.58,1.74-1,2.55.1-5.38,4-5.36,4.27,1.17,13.29l-.07.22Z" transform="translate(-732.38 -367.05)"/><path class="cls-4" d="M764.39,375.47c3.71,5.94,3.31,11.81-.64,17.65a19,19,0,0,0-.58-17.52Z" transform="translate(-732.38 -367.05)"/><path class="cls-5" d="M747.57,390.66c2.95,1.78,5.55,4.48,9.51,3.69l2.7.06c1,.65,1.05,1.37.18,2.17l-1.3-.11c-4.27-.26-8.43-.76-11.11-4.75C747.56,391.37,747.56,391,747.57,390.66Z" transform="translate(-732.38 -367.05)"/><path class="cls-6" d="M743.7,369.51l-1-.81c5.47-2.29,10.8-2.39,15.93,1l-.11,1.25A18.23,18.23,0,0,0,743.7,369.51Z" transform="translate(-732.38 -367.05)"/><path class="cls-7" d="M748.47,386.5c-2.82-1.92-5-4.07-3-7.83,0-.43,0-.85,0-1.27h0c.32,0,.64,0,1,.06a.7.7,0,0,1,.25.61c0,.63,0,1.26,0,1.89-2,3.48,2.17,4.2,2.92,6.45Z" transform="translate(-732.38 -367.05)"/><path class="cls-8" d="M748.47,386.5l1.23-.08c1.79,3.32,5.53-1.15,7.4,1.85l-1.56.22C752.56,390.06,750.06,389.87,748.47,386.5Z" transform="translate(-732.38 -367.05)"/><path class="cls-1" d="M755.54,388.49l1.56-.22c2.95,1.15,4.07,3.1,2.68,6.14l-2.7-.06C760.2,391.44,757.32,390.11,755.54,388.49Z" transform="translate(-732.38 -367.05)"/><path class="cls-9" d="M758.49,370.92l.11-1.25a12.21,12.21,0,0,1,5.79,5.8l-1.22.13Z" transform="translate(-732.38 -367.05)"/><path class="cls-10" d="M745.48,389.6l-1-.91a2.64,2.64,0,0,0,0-.84l.07-.22,1.25,1.63Z" transform="translate(-732.38 -367.05)"/><path class="cls-1" d="M758.66,396.47l1.3.11-1.38,1.84-.2-.26c.06-.32.11-.65.17-1A.64.64,0,0,1,758.66,396.47Z" transform="translate(-732.38 -367.05)"/><path class="cls-11" d="M744.76,377.39c-.24-.77.15-.85.76-.7a4.33,4.33,0,0,0,0,.72h0A7.09,7.09,0,0,0,744.76,377.39Z" transform="translate(-732.38 -367.05)"/><path class="cls-12" d="M745.54,377.41a4.33,4.33,0,0,1,0-.72l1,.78C746.18,377.46,745.86,377.44,745.54,377.41Z" transform="translate(-732.38 -367.05)"/><path class="cls-12" d="M744.76,377.39a7.09,7.09,0,0,1,.8,0c0,.42,0,.84,0,1.27Z" transform="translate(-732.38 -367.05)"/><path class="cls-12" d="M746.78,380c0-.63,0-1.26,0-1.89A1.14,1.14,0,0,1,746.78,380Z" transform="translate(-732.38 -367.05)"/><path class="cls-10" d="M744.49,387.85a2.64,2.64,0,0,1,0,.84l-1.35-1.16Z" transform="translate(-732.38 -367.05)"/><path class="cls-13" d="M746.48,390.62l-1-1,.33-.34,1,1Z" transform="translate(-732.38 -367.05)"/><path class="cls-14" d="M747.57,390.66c0,.35,0,.71,0,1.06l-1.07-1.11.34-.36A.7.7,0,0,1,747.57,390.66Z" transform="translate(-732.38 -367.05)"/><path class="cls-15" d="M738.28,395.72c.1.43.19.85.28,1.28l-1.46-1.47Z" transform="translate(-732.38 -367.05)"/><path class="cls-13" d="M758.55,397.18c-.06.33-.11.66-.17,1l-1.09.24Z" transform="translate(-732.38 -367.05)"/><path class="cls-1" d="M737.11,395.53c-8.05-9-5.55-21,5.57-26.83l1,.81c-10.81,7.05-12.51,15.6-5.17,26l-.25.21Z" transform="translate(-732.38 -367.05)"/><path class="cls-2" d="M738.54,395.51c5.68,4.73,12,5.28,18.76,2.89l1.09-.24.19.26c-6,4.86-13.56,4.33-20-1.42-.09-.43-.19-.86-.28-1.28Z" transform="translate(-732.38 -367.05)"/><path class="cls-3" d="M743.19,387.53c-6.35-6.07-7.07-10.18-2.34-13.29.88-.58,1.74-1,2.54.1-5.38,4-5.35,4.26,1.17,13.28l-.06.23Z" transform="translate(-732.38 -367.05)"/><path class="cls-4" d="M764.4,375.47c3.71,5.94,3.3,11.81-.64,17.65a19,19,0,0,0-.59-17.53Z" transform="translate(-732.38 -367.05)"/><path class="cls-5" d="M747.58,390.66c2.95,1.78,5.55,4.48,9.51,3.69l2.69.06c1,.65,1.05,1.36.18,2.16l-1.29-.11c-4.27-.25-8.43-.75-11.11-4.74C747.57,391.37,747.57,391,747.58,390.66Z" transform="translate(-732.38 -367.05)"/><path class="cls-6" d="M743.71,369.51l-1-.81c5.47-2.29,10.8-2.39,15.92,1l-.1,1.25A18.19,18.19,0,0,0,743.71,369.51Z" transform="translate(-732.38 -367.05)"/><path class="cls-7" d="M748.48,386.49c-2.83-1.91-5-4.06-3-7.82,0-.43,0-.85,0-1.27h0c.32,0,.64.06,1,.07a.68.68,0,0,1,.26.61c0,.63,0,1.26,0,1.89-2,3.48,2.17,4.2,2.92,6.45Z" transform="translate(-732.38 -367.05)"/><path class="cls-8" d="M748.48,386.49l1.23-.07c1.79,3.32,5.53-1.15,7.4,1.85l-1.56.22C752.56,390.06,750.07,389.87,748.48,386.49Z" transform="translate(-732.38 -367.05)"/><path class="cls-1" d="M755.55,388.49l1.56-.22c2.95,1.15,4.06,3.1,2.67,6.14l-2.69-.06C760.21,391.44,757.33,390.11,755.55,388.49Z" transform="translate(-732.38 -367.05)"/><path class="cls-9" d="M758.5,370.92l.1-1.25a12.23,12.23,0,0,1,5.8,5.8l-1.23.12Z" transform="translate(-732.38 -367.05)"/><path class="cls-10" d="M745.49,389.59l-1-.91a2.58,2.58,0,0,0,0-.83l.06-.23,1.26,1.63Z" transform="translate(-732.38 -367.05)"/><path class="cls-1" d="M758.67,396.46l1.29.11-1.38,1.85-.19-.26c.06-.32.11-.65.16-1A.68.68,0,0,1,758.67,396.46Z" transform="translate(-732.38 -367.05)"/><path class="cls-11" d="M744.77,377.39c-.25-.77.15-.85.76-.7a4.18,4.18,0,0,0,0,.71h0A7.09,7.09,0,0,0,744.77,377.39Z" transform="translate(-732.38 -367.05)"/><path class="cls-12" d="M745.55,377.4a4.18,4.18,0,0,1,0-.71l1,.78C746.19,377.46,745.87,377.44,745.55,377.4Z" transform="translate(-732.38 -367.05)"/><path class="cls-12" d="M744.77,377.39a7.09,7.09,0,0,1,.8,0c0,.42,0,.84,0,1.27Z" transform="translate(-732.38 -367.05)"/><path class="cls-12" d="M746.79,380c0-.63,0-1.26,0-1.89A1.14,1.14,0,0,1,746.79,380Z" transform="translate(-732.38 -367.05)"/><path class="cls-10" d="M744.5,387.85a2.58,2.58,0,0,1,0,.83l-1.35-1.15Z" transform="translate(-732.38 -367.05)"/><path class="cls-13" d="M746.49,390.61l-1-1,.33-.34,1,1Z" transform="translate(-732.38 -367.05)"/><path class="cls-14" d="M748.64,391.49c0,.35,0,.71,0,1.06l-1.07-1.11.34-.36A.69.69,0,0,1,748.64,391.49Z" transform="translate(-732.38 -367.05)"/><path class="cls-15" d="M738.29,395.72c.09.42.19.85.28,1.28l-1.46-1.47Z" transform="translate(-732.38 -367.05)"/><path class="cls-13" d="M758.55,397.18c0,.33-.1.66-.16,1l-1.09.24Z" transform="translate(-732.38 -367.05)"/></svg>