<svg id="Слой_1" data-name="Слой 1" xmlns="http://www.w3.org/2000/svg" viewBox="0 0 29.4 29.98"><defs><style>.cls-1{fill:#fc8935;}.cls-2{fill:#fd9952;}.cls-3{fill:#fd8f40;}.cls-4{fill:#fc8229;}.cls-5{fill:#fc842b;}</style></defs><title>3</title><path class="cls-1" d="M670.2,406.43v-30h15.95c6.25,8.57,6.1,4.41,6.34,9.52l-8.15-1.66-.78-6.18H672v26.38h18.29c.21-2.34.39-4.4.57-6.46l1.58.16-.75,8.22ZM687.08,379l-2.21,1.64,2.88,2.93.42-.28,1.41-1.34Z" transform="translate(-670.2 -376.45)"/><path class="cls-2" d="M699.56,387.94c.32,3.35-3,6.61-6,6l1-1,1-1,1-1c.21-.14.42-.28.13-.09.14-.36,0-.1-.07.16l-1,1-1.45,1.44-1.33,1.14a19.44,19.44,0,0,0-2.26,1.86c-3.7,3.84-7.48,7.41-13.64,5.93h0l-.73-1.86h0l-1.72,1.3-.61-.55,3.22-4.8h0l2.11,5.32h0c5.38-5.65,9.84-10.44,14.44-15.1,1.49-1.51,3.06-3.66,5.69-1.67l-1,.05-1.88,1.6,2,.25.48,0,.48,0,.22,1.06c-.18.12-.36.23-.07,0C699.35,388.38,699.45,388.16,699.56,387.94Zm-10,6,6.72-5h0l-1.53-1.53h0L689.61,394h0l-6,5h0l1.26,1.21h0l4.66-6.29Z" transform="translate(-670.2 -376.45)"/><path class="cls-3" d="M674.72,390.35h12l0,1c-3.93,1.16-8,.39-12,.52h0Z" transform="translate(-670.2 -376.45)"/><path class="cls-4" d="M674.91,385.79l6.3-.13.07.87h-6.4Z" transform="translate(-670.2 -376.45)"/><path class="cls-4" d="M682,395.85l-7-.67h7.18Z" transform="translate(-670.2 -376.45)"/><path class="cls-5" d="M698.32,385.07l1-.05c0,.63,0,1.27,0,1.9l-.48,0-.48,0Z" transform="translate(-670.2 -376.45)"/></svg>