<svg id="Слой_1" data-name="Слой 1" xmlns="http://www.w3.org/2000/svg" viewBox="0 0 46.71 21.3"><defs><style>.cls-1{fill:#fd9348;}.cls-2{fill:#fd9952;}.cls-3{fill:#fd9044;}.cls-4{fill:#fc8936;}.cls-5{fill:#fd9448;}.cls-6{fill:#fd8d3c;}</style></defs><title>5</title><path class="cls-1" d="M-103.94,354.21c-6.13,0-13.91.09-20,.43-3.66.2-4.78-1.14-4.66-4.51.13-4,.15-8,0-12-.13-3.07.81-4.38,4.18-4.53,12.78-.55,25.57-.09,38.35-.28,2.91,0,4.26,1.09,4.16,4.13-.13,4.31-.13,8.64,0,12.95.09,2.74-.88,3.88-3.74,3.82-6.63-.15-13.27-.05-19.91-.05C-105.58,354.32-103.94,354.1-103.94,354.21Zm-5.8-1.18c4.66,0,9.32-.11,14,.05,2.65.09,4-.56,3.8-3.55a108.48,108.48,0,0,1,0-11c.1-2.5-.64-3.55-3.34-3.51q-14.44.19-28.91,0c-2.54,0-3.06,1.05-3,3.28.13,3.82.21,7.66,0,11.47-.17,2.82,1.12,3.31,3.52,3.25C-119,352.94-114.39,353-109.74,353Zm19.53-9c0,2,.15,4,0,6-.29,3,1.41,3.11,3.67,3.1s3.46-.29,3.32-2.95a105.83,105.83,0,0,1,0-11c.14-2.77-.29-4.21-3.68-4.18s-3.44,1.62-3.3,4C-90.14,340.67-90.22,342.34-90.21,344Z" transform="translate(128.63 -333.36)"/><path class="cls-2" d="M-112.12,343.46c-.35,2.7-.1,5.61-2.36,7.74-2.69-.83-1.07-3.32-2.38-4.89a7,7,0,0,0-6.09,4.31c-1.46-2.18-1.58-4.4-3.32-5.92,3.4,0,6.12-.58,7.82-3.4l.33-.34c.9.4,2,.76.88,2-1,1.07-2.85,1.05-3.44,2.72,2.15.49,4.5-3.7,6.17.81.53-1.8.58-3.56,2.28-4.41Z" transform="translate(128.63 -333.36)"/><path class="cls-3" d="M-94.67,339.87c-2.69,1.31-5.37.8-8.08.1A11.25,11.25,0,0,1-94.67,339.87Z" transform="translate(128.63 -333.36)"/><path class="cls-4" d="M-94.67,343.86a10.54,10.54,0,0,1-8.16-.05A12.47,12.47,0,0,1-94.67,343.86Z" transform="translate(128.63 -333.36)"/><path class="cls-2" d="M-118.45,341.3a5.54,5.54,0,0,1-3.57-3.49c2.06-1.4,3.56-.37,5,.94a2.74,2.74,0,0,1-.4.5c-2-.18-.78,1-.72,1.71Z" transform="translate(128.63 -333.36)"/><path class="cls-5" d="M-112.12,343.46l-.11-1.38c-1.27-1.77-4.27-.39-5.17-2.83a2.74,2.74,0,0,0,.4-.5c1.26.1,2.21,1.5,3.63.88a2,2,0,0,1,2.75,1.21C-110,342.2-111.21,342.81-112.12,343.46Z" transform="translate(128.63 -333.36)"/><path class="cls-6" d="M-94.68,348.14h-8v-.69h7.93Z" transform="translate(128.63 -333.36)"/></svg>